<svg xmlns="http://www.w3.org/2000/svg" xmlns:xlink="http://www.w3.org/1999/xlink" width="400" zoomAndPan="magnify" viewBox="0 0 300 299.999988" height="400" preserveAspectRatio="xMidYMid meet" version="1.0"><defs><g/><clipPath id="7ef03a669a"><path d="M 8.808594 8.808594 L 291.191406 8.808594 L 291.191406 291.191406 L 8.808594 291.191406 Z M 8.808594 8.808594 " clip-rule="nonzero"/></clipPath><clipPath id="a951775725"><path d="M 150 8.808594 C 72.019531 8.808594 8.808594 72.019531 8.808594 150 C 8.808594 227.980469 72.019531 291.191406 150 291.191406 C 227.980469 291.191406 291.191406 227.980469 291.191406 150 C 291.191406 72.019531 227.980469 8.808594 150 8.808594 " clip-rule="nonzero"/></clipPath><clipPath id="ecb4c5ad11"><path d="M 46.378906 75.332031 L 192.628906 75.332031 L 192.628906 176.582031 L 46.378906 176.582031 Z M 46.378906 75.332031 " clip-rule="nonzero"/></clipPath><clipPath id="369f1b457e"><path d="M 170.074219 105.03125 L 280 105.03125 L 280 177 L 170.074219 177 Z M 170.074219 105.03125 " clip-rule="nonzero"/></clipPath><clipPath id="99ed903c4a"><path d="M 121 63 L 161.613281 63 L 161.613281 105 L 121 105 Z M 121 63 " clip-rule="nonzero"/></clipPath></defs><g clip-path="url(#7ef03a669a)"><g clip-path="url(#a951775725)"><path fill="#ffde59" d="M 8.808594 8.808594 L 291.191406 8.808594 L 291.191406 291.191406 L 8.808594 291.191406 Z M 8.808594 8.808594 " fill-opacity="1" fill-rule="nonzero"/></g></g><g clip-path="url(#ecb4c5ad11)"><path fill="#623d2b" d="M 72.277344 75.492188 C 71.195312 75.566406 70.203125 75.679688 70.074219 75.773438 C 69.945312 75.847656 69.308594 75.996094 68.671875 76.070312 C 66.28125 76.425781 63.949219 77.414062 61.820312 79 C 61.144531 79.484375 60.25 80.140625 59.820312 80.417969 C 59.054688 80.960938 58.773438 81.410156 58.550781 82.566406 C 58.476562 82.902344 57.933594 83.796875 57.316406 84.542969 C 56.308594 85.8125 56.066406 85.980469 54.105469 86.972656 C 52.945312 87.550781 51.863281 88.015625 51.695312 88.015625 C 51.546875 88.015625 51.304688 88.148438 51.171875 88.296875 C 51.042969 88.445312 50.613281 88.667969 50.183594 88.78125 C 49.769531 88.894531 49.117188 89.171875 48.726562 89.433594 C 48.332031 89.675781 47.886719 89.882812 47.734375 89.882812 C 47.605469 89.882812 47.289062 90.03125 47.042969 90.238281 C 46.503906 90.667969 46.464844 91.65625 46.96875 92.960938 C 47.15625 93.46875 47.492188 94.382812 47.699219 94.960938 C 47.921875 95.558594 48.222656 96.078125 48.371094 96.15625 C 49.808594 96.769531 53.675781 97.03125 56.101562 96.695312 C 57.148438 96.546875 58.101562 96.417969 58.234375 96.417969 C 58.585938 96.417969 58.492188 96.753906 58.0625 97.125 C 57.839844 97.292969 57.558594 97.554688 57.429688 97.667969 C 57.28125 97.796875 57.09375 97.910156 57 97.910156 C 56.664062 97.910156 54.628906 99.625 54.386719 100.113281 C 54.234375 100.390625 53.804688 100.839844 53.394531 101.121094 C 52.929688 101.457031 52.667969 101.792969 52.667969 102.035156 C 52.667969 102.390625 52.742188 102.425781 53.320312 102.332031 C 53.898438 102.238281 53.972656 102.277344 53.972656 102.652344 C 53.972656 104.011719 55.878906 105.28125 57.894531 105.265625 C 59.015625 105.265625 59.277344 105.171875 61.445312 104.03125 C 64.824219 102.257812 67.179688 101.472656 67.515625 102.015625 C 67.703125 102.296875 68.839844 102.238281 69.101562 101.921875 C 69.421875 101.550781 69.53125 101.566406 70.128906 102.128906 C 70.632812 102.59375 70.746094 102.613281 71.847656 102.5 L 73.042969 102.371094 L 74.109375 103.324219 C 74.6875 103.828125 75.230469 104.253906 75.304688 104.253906 C 75.378906 104.253906 75.621094 104.609375 75.847656 105.039062 C 76.070312 105.488281 76.367188 105.917969 76.480469 106.027344 C 76.613281 106.121094 76.78125 106.515625 76.835938 106.867188 C 77.246094 109.070312 77.285156 109.558594 77.117188 110.023438 C 76.871094 110.65625 76.199219 113.8125 76.070312 114.953125 C 75.882812 116.519531 76.3125 118.011719 77.339844 119.414062 C 77.824219 120.101562 78.421875 121.019531 78.628906 121.445312 C 78.851562 121.859375 79.375 122.699219 79.804688 123.296875 C 80.90625 124.84375 81.992188 126.765625 81.992188 127.175781 C 81.992188 127.832031 81.242188 129.25 80.535156 129.976562 C 79.507812 131.003906 78.085938 132.199219 77.730469 132.347656 C 77.5625 132.402344 77.078125 132.722656 76.667969 133.019531 C 76.257812 133.335938 75.171875 134.007812 74.238281 134.53125 C 73.324219 135.054688 72.519531 135.519531 72.464844 135.597656 C 72.410156 135.652344 72.128906 135.839844 71.828125 135.988281 C 71.0625 136.378906 69.886719 137.78125 69.308594 138.972656 C 68.878906 139.90625 68.824219 140.1875 68.839844 142.242188 C 68.839844 144.125 68.898438 144.574219 69.214844 145.039062 C 69.777344 145.957031 71.230469 147.746094 71.382812 147.746094 C 71.476562 147.746094 71.53125 147.859375 71.53125 148.007812 C 71.53125 148.15625 71.605469 148.308594 71.679688 148.34375 C 72 148.476562 73.117188 150.546875 73.511719 151.703125 C 73.585938 151.890625 73.699219 152.039062 73.773438 152.039062 C 73.828125 152.039062 74.332031 152.433594 74.855469 152.917969 C 76.070312 154.074219 76.722656 154.558594 77.5625 154.953125 C 77.9375 155.140625 78.253906 155.34375 78.253906 155.4375 C 78.253906 155.511719 78.460938 155.585938 78.703125 155.585938 C 78.964844 155.585938 79.488281 155.773438 79.878906 156.015625 C 80.496094 156.371094 80.90625 156.425781 82.925781 156.484375 C 84.644531 156.539062 85.351562 156.484375 85.59375 156.296875 C 85.96875 156.015625 86.324219 154.1875 86.101562 153.71875 C 85.914062 153.382812 85.277344 151.628906 85.035156 150.828125 C 84.90625 150.34375 84.773438 150.265625 84.175781 150.210938 C 83.800781 150.175781 83.484375 150.082031 83.484375 149.988281 C 83.484375 149.726562 81.992188 149.089844 81.617188 149.183594 C 81.375 149.257812 81.242188 149.183594 81.242188 149.015625 C 81.242188 148.625 80.160156 147.394531 79.523438 147.074219 C 79.246094 146.925781 79.003906 146.664062 79.003906 146.476562 C 79.003906 145.957031 78.085938 144.761719 77.695312 144.761719 C 77.472656 144.761719 77.285156 144.59375 77.210938 144.3125 C 77.023438 143.585938 77.191406 143.210938 77.769531 143.0625 C 78.070312 142.96875 78.535156 142.6875 78.816406 142.425781 C 79.46875 141.792969 80.644531 141.214844 81.261719 141.214844 C 81.542969 141.214844 81.804688 141.140625 81.839844 141.066406 C 81.878906 140.992188 82.570312 140.730469 83.390625 140.488281 C 85.054688 140.019531 86.585938 139.476562 89.332031 138.394531 C 90.320312 137.984375 91.367188 137.667969 91.609375 137.667969 C 91.871094 137.667969 92.078125 137.613281 92.078125 137.519531 C 92.078125 137.445312 92.582031 137.144531 93.214844 136.847656 C 93.832031 136.546875 94.394531 136.191406 94.449219 136.0625 C 94.578125 135.726562 95.066406 135.726562 95.066406 136.0625 C 95.066406 136.453125 94.691406 137.480469 94.039062 138.882812 C 93.703125 139.589844 93.367188 140.394531 93.289062 140.65625 C 93.214844 140.898438 93.03125 141.214844 92.898438 141.363281 C 92.75 141.496094 92.636719 141.753906 92.636719 141.941406 C 92.636719 142.109375 92.5625 142.335938 92.46875 142.425781 C 92.394531 142.539062 92.003906 143.34375 91.628906 144.21875 C 91.050781 145.601562 90.957031 146.03125 90.957031 147.242188 C 90.957031 148.363281 91.050781 148.8125 91.367188 149.371094 C 91.589844 149.761719 91.871094 150.136719 91.984375 150.210938 C 92.09375 150.285156 92.433594 150.714844 92.730469 151.183594 C 93.011719 151.628906 93.421875 152.039062 93.644531 152.097656 C 93.871094 152.152344 94.542969 152.394531 95.160156 152.65625 C 95.980469 152.992188 96.800781 153.160156 98.203125 153.253906 C 99.25 153.328125 100.109375 153.460938 100.109375 153.535156 C 100.109375 153.609375 100.632812 153.71875 101.285156 153.777344 C 101.921875 153.8125 103.265625 154.039062 104.292969 154.261719 C 105.300781 154.484375 106.777344 154.710938 107.5625 154.746094 C 108.34375 154.785156 109.222656 154.898438 109.503906 155.007812 C 109.800781 155.121094 110.230469 155.214844 110.492188 155.214844 C 110.734375 155.214844 110.941406 155.289062 110.941406 155.402344 C 110.941406 155.511719 111.800781 155.585938 113.144531 155.585938 L 115.332031 155.570312 L 115.667969 154.859375 C 116.097656 153.925781 116.078125 152.46875 115.59375 151.199219 C 115.144531 149.988281 114.210938 148.867188 113.648438 148.867188 C 113.445312 148.867188 113.050781 148.753906 112.789062 148.605469 C 112.511719 148.476562 112.0625 148.363281 111.761719 148.34375 C 111.484375 148.34375 111.203125 148.25 111.164062 148.140625 C 111.074219 147.859375 110.25 147.878906 110.121094 148.15625 C 110.027344 148.34375 109.988281 148.34375 109.894531 148.15625 C 109.765625 147.859375 109.316406 147.859375 109.222656 148.15625 C 109.167969 148.324219 109.054688 148.308594 108.8125 148.082031 C 108.402344 147.652344 107.09375 147.316406 106.476562 147.46875 C 105.675781 147.652344 104.964844 147.972656 104.964844 148.140625 C 104.964844 148.234375 104.628906 148.308594 104.21875 148.308594 C 103.804688 148.308594 103.46875 148.234375 103.46875 148.15625 C 103.46875 148.066406 103.003906 147.859375 102.441406 147.671875 C 101.882812 147.503906 101.414062 147.28125 101.414062 147.1875 C 101.414062 147.074219 102.273438 145.5625 103.339844 143.789062 C 104.40625 142.015625 105.523438 140.113281 105.804688 139.570312 C 106.105469 139.011719 106.589844 138.359375 106.886719 138.117188 C 107.410156 137.6875 107.503906 137.667969 110.660156 137.667969 C 112.4375 137.667969 113.929688 137.59375 113.96875 137.5 C 114.097656 137.125 121.738281 135.820312 123.792969 135.800781 C 124.425781 135.800781 124.949219 135.726562 124.949219 135.613281 C 124.949219 135.503906 125.492188 135.429688 126.21875 135.429688 C 127.023438 135.429688 127.996094 135.261719 128.964844 134.960938 C 129.789062 134.699219 130.664062 134.496094 130.925781 134.496094 C 131.1875 134.496094 131.636719 134.363281 131.917969 134.214844 C 132.214844 134.066406 133.09375 133.839844 133.878906 133.730469 C 134.664062 133.617188 135.785156 133.46875 136.34375 133.375 C 136.902344 133.28125 137.6875 133.207031 138.082031 133.207031 L 138.773438 133.1875 L 138.773438 134.121094 C 138.773438 135.390625 140.601562 139.945312 141.5 140.933594 C 141.703125 141.160156 142.132812 141.867188 142.453125 142.519531 C 142.789062 143.191406 143.609375 144.3125 144.28125 145.023438 C 144.953125 145.730469 145.496094 146.386719 145.496094 146.460938 C 145.496094 146.554688 145.609375 146.628906 145.738281 146.628906 C 145.960938 146.628906 147.363281 147.820312 147.363281 148.027344 C 147.363281 148.289062 148.558594 149.613281 148.800781 149.613281 C 148.933594 149.613281 149.042969 149.707031 149.042969 149.820312 C 149.042969 149.929688 149.398438 150.34375 149.828125 150.714844 C 150.257812 151.089844 150.761719 151.519531 150.929688 151.703125 C 151.097656 151.871094 151.417969 152.058594 151.621094 152.117188 C 151.976562 152.226562 154.648438 154.785156 155.226562 155.570312 C 155.394531 155.792969 155.636719 156.316406 155.789062 156.761719 C 155.917969 157.191406 156.085938 157.585938 156.140625 157.640625 C 156.199219 157.695312 156.402344 158.21875 156.570312 158.816406 C 156.90625 159.878906 156.871094 160.871094 156.496094 161.09375 C 156.402344 161.167969 156.328125 161.449219 156.328125 161.765625 C 156.328125 162.0625 156.253906 162.308594 156.140625 162.308594 C 156.046875 162.308594 155.957031 162.398438 155.957031 162.511719 C 155.957031 162.734375 154.835938 164.433594 154.609375 164.507812 C 154.535156 164.546875 154.460938 164.640625 154.460938 164.734375 C 154.460938 164.9375 150.835938 168.578125 150.238281 168.96875 C 149.886719 169.195312 149.210938 169.304688 147.71875 169.363281 C 146.597656 169.417969 145.683594 169.511719 145.683594 169.585938 C 145.683594 169.679688 145.363281 169.792969 144.972656 169.867188 C 144.46875 169.941406 143.945312 170.277344 143.105469 171.0625 C 142.097656 171.996094 141.945312 172.21875 141.945312 172.816406 C 141.945312 173.28125 141.855469 173.507812 141.683594 173.507812 C 141.367188 173.507812 140.453125 174.550781 140.453125 174.925781 C 140.453125 175.074219 140.601562 175.261719 140.789062 175.316406 C 140.957031 175.390625 141.21875 175.597656 141.347656 175.765625 C 141.480469 175.953125 141.945312 176.15625 142.394531 176.214844 C 144.804688 176.585938 154.21875 176.082031 155.207031 175.542969 C 156.253906 174.960938 156.570312 174.515625 156.476562 173.730469 C 156.386719 173.097656 156.460938 172.910156 157 172.3125 C 157.335938 171.9375 157.691406 171.640625 157.785156 171.640625 C 157.898438 171.640625 158.027344 171.414062 158.085938 171.15625 C 158.160156 170.894531 159.167969 169.71875 160.34375 168.542969 C 161.519531 167.347656 162.492188 166.28125 162.492188 166.171875 C 162.492188 166.058594 162.847656 165.609375 163.296875 165.199219 C 163.726562 164.789062 164.265625 164.0625 164.492188 163.578125 C 164.734375 163.070312 164.996094 162.679688 165.109375 162.679688 C 165.199219 162.679688 165.292969 162.550781 165.292969 162.398438 C 165.292969 162.007812 166.414062 159.84375 166.824219 159.433594 C 167.160156 159.132812 167.179688 158.890625 167.105469 157.117188 L 167.011719 155.121094 L 166.152344 154.316406 C 165.6875 153.871094 165.292969 153.441406 165.292969 153.328125 C 165.292969 153.234375 164.957031 152.804688 164.546875 152.394531 C 164.136719 151.964844 163.800781 151.535156 163.800781 151.441406 C 163.800781 151.351562 163.519531 151.015625 163.183594 150.679688 C 162.511719 150.042969 161.746094 148.4375 161.746094 147.671875 C 161.746094 147.410156 161.578125 147.058594 161.390625 146.871094 C 161.183594 146.683594 160.867188 146.03125 160.664062 145.414062 C 160.34375 144.445312 160.324219 144.03125 160.457031 142.242188 C 160.605469 140.242188 161 138.769531 161.503906 138.265625 C 161.632812 138.132812 161.746094 137.890625 161.746094 137.761719 C 161.746094 137.519531 162.398438 136.398438 162.867188 135.855469 C 162.960938 135.726562 163.054688 135.539062 163.054688 135.429688 C 163.054688 135.316406 163.183594 135.09375 163.332031 134.941406 C 163.484375 134.773438 163.613281 134.457031 163.613281 134.214844 C 163.613281 133.972656 163.875 133.226562 164.171875 132.535156 C 164.492188 131.84375 164.734375 131.171875 164.734375 131.023438 C 164.734375 130.875 164.863281 130.707031 165.015625 130.648438 C 165.164062 130.574219 165.292969 130.425781 165.292969 130.277344 C 165.292969 130.125 165.5 129.699219 165.742188 129.304688 C 165.964844 128.933594 166.226562 128.429688 166.304688 128.203125 C 166.378906 127.960938 166.5625 127.664062 166.695312 127.511719 C 167.179688 127.027344 167.386719 123.386719 167.144531 119.84375 C 167.03125 118.085938 166.863281 116.613281 166.769531 116.554688 C 166.675781 116.5 166.546875 116.035156 166.472656 115.511719 C 166.378906 114.691406 166.414062 114.503906 166.769531 114.222656 C 166.976562 114.035156 167.160156 113.773438 167.160156 113.664062 C 167.160156 113.53125 167.441406 113.214844 167.796875 112.933594 C 168.152344 112.65625 168.84375 112.058594 169.347656 111.609375 C 169.832031 111.164062 170.355469 110.789062 170.488281 110.789062 C 170.597656 110.789062 170.710938 110.714844 170.710938 110.621094 C 170.710938 110.472656 172.597656 108.886719 173.625 108.175781 C 173.847656 108.027344 174.390625 107.429688 174.839844 106.867188 C 175.734375 105.730469 176.257812 105.207031 177.976562 103.695312 C 178.628906 103.136719 179.507812 102.332031 179.9375 101.902344 C 180.386719 101.472656 180.871094 101.0625 181.019531 100.96875 C 181.1875 100.878906 181.582031 100.484375 181.878906 100.09375 C 182.777344 98.972656 185.035156 97.03125 185.988281 96.585938 C 186.476562 96.339844 186.980469 96.042969 187.109375 95.910156 C 187.242188 95.78125 187.484375 95.667969 187.632812 95.667969 C 187.894531 95.667969 189.539062 94.828125 191.164062 93.878906 C 191.984375 93.410156 192.5625 92.644531 192.5625 92.03125 C 192.5625 91.84375 192.378906 91.75 191.964844 91.75 C 191.628906 91.75 190.882812 91.582031 190.304688 91.394531 C 189.238281 91.039062 188.042969 91.097656 187.054688 91.542969 C 186.847656 91.636719 186.140625 91.824219 185.464844 91.953125 C 184.269531 92.179688 182.085938 93.054688 181.542969 93.523438 C 181.394531 93.652344 180.984375 93.839844 180.667969 93.953125 C 180.011719 94.175781 178.796875 95.015625 178.445312 95.484375 C 178.3125 95.632812 177.753906 96.25 177.171875 96.84375 C 176.59375 97.460938 176.128906 98.058594 176.128906 98.207031 C 176.128906 98.355469 176.015625 98.46875 175.882812 98.46875 C 175.753906 98.46875 175.34375 98.769531 174.988281 99.140625 C 174.390625 99.757812 172.316406 101.269531 172.035156 101.269531 C 171.867188 101.269531 171.214844 102.015625 170.824219 102.613281 C 170.636719 102.910156 170.375 103.136719 170.242188 103.136719 C 170.09375 103.136719 169.703125 103.414062 169.347656 103.734375 C 168.507812 104.515625 168.1875 104.742188 167.21875 105.1875 C 166.042969 105.75 162.679688 106.683594 161.839844 106.683594 C 160.476562 106.664062 157.953125 105.972656 155.675781 105.003906 C 150.894531 102.910156 145.832031 101.625 140.640625 101.121094 C 137.6875 100.839844 129.488281 100.878906 125.417969 101.195312 C 120.933594 101.550781 119.535156 101.457031 117.925781 100.710938 C 116.46875 100.039062 114.976562 99.589844 114.230469 99.589844 C 113.613281 99.589844 110.847656 98.601562 110.382812 98.207031 C 109.523438 97.5 108.53125 97.125 107.132812 96.976562 C 104.757812 96.714844 103.992188 96.527344 103.191406 95.988281 C 102.703125 95.667969 102.011719 95.425781 101.171875 95.316406 C 100.3125 95.203125 99.53125 94.921875 98.746094 94.476562 C 97.324219 93.691406 95.214844 91.617188 94.46875 90.3125 C 93.945312 89.378906 93.382812 88.761719 90.359375 85.664062 L 89.050781 84.320312 L 89.890625 83.742188 C 90.488281 83.332031 90.957031 83.164062 91.480469 83.164062 C 92.617188 83.164062 92.824219 83.03125 92.824219 82.25 C 92.824219 81.875 92.75 81.484375 92.65625 81.371094 C 92.46875 81.164062 92.078125 79.207031 92.078125 78.402344 C 92.078125 78.066406 91.925781 77.675781 91.742188 77.507812 C 91.386719 77.171875 89.835938 76.816406 88.789062 76.816406 C 88.398438 76.816406 88.078125 76.6875 87.929688 76.480469 C 87.464844 75.828125 86.902344 75.660156 85.335938 75.773438 C 84.511719 75.828125 83.691406 75.957031 83.484375 76.070312 C 82.980469 76.332031 82.570312 76.3125 81.242188 75.882812 C 79.84375 75.433594 78.816406 75.417969 78.070312 75.789062 C 77.582031 76.050781 77.433594 76.050781 77.003906 75.808594 C 76.292969 75.453125 74.632812 75.34375 72.277344 75.492188 Z M 108.71875 108.492188 C 108.570312 108.773438 108.53125 108.773438 108.511719 108.53125 C 108.511719 108.214844 108.699219 107.933594 108.851562 108.0625 C 108.886719 108.121094 108.832031 108.304688 108.71875 108.492188 Z M 108.71875 108.492188 " fill-opacity="1" fill-rule="nonzero"/></g><g clip-path="url(#369f1b457e)"><path fill="#623d2b" d="M 174.535156 124.988281 C 174.390625 124.691406 174.285156 123.84375 174.003906 123.5625 C 173.265625 123.28125 172.648438 122.761719 171.882812 122.515625 C 171.335938 122.34375 170.582031 122.144531 170.253906 121.613281 C 169.808594 120.890625 170.164062 120.019531 170.792969 119.777344 C 170.753906 119.746094 170.714844 119.707031 170.683594 119.648438 C 170.242188 118.851562 170.371094 117.355469 171.507812 117.296875 C 171.566406 117.292969 171.613281 117.304688 171.65625 117.316406 C 171.699219 117.304688 171.75 117.292969 171.804688 117.296875 C 172.113281 117.3125 172.222656 116.78125 172.378906 116.558594 C 172.59375 116.261719 172.867188 116.183594 173.214844 116.144531 C 173.714844 116.082031 174.414062 116.191406 174.863281 116.527344 C 174.894531 116.515625 174.925781 116.507812 174.960938 116.507812 C 176.136719 116.421875 177.554688 117.144531 177.992188 118.269531 C 178.011719 118.316406 178.019531 118.359375 178.019531 118.398438 C 178.570312 119.4375 179.492188 120.472656 180.175781 121.394531 C 181.054688 122.578125 181.933594 123.726562 182.675781 125 C 183.410156 126.261719 183.929688 127.632812 184.566406 128.941406 C 184.78125 129.390625 185.046875 129.8125 185.320312 130.230469 C 185.714844 129.875 186.179688 128.648438 186.320312 128.378906 C 186.625 127.777344 186.96875 126.96875 187.59375 126.632812 C 187.617188 126.621094 187.640625 126.613281 187.664062 126.605469 C 188.089844 125.585938 188.988281 124.851562 189.804688 124.152344 C 190.402344 123.640625 190.882812 122.988281 191.402344 122.40625 C 191.980469 121.757812 192.664062 121.269531 193.1875 120.5625 C 194.34375 119.007812 194.523438 117.453125 194.175781 115.585938 C 194.035156 114.824219 193.851562 113.996094 193.535156 113.285156 C 193.292969 112.738281 192.953125 112.269531 192.78125 111.6875 C 192.492188 110.710938 193.292969 109.597656 193.835938 108.878906 C 195.074219 107.238281 196.914062 107.082031 198.53125 107.953125 C 198.578125 107.894531 198.644531 107.851562 198.738281 107.828125 C 200.371094 107.453125 201.703125 107.125 203.367188 107.527344 C 203.511719 107.5625 203.652344 107.601562 203.792969 107.644531 C 203.816406 107.617188 203.84375 107.59375 203.875 107.570312 C 204.519531 107.148438 205.394531 106.195312 205.574219 105.429688 C 205.636719 105.164062 206.027344 105.042969 206.210938 105.261719 C 207 106.191406 206.464844 107.613281 206.421875 108.691406 C 206.421875 108.695312 206.421875 108.699219 206.421875 108.707031 C 206.929688 108.980469 207.421875 109.285156 207.886719 109.617188 C 208.523438 108.652344 209.828125 107.824219 210.652344 107.167969 C 211.703125 106.332031 212.78125 105.855469 213.3125 107.347656 C 213.808594 108.742188 213.121094 110.601562 212.539062 111.867188 C 212.421875 112.117188 212.289062 112.359375 212.144531 112.585938 C 212.203125 112.644531 212.242188 112.730469 212.242188 112.839844 C 212.242188 114.800781 212.238281 116.757812 212.269531 118.714844 C 212.292969 120.476562 211.417969 121.878906 210.925781 123.511719 C 210.707031 124.242188 210.359375 124.9375 210.078125 125.644531 C 209.710938 126.582031 209.691406 127.570312 209.746094 128.558594 C 209.765625 128.933594 209.820312 129.300781 209.894531 129.664062 C 209.925781 129.707031 209.949219 129.757812 209.960938 129.824219 C 210.085938 130.554688 211.296875 131.03125 211.886719 131.339844 C 212.679688 131.757812 213.46875 132.125 214.214844 132.632812 C 216.238281 134.015625 218.390625 135.128906 220.476562 136.421875 C 224.351562 138.828125 228.359375 141.683594 231.105469 145.382812 C 233.898438 149.144531 235.359375 153.609375 236.945312 157.964844 C 237.859375 160.476562 238.828125 162.707031 240.660156 164.695312 C 241.414062 165.511719 242.339844 166.136719 243.324219 166.648438 C 244.117188 167.058594 245.207031 167.472656 246.21875 167.660156 C 246.28125 167.597656 246.371094 167.558594 246.492188 167.566406 C 251.296875 167.917969 255.984375 167.621094 260.460938 165.71875 C 262.460938 164.871094 264.445312 164.136719 266.363281 163.097656 C 267.191406 162.648438 267.992188 162.246094 268.882812 161.925781 C 270.003906 161.519531 270.90625 160.703125 271.976562 160.1875 C 274.074219 159.179688 279.402344 157.558594 279.886719 161.261719 C 280.050781 162.539062 278.980469 163.863281 278.140625 164.6875 C 276.867188 165.933594 274.980469 166.339844 273.332031 166.835938 C 273.207031 166.871094 273.101562 166.847656 273.023438 166.789062 C 271.59375 167.011719 270.199219 168.179688 268.957031 168.855469 C 267.34375 169.730469 265.714844 170.589844 264.046875 171.363281 C 260.882812 172.832031 257.351562 173.460938 253.914062 173.882812 C 250.386719 174.308594 246.601562 174.59375 243.078125 174.078125 C 241.53125 173.851562 240.113281 173.398438 238.648438 172.882812 C 237.796875 172.582031 236.917969 172.246094 236.269531 171.617188 C 235.460938 172.171875 234.246094 172.203125 233.371094 172.617188 C 233.617188 173.515625 233.660156 174.421875 233.144531 175.34375 C 232.457031 176.570312 230.859375 176.753906 229.609375 176.773438 C 227.609375 176.804688 225.570312 176.496094 223.570312 176.433594 C 222.734375 176.40625 221.9375 176.515625 221.15625 176.558594 C 221.050781 176.660156 220.898438 176.691406 220.746094 176.574219 C 220.242188 176.582031 219.742188 176.542969 219.242188 176.410156 C 219.113281 176.449219 218.964844 176.421875 218.867188 176.289062 C 218.6875 176.222656 218.507812 176.144531 218.328125 176.046875 C 218.132812 175.941406 217.964844 175.8125 217.8125 175.675781 C 217.734375 175.746094 217.621094 175.777344 217.484375 175.722656 C 216.042969 175.179688 214.382812 176.121094 212.894531 176.121094 C 211.460938 176.121094 210.742188 174.847656 210.773438 173.53125 C 210.804688 172.34375 211.707031 171.824219 212.875 171.621094 C 212.808594 171.59375 212.738281 171.566406 212.671875 171.546875 C 211.875 171.273438 211.078125 171.152344 210.3125 170.769531 C 209.390625 170.3125 208.742188 169.457031 208.105469 168.683594 C 207.003906 167.347656 205.898438 165.710938 205.902344 163.925781 C 205.90625 163.046875 206.214844 162.148438 206.9375 161.796875 C 205.554688 161.132812 204.3125 160.382812 203.085938 159.40625 C 201.960938 158.511719 200.730469 157.667969 199.90625 156.484375 C 199.390625 157.804688 198.976562 159.230469 198.171875 160.394531 C 197.640625 161.167969 197.121094 161.953125 196.601562 162.734375 C 195.363281 164.59375 194.105469 166.449219 192.960938 168.367188 C 192.144531 169.734375 192.542969 172.339844 190.941406 173.160156 C 191.394531 173.984375 191.558594 174.96875 191.210938 175.867188 C 190.8125 176.890625 189.574219 176.878906 188.847656 176.269531 C 188.832031 176.292969 188.824219 176.316406 188.808594 176.339844 C 188.53125 176.769531 187.96875 176.953125 187.484375 176.976562 C 186.757812 177.003906 186.148438 176.558594 185.808594 175.957031 C 185.691406 176.082031 185.5625 176.195312 185.417969 176.292969 C 184.578125 176.855469 183.871094 176.09375 183.570312 175.355469 C 182.980469 173.914062 183.890625 172.796875 185.097656 172.199219 C 185.535156 171.351562 185.621094 170.417969 185.914062 169.507812 C 186.289062 168.34375 186.675781 167.183594 187.125 166.046875 C 187.710938 164.570312 188.113281 163.109375 188.445312 161.5625 C 188.738281 160.191406 189.027344 158.820312 189.335938 157.453125 C 189.511719 156.660156 189.605469 155.632812 190.023438 154.917969 C 190.046875 154.875 190.074219 154.84375 190.105469 154.820312 C 190.414062 153.523438 190.503906 152.164062 190.269531 150.855469 C 190.015625 149.410156 189.148438 148.109375 188.703125 146.71875 C 188.703125 146.71875 188.703125 146.714844 188.703125 146.714844 C 187.976562 146.945312 186.933594 146.855469 186.410156 146.734375 C 183.433594 146.050781 182.328125 143.3125 181.179688 140.796875 C 180.550781 139.40625 179.597656 138.210938 178.9375 136.835938 C 178.261719 135.425781 178.058594 133.679688 177.800781 132.148438 C 177.636719 131.175781 177.445312 130.328125 176.964844 129.453125 C 176.554688 128.710938 176.042969 128.046875 175.644531 127.296875 C 175.246094 126.542969 174.914062 125.753906 174.535156 124.988281 " fill-opacity="1" fill-rule="nonzero"/></g><path fill="#623d2b" d="M 65.738281 166.027344 C 65.738281 166.027344 67.234375 155.144531 58.65625 144.785156 C 50.082031 134.425781 42.605469 139.542969 42.605469 139.542969 C 42.605469 139.542969 39.613281 135.332031 40.511719 133.023438 C 41.410156 130.714844 45.097656 127.304688 45.597656 123.292969 C 46.09375 119.28125 48.386719 113.964844 46.195312 113.863281 C 44 113.761719 39.914062 126.503906 39.914062 126.503906 C 39.914062 126.503906 47.589844 105.035156 38.417969 116.871094 C 34.898438 121.414062 33.730469 128.308594 33.730469 128.308594 C 33.730469 128.308594 30.441406 129.109375 30.042969 130.015625 C 29.644531 130.917969 25.355469 132.21875 22.863281 135.933594 C 20.371094 139.644531 19.972656 140.847656 20.769531 142.351562 C 21.566406 143.855469 24.65625 147.367188 26.949219 146.566406 L 28.046875 148.070312 C 28.046875 148.070312 25.457031 157.699219 34.527344 165.125 C 34.527344 165.125 35.824219 169.136719 35.226562 170.742188 C 34.628906 172.347656 32.535156 173.449219 32.535156 174.453125 C 32.535156 175.457031 34.828125 176.460938 37.121094 175.957031 C 39.414062 175.457031 38.316406 176.089844 38.316406 176.089844 C 38.316406 176.089844 45.398438 176.160156 46.292969 175.65625 C 47.191406 175.15625 47.191406 173.652344 47.191406 173.652344 C 47.191406 173.652344 48.6875 175.558594 49.1875 175.355469 C 49.683594 175.15625 57.5625 177.035156 58.359375 176.09375 C 59.15625 175.15625 61.050781 175.65625 61.050781 175.65625 C 61.050781 175.65625 63.542969 172.445312 64.339844 170.839844 C 65.140625 169.238281 65.5625 173.148438 68.828125 171.144531 C 72.097656 169.136719 72.417969 161.8125 65.738281 166.027344 " fill-opacity="1" fill-rule="nonzero"/><g clip-path="url(#99ed903c4a)"><path fill="#623d2b" d="M 135.910156 101.65625 L 132.515625 101.988281 L 131.589844 100.632812 L 136.851562 94.308594 C 137.347656 94.535156 137.816406 94.742188 138.253906 94.941406 Z M 128.074219 68.078125 C 128.074219 69.105469 126.519531 69.105469 126.519531 68.078125 C 126.519531 67.046875 128.074219 67.046875 128.074219 68.078125 Z M 161.621094 99.835938 L 159.566406 98.925781 C 159.488281 98.890625 151.78125 95.40625 147.0625 86.9375 C 142.773438 79.253906 135.738281 79.949219 133.621094 73.40625 C 132.453125 69.8125 133.191406 69.246094 136.714844 66.539062 C 135.609375 65.917969 134.371094 65.390625 133.039062 65.765625 C 130.4375 62.667969 126.605469 63.496094 124.199219 66.078125 C 120.847656 69.679688 119.589844 79.667969 123.984375 86.191406 C 126.886719 90.496094 130.496094 91.476562 136.089844 93.96875 L 130.824219 100.292969 L 125.847656 103.101562 C 125.484375 103.308594 125.628906 103.859375 126.046875 103.859375 C 126.214844 103.859375 130.808594 101.226562 130.960938 101.140625 C 133.269531 104.535156 133.328125 104.859375 133.773438 104.558594 C 134.203125 104.265625 133.8125 103.894531 133.03125 102.746094 L 136.074219 102.445312 C 139 104.914062 139.167969 105.242188 139.519531 104.828125 C 139.875 104.410156 139.511719 104.289062 136.675781 101.898438 L 138.996094 95.28125 C 142.09375 96.695312 144.402344 97.773438 145.964844 98.707031 C 145.957031 98.144531 145.980469 96.808594 145.5625 94.710938 C 147.621094 96.289062 152.570312 99.289062 159.382812 99.699219 L 161.621094 99.835938 " fill-opacity="1" fill-rule="nonzero"/></g><g fill="#4bad20" fill-opacity="1"><g transform="translate(54.908769, 222.297617)"><g><path d="M 7.640625 -7.78125 C 6.703125 -8.101562 5.84375 -8.429688 5.0625 -8.765625 C 4.289062 -9.097656 3.625 -9.5 3.0625 -9.96875 C 2.5 -10.445312 2.0625 -11.007812 1.75 -11.65625 C 1.445312 -12.3125 1.296875 -13.113281 1.296875 -14.0625 C 1.296875 -15.894531 2 -17.359375 3.40625 -18.453125 C 4.8125 -19.546875 6.785156 -20.09375 9.328125 -20.09375 C 10.253906 -20.09375 11.113281 -20.03125 11.90625 -19.90625 C 12.695312 -19.78125 13.378906 -19.582031 13.953125 -19.3125 C 14.523438 -19.039062 14.972656 -18.695312 15.296875 -18.28125 C 15.617188 -17.863281 15.78125 -17.375 15.78125 -16.8125 C 15.78125 -16.25 15.648438 -15.769531 15.390625 -15.375 C 15.128906 -14.976562 14.816406 -14.640625 14.453125 -14.359375 C 13.984375 -14.660156 13.347656 -14.921875 12.546875 -15.140625 C 11.753906 -15.367188 10.882812 -15.484375 9.9375 -15.484375 C 8.96875 -15.484375 8.253906 -15.347656 7.796875 -15.078125 C 7.347656 -14.816406 7.125 -14.476562 7.125 -14.0625 C 7.125 -13.738281 7.265625 -13.472656 7.546875 -13.265625 C 7.828125 -13.066406 8.25 -12.882812 8.8125 -12.71875 L 10.515625 -12.171875 C 12.535156 -11.523438 14.085938 -10.703125 15.171875 -9.703125 C 16.265625 -8.703125 16.8125 -7.335938 16.8125 -5.609375 C 16.8125 -3.785156 16.085938 -2.304688 14.640625 -1.171875 C 13.203125 -0.046875 11.085938 0.515625 8.296875 0.515625 C 7.304688 0.515625 6.382812 0.429688 5.53125 0.265625 C 4.6875 0.109375 3.945312 -0.125 3.3125 -0.4375 C 2.675781 -0.75 2.179688 -1.132812 1.828125 -1.59375 C 1.472656 -2.0625 1.296875 -2.59375 1.296875 -3.1875 C 1.296875 -3.8125 1.476562 -4.34375 1.84375 -4.78125 C 2.207031 -5.226562 2.601562 -5.570312 3.03125 -5.8125 C 3.632812 -5.332031 4.367188 -4.921875 5.234375 -4.578125 C 6.109375 -4.234375 7.0625 -4.0625 8.09375 -4.0625 C 9.15625 -4.0625 9.898438 -4.222656 10.328125 -4.546875 C 10.753906 -4.867188 10.96875 -5.242188 10.96875 -5.671875 C 10.96875 -6.109375 10.796875 -6.4375 10.453125 -6.65625 C 10.109375 -6.882812 9.625 -7.109375 9 -7.328125 Z M 7.640625 -7.78125 "/></g></g></g><g fill="#4bad20" fill-opacity="1"><g transform="translate(72.682064, 222.297617)"><g><path d="M 6.265625 -18.96875 C 6.628906 -19.1875 7.179688 -19.390625 7.921875 -19.578125 C 8.660156 -19.773438 9.40625 -19.875 10.15625 -19.875 C 11.238281 -19.875 12.191406 -19.71875 13.015625 -19.40625 C 13.847656 -19.09375 14.378906 -18.601562 14.609375 -17.9375 C 15.003906 -16.820312 15.425781 -15.519531 15.875 -14.03125 C 16.320312 -12.550781 16.769531 -11.019531 17.21875 -9.4375 C 17.675781 -7.851562 18.117188 -6.289062 18.546875 -4.75 C 18.984375 -3.21875 19.363281 -1.859375 19.6875 -0.671875 C 19.425781 -0.367188 19.035156 -0.128906 18.515625 0.046875 C 18.003906 0.234375 17.394531 0.328125 16.6875 0.328125 C 16.164062 0.328125 15.726562 0.28125 15.375 0.1875 C 15.019531 0.101562 14.726562 -0.0195312 14.5 -0.1875 C 14.28125 -0.363281 14.097656 -0.59375 13.953125 -0.875 C 13.816406 -1.15625 13.691406 -1.476562 13.578125 -1.84375 L 13 -4.0625 L 7.15625 -4.0625 C 6.988281 -3.414062 6.816406 -2.75 6.640625 -2.0625 C 6.472656 -1.375 6.300781 -0.707031 6.125 -0.0625 C 5.820312 0.0390625 5.503906 0.128906 5.171875 0.203125 C 4.835938 0.285156 4.4375 0.328125 3.96875 0.328125 C 2.875 0.328125 2.0625 0.140625 1.53125 -0.234375 C 1 -0.617188 0.734375 -1.144531 0.734375 -1.8125 C 0.734375 -2.113281 0.773438 -2.410156 0.859375 -2.703125 C 0.953125 -3.003906 1.050781 -3.363281 1.15625 -3.78125 C 1.3125 -4.351562 1.519531 -5.070312 1.78125 -5.9375 C 2.050781 -6.800781 2.347656 -7.734375 2.671875 -8.734375 C 2.992188 -9.734375 3.335938 -10.757812 3.703125 -11.8125 C 4.078125 -12.863281 4.425781 -13.859375 4.75 -14.796875 C 5.070312 -15.734375 5.363281 -16.566406 5.625 -17.296875 C 5.894531 -18.023438 6.109375 -18.582031 6.265625 -18.96875 Z M 10.125 -14.8125 C 9.832031 -13.90625 9.492188 -12.894531 9.109375 -11.78125 C 8.734375 -10.675781 8.394531 -9.554688 8.09375 -8.421875 L 12.09375 -8.421875 C 11.789062 -9.578125 11.484375 -10.707031 11.171875 -11.8125 C 10.867188 -12.925781 10.585938 -13.925781 10.328125 -14.8125 Z M 10.125 -14.8125 "/></g></g></g><g fill="#4bad20" fill-opacity="1"><g transform="translate(92.906857, 222.297617)"><g><path d="M 13.8125 -0.640625 C 13.507812 -0.390625 13.039062 -0.164062 12.40625 0.03125 C 11.769531 0.226562 11.078125 0.328125 10.328125 0.328125 C 9.421875 0.328125 8.644531 0.191406 8 -0.078125 C 7.351562 -0.347656 6.910156 -0.71875 6.671875 -1.1875 C 6.441406 -1.6875 6.15625 -2.328125 5.8125 -3.109375 C 5.46875 -3.898438 5.101562 -4.773438 4.71875 -5.734375 C 4.34375 -6.703125 3.957031 -7.726562 3.5625 -8.8125 C 3.164062 -9.90625 2.785156 -11.007812 2.421875 -12.125 C 2.054688 -13.25 1.710938 -14.347656 1.390625 -15.421875 C 1.066406 -16.492188 0.785156 -17.503906 0.546875 -18.453125 C 0.847656 -18.753906 1.28125 -19.03125 1.84375 -19.28125 C 2.414062 -19.53125 3.023438 -19.65625 3.671875 -19.65625 C 4.472656 -19.65625 5.125 -19.488281 5.625 -19.15625 C 6.132812 -18.820312 6.507812 -18.203125 6.75 -17.296875 C 7.320312 -15.179688 7.90625 -13.160156 8.5 -11.234375 C 9.09375 -9.316406 9.710938 -7.316406 10.359375 -5.234375 L 10.546875 -5.234375 C 11.128906 -7.253906 11.726562 -9.457031 12.34375 -11.84375 C 12.957031 -14.226562 13.539062 -16.601562 14.09375 -18.96875 C 14.488281 -19.164062 14.90625 -19.328125 15.34375 -19.453125 C 15.78125 -19.585938 16.28125 -19.65625 16.84375 -19.65625 C 17.632812 -19.65625 18.3125 -19.472656 18.875 -19.109375 C 19.4375 -18.753906 19.71875 -18.171875 19.71875 -17.359375 C 19.71875 -16.890625 19.601562 -16.203125 19.375 -15.296875 C 19.144531 -14.390625 18.851562 -13.367188 18.5 -12.234375 C 18.144531 -11.109375 17.75 -9.929688 17.3125 -8.703125 C 16.875 -7.484375 16.429688 -6.328125 15.984375 -5.234375 C 15.546875 -4.148438 15.132812 -3.191406 14.75 -2.359375 C 14.363281 -1.535156 14.050781 -0.960938 13.8125 -0.640625 Z M 13.8125 -0.640625 "/></g></g></g><g fill="#4bad20" fill-opacity="1"><g transform="translate(113.357435, 222.297617)"><g><path d="M 7.75 -0.125 C 7.507812 -0.0625 7.132812 0 6.625 0.0625 C 6.125 0.125 5.625 0.15625 5.125 0.15625 C 4.632812 0.15625 4.203125 0.117188 3.828125 0.046875 C 3.453125 -0.0234375 3.132812 -0.15625 2.875 -0.34375 C 2.613281 -0.539062 2.414062 -0.8125 2.28125 -1.15625 C 2.15625 -1.5 2.09375 -1.953125 2.09375 -2.515625 L 2.09375 -19.546875 C 2.332031 -19.597656 2.707031 -19.660156 3.21875 -19.734375 C 3.738281 -19.804688 4.234375 -19.84375 4.703125 -19.84375 C 5.203125 -19.84375 5.640625 -19.804688 6.015625 -19.734375 C 6.390625 -19.660156 6.707031 -19.523438 6.96875 -19.328125 C 7.226562 -19.128906 7.421875 -18.859375 7.546875 -18.515625 C 7.679688 -18.171875 7.75 -17.722656 7.75 -17.171875 Z M 7.75 -0.125 "/></g></g></g><g fill="#4bad20" fill-opacity="1"><g transform="translate(123.195653, 222.297617)"><g><path d="M 19.8125 -0.671875 C 19.507812 -0.367188 19.070312 -0.140625 18.5 0.015625 C 17.9375 0.179688 17.253906 0.265625 16.453125 0.265625 C 15.660156 0.265625 14.90625 0.144531 14.1875 -0.09375 C 13.476562 -0.332031 12.898438 -0.90625 12.453125 -1.8125 L 9.265625 -8.328125 C 8.941406 -8.992188 8.648438 -9.617188 8.390625 -10.203125 C 8.128906 -10.796875 7.847656 -11.484375 7.546875 -12.265625 L 7.359375 -12.234375 C 7.441406 -11.066406 7.488281 -9.878906 7.5 -8.671875 C 7.507812 -7.472656 7.515625 -6.289062 7.515625 -5.125 L 7.515625 -0.125 C 7.273438 -0.0625 6.914062 0 6.4375 0.0625 C 5.957031 0.125 5.476562 0.15625 5 0.15625 C 4.53125 0.15625 4.109375 0.125 3.734375 0.0625 C 3.367188 0 3.066406 -0.125 2.828125 -0.3125 C 2.597656 -0.507812 2.414062 -0.773438 2.28125 -1.109375 C 2.15625 -1.441406 2.09375 -1.878906 2.09375 -2.421875 L 2.09375 -18.546875 C 2.394531 -18.984375 2.859375 -19.304688 3.484375 -19.515625 C 4.109375 -19.734375 4.773438 -19.84375 5.484375 -19.84375 C 6.273438 -19.84375 7.03125 -19.71875 7.75 -19.46875 C 8.476562 -19.21875 9.054688 -18.65625 9.484375 -17.78125 L 12.71875 -11.265625 C 13.039062 -10.597656 13.328125 -9.96875 13.578125 -9.375 C 13.835938 -8.78125 14.117188 -8.097656 14.421875 -7.328125 L 14.578125 -7.359375 C 14.492188 -8.515625 14.441406 -9.671875 14.421875 -10.828125 C 14.398438 -11.992188 14.390625 -13.160156 14.390625 -14.328125 L 14.390625 -19.546875 C 14.628906 -19.617188 14.988281 -19.6875 15.46875 -19.75 C 15.957031 -19.8125 16.4375 -19.84375 16.90625 -19.84375 C 17.851562 -19.84375 18.570312 -19.675781 19.0625 -19.34375 C 19.5625 -19.007812 19.8125 -18.316406 19.8125 -17.265625 Z M 19.8125 -0.671875 "/></g></g></g><g fill="#4bad20" fill-opacity="1"><g transform="translate(145.097773, 222.297617)"><g><path d="M 19.8125 -3.1875 C 19.8125 -2.519531 19.691406 -2.023438 19.453125 -1.703125 C 19.210938 -1.378906 18.835938 -1.070312 18.328125 -0.78125 C 18.023438 -0.601562 17.644531 -0.429688 17.1875 -0.265625 C 16.738281 -0.109375 16.242188 0.0234375 15.703125 0.140625 C 15.171875 0.265625 14.609375 0.359375 14.015625 0.421875 C 13.421875 0.484375 12.835938 0.515625 12.265625 0.515625 C 10.710938 0.515625 9.257812 0.304688 7.90625 -0.109375 C 6.550781 -0.523438 5.375 -1.160156 4.375 -2.015625 C 3.375 -2.867188 2.582031 -3.925781 2 -5.1875 C 1.414062 -6.457031 1.125 -7.929688 1.125 -9.609375 C 1.125 -11.378906 1.441406 -12.921875 2.078125 -14.234375 C 2.710938 -15.546875 3.550781 -16.632812 4.59375 -17.5 C 5.632812 -18.375 6.828125 -19.023438 8.171875 -19.453125 C 9.523438 -19.878906 10.910156 -20.09375 12.328125 -20.09375 C 14.367188 -20.09375 15.984375 -19.765625 17.171875 -19.109375 C 18.367188 -18.460938 18.96875 -17.609375 18.96875 -16.546875 C 18.96875 -15.992188 18.828125 -15.507812 18.546875 -15.09375 C 18.273438 -14.6875 17.953125 -14.363281 17.578125 -14.125 C 17.046875 -14.445312 16.375 -14.765625 15.5625 -15.078125 C 14.757812 -15.390625 13.851562 -15.546875 12.84375 -15.546875 C 11.03125 -15.546875 9.59375 -15.03125 8.53125 -14 C 7.46875 -12.96875 6.9375 -11.539062 6.9375 -9.71875 C 6.9375 -8.726562 7.082031 -7.867188 7.375 -7.140625 C 7.664062 -6.421875 8.054688 -5.828125 8.546875 -5.359375 C 9.046875 -4.898438 9.617188 -4.554688 10.265625 -4.328125 C 10.910156 -4.109375 11.597656 -4 12.328125 -4 C 12.796875 -4 13.210938 -4.039062 13.578125 -4.125 C 13.941406 -4.21875 14.222656 -4.316406 14.421875 -4.421875 L 14.421875 -7.453125 L 10.96875 -7.453125 C 10.84375 -7.691406 10.71875 -8.003906 10.59375 -8.390625 C 10.476562 -8.773438 10.421875 -9.179688 10.421875 -9.609375 C 10.421875 -10.390625 10.597656 -10.953125 10.953125 -11.296875 C 11.304688 -11.640625 11.765625 -11.8125 12.328125 -11.8125 L 17.78125 -11.8125 C 18.425781 -11.8125 18.925781 -11.632812 19.28125 -11.28125 C 19.632812 -10.925781 19.8125 -10.425781 19.8125 -9.78125 Z M 19.8125 -3.1875 "/></g></g></g><g fill="#4bad20" fill-opacity="1"><g transform="translate(166.51605, 222.297617)"><g/></g></g><g fill="#4bad20" fill-opacity="1"><g transform="translate(172.967343, 222.297617)"><g><path d="M 9.421875 -10.484375 C 10.328125 -10.484375 11.019531 -10.691406 11.5 -11.109375 C 11.988281 -11.535156 12.234375 -12.175781 12.234375 -13.03125 C 12.234375 -13.851562 11.976562 -14.484375 11.46875 -14.921875 C 10.96875 -15.359375 10.234375 -15.578125 9.265625 -15.578125 C 8.921875 -15.578125 8.632812 -15.570312 8.40625 -15.5625 C 8.175781 -15.550781 7.945312 -15.523438 7.71875 -15.484375 L 7.71875 -10.484375 Z M 7.75 -0.125 C 7.507812 -0.0625 7.132812 0 6.625 0.0625 C 6.125 0.125 5.625 0.15625 5.125 0.15625 C 4.632812 0.15625 4.203125 0.117188 3.828125 0.046875 C 3.453125 -0.0234375 3.132812 -0.15625 2.875 -0.34375 C 2.613281 -0.539062 2.414062 -0.8125 2.28125 -1.15625 C 2.15625 -1.5 2.09375 -1.953125 2.09375 -2.515625 L 2.09375 -17.71875 C 2.09375 -18.164062 2.21875 -18.515625 2.46875 -18.765625 C 2.71875 -19.015625 3.054688 -19.210938 3.484375 -19.359375 C 4.210938 -19.617188 5.046875 -19.804688 5.984375 -19.921875 C 6.921875 -20.035156 7.863281 -20.09375 8.8125 -20.09375 C 11.78125 -20.09375 14.046875 -19.457031 15.609375 -18.1875 C 17.179688 -16.925781 17.96875 -15.207031 17.96875 -13.03125 C 17.96875 -11.976562 17.800781 -11.023438 17.46875 -10.171875 C 17.132812 -9.328125 16.640625 -8.597656 15.984375 -7.984375 C 15.328125 -7.367188 14.5 -6.894531 13.5 -6.5625 C 12.5 -6.226562 11.34375 -6.0625 10.03125 -6.0625 L 7.75 -6.0625 Z M 7.75 -0.125 "/></g></g></g><g fill="#4bad20" fill-opacity="1"><g transform="translate(191.708337, 222.297617)"><g><path d="M 2.09375 -16.546875 C 2.09375 -17.472656 2.359375 -18.203125 2.890625 -18.734375 C 3.429688 -19.273438 4.164062 -19.546875 5.09375 -19.546875 L 15.75 -19.546875 C 15.894531 -19.316406 16.023438 -19.003906 16.140625 -18.609375 C 16.265625 -18.222656 16.328125 -17.816406 16.328125 -17.390625 C 16.328125 -16.578125 16.148438 -15.992188 15.796875 -15.640625 C 15.441406 -15.296875 14.972656 -15.125 14.390625 -15.125 L 7.578125 -15.125 L 7.578125 -12.125 L 14.84375 -12.125 C 14.988281 -11.894531 15.117188 -11.585938 15.234375 -11.203125 C 15.359375 -10.828125 15.421875 -10.425781 15.421875 -10 C 15.421875 -9.1875 15.25 -8.609375 14.90625 -8.265625 C 14.5625 -7.921875 14.097656 -7.75 13.515625 -7.75 L 7.578125 -7.75 L 7.578125 -4.359375 L 15.875 -4.359375 C 16.019531 -4.117188 16.148438 -3.804688 16.265625 -3.421875 C 16.390625 -3.035156 16.453125 -2.625 16.453125 -2.1875 C 16.453125 -1.375 16.273438 -0.789062 15.921875 -0.4375 C 15.566406 -0.0820312 15.097656 0.09375 14.515625 0.09375 L 5.09375 0.09375 C 4.164062 0.09375 3.429688 -0.171875 2.890625 -0.703125 C 2.359375 -1.242188 2.09375 -1.976562 2.09375 -2.90625 Z M 2.09375 -16.546875 "/></g></g></g><g fill="#4bad20" fill-opacity="1"><g transform="translate(209.384861, 222.297617)"><g><path d="M 1.1875 -15.03125 C 1.039062 -15.269531 0.898438 -15.59375 0.765625 -16 C 0.640625 -16.40625 0.578125 -16.835938 0.578125 -17.296875 C 0.578125 -18.128906 0.765625 -18.726562 1.140625 -19.09375 C 1.515625 -19.46875 2.003906 -19.65625 2.609375 -19.65625 L 16.6875 -19.65625 C 16.832031 -19.414062 16.96875 -19.085938 17.09375 -18.671875 C 17.226562 -18.265625 17.296875 -17.835938 17.296875 -17.390625 C 17.296875 -16.554688 17.109375 -15.953125 16.734375 -15.578125 C 16.359375 -15.210938 15.867188 -15.03125 15.265625 -15.03125 L 11.6875 -15.03125 L 11.6875 -0.125 C 11.445312 -0.0625 11.070312 0 10.5625 0.0625 C 10.0625 0.125 9.5625 0.15625 9.0625 0.15625 C 8.570312 0.15625 8.132812 0.117188 7.75 0.046875 C 7.375 -0.0234375 7.054688 -0.15625 6.796875 -0.34375 C 6.546875 -0.539062 6.351562 -0.8125 6.21875 -1.15625 C 6.09375 -1.5 6.03125 -1.953125 6.03125 -2.515625 L 6.03125 -15.03125 Z M 1.1875 -15.03125 "/></g></g></g><g fill="#4bad20" fill-opacity="1"><g transform="translate(227.319441, 222.297617)"><g><path d="M 7.640625 -7.78125 C 6.703125 -8.101562 5.84375 -8.429688 5.0625 -8.765625 C 4.289062 -9.097656 3.625 -9.5 3.0625 -9.96875 C 2.5 -10.445312 2.0625 -11.007812 1.75 -11.65625 C 1.445312 -12.3125 1.296875 -13.113281 1.296875 -14.0625 C 1.296875 -15.894531 2 -17.359375 3.40625 -18.453125 C 4.8125 -19.546875 6.785156 -20.09375 9.328125 -20.09375 C 10.253906 -20.09375 11.113281 -20.03125 11.90625 -19.90625 C 12.695312 -19.78125 13.378906 -19.582031 13.953125 -19.3125 C 14.523438 -19.039062 14.972656 -18.695312 15.296875 -18.28125 C 15.617188 -17.863281 15.78125 -17.375 15.78125 -16.8125 C 15.78125 -16.25 15.648438 -15.769531 15.390625 -15.375 C 15.128906 -14.976562 14.816406 -14.640625 14.453125 -14.359375 C 13.984375 -14.660156 13.347656 -14.921875 12.546875 -15.140625 C 11.753906 -15.367188 10.882812 -15.484375 9.9375 -15.484375 C 8.96875 -15.484375 8.253906 -15.347656 7.796875 -15.078125 C 7.347656 -14.816406 7.125 -14.476562 7.125 -14.0625 C 7.125 -13.738281 7.265625 -13.472656 7.546875 -13.265625 C 7.828125 -13.066406 8.25 -12.882812 8.8125 -12.71875 L 10.515625 -12.171875 C 12.535156 -11.523438 14.085938 -10.703125 15.171875 -9.703125 C 16.265625 -8.703125 16.8125 -7.335938 16.8125 -5.609375 C 16.8125 -3.785156 16.085938 -2.304688 14.640625 -1.171875 C 13.203125 -0.046875 11.085938 0.515625 8.296875 0.515625 C 7.304688 0.515625 6.382812 0.429688 5.53125 0.265625 C 4.6875 0.109375 3.945312 -0.125 3.3125 -0.4375 C 2.675781 -0.75 2.179688 -1.132812 1.828125 -1.59375 C 1.472656 -2.0625 1.296875 -2.59375 1.296875 -3.1875 C 1.296875 -3.8125 1.476562 -4.34375 1.84375 -4.78125 C 2.207031 -5.226562 2.601562 -5.570312 3.03125 -5.8125 C 3.632812 -5.332031 4.367188 -4.921875 5.234375 -4.578125 C 6.109375 -4.234375 7.0625 -4.0625 8.09375 -4.0625 C 9.15625 -4.0625 9.898438 -4.222656 10.328125 -4.546875 C 10.753906 -4.867188 10.96875 -5.242188 10.96875 -5.671875 C 10.96875 -6.109375 10.796875 -6.4375 10.453125 -6.65625 C 10.109375 -6.882812 9.625 -7.109375 9 -7.328125 Z M 7.640625 -7.78125 "/></g></g></g></svg>