<svg xmlns="http://www.w3.org/2000/svg" xmlns:xlink="http://www.w3.org/1999/xlink" width="120" zoomAndPan="magnify" viewBox="0 0 90 62.249996" height="83" preserveAspectRatio="xMidYMid meet" version="1.0"><defs><g/><clipPath id="759db92dc3"><path d="M 17.84375 7.769531 L 71.941406 7.769531 L 71.941406 34.921875 L 17.84375 34.921875 Z M 17.84375 7.769531 " clip-rule="nonzero"/></clipPath><clipPath id="c72853ec84"><path d="M 29.007812 15.492188 L 57.167969 15.492188 L 57.167969 34.761719 L 29.007812 34.761719 Z M 29.007812 15.492188 " clip-rule="nonzero"/></clipPath><clipPath id="c405689327"><path d="M 52.800781 21.207031 L 73.941406 21.207031 L 73.941406 35.285156 L 52.800781 35.285156 Z M 52.800781 21.207031 " clip-rule="nonzero"/></clipPath><clipPath id="23e6debf66"><path d="M 24 22 L 34.296875 22 L 34.296875 35.285156 L 24 35.285156 Z M 24 22 " clip-rule="nonzero"/></clipPath><clipPath id="56807201b8"><path d="M 43.09375 13.039062 L 51.246094 13.039062 L 51.246094 21.191406 L 43.09375 21.191406 Z M 43.09375 13.039062 " clip-rule="nonzero"/></clipPath></defs><g clip-path="url(#759db92dc3)"><path fill="#ffde59" d="M 71.917969 34.921875 C 71.917969 19.777344 59.8125 7.503906 44.871094 7.503906 C 29.929688 7.503906 17.867188 19.777344 17.867188 34.921875 Z M 71.917969 34.921875 " fill-opacity="1" fill-rule="nonzero"/></g><g clip-path="url(#c72853ec84)"><path fill="#623d2b" d="M 33.992188 15.523438 C 33.785156 15.539062 33.59375 15.558594 33.570312 15.578125 C 33.542969 15.589844 33.421875 15.621094 33.300781 15.632812 C 32.839844 15.703125 32.390625 15.890625 31.980469 16.191406 C 31.851562 16.285156 31.675781 16.410156 31.59375 16.460938 C 31.449219 16.566406 31.394531 16.648438 31.351562 16.871094 C 31.335938 16.933594 31.230469 17.105469 31.113281 17.246094 C 30.917969 17.488281 30.871094 17.519531 30.496094 17.707031 C 30.269531 17.820312 30.0625 17.90625 30.03125 17.90625 C 30 17.90625 29.953125 17.933594 29.929688 17.960938 C 29.90625 17.988281 29.820312 18.03125 29.738281 18.054688 C 29.660156 18.074219 29.535156 18.128906 29.457031 18.175781 C 29.382812 18.222656 29.296875 18.261719 29.269531 18.261719 C 29.242188 18.261719 29.179688 18.292969 29.132812 18.332031 C 29.03125 18.410156 29.023438 18.601562 29.121094 18.847656 C 29.15625 18.945312 29.222656 19.117188 29.261719 19.230469 C 29.304688 19.34375 29.359375 19.441406 29.390625 19.457031 C 29.667969 19.574219 30.410156 19.625 30.878906 19.558594 C 31.082031 19.53125 31.265625 19.507812 31.289062 19.507812 C 31.359375 19.507812 31.339844 19.570312 31.257812 19.640625 C 31.214844 19.671875 31.160156 19.722656 31.132812 19.742188 C 31.105469 19.769531 31.070312 19.789062 31.050781 19.789062 C 30.988281 19.789062 30.59375 20.117188 30.546875 20.210938 C 30.519531 20.261719 30.4375 20.347656 30.359375 20.402344 C 30.269531 20.464844 30.21875 20.527344 30.21875 20.574219 C 30.21875 20.644531 30.230469 20.648438 30.34375 20.632812 C 30.453125 20.613281 30.46875 20.621094 30.46875 20.691406 C 30.46875 20.953125 30.835938 21.191406 31.222656 21.191406 C 31.441406 21.191406 31.492188 21.171875 31.90625 20.957031 C 32.558594 20.617188 33.011719 20.46875 33.078125 20.570312 C 33.113281 20.625 33.332031 20.613281 33.382812 20.554688 C 33.445312 20.484375 33.464844 20.488281 33.582031 20.59375 C 33.675781 20.683594 33.699219 20.683594 33.910156 20.664062 L 34.140625 20.640625 L 34.347656 20.820312 C 34.457031 20.917969 34.5625 20.996094 34.578125 20.996094 C 34.589844 20.996094 34.636719 21.066406 34.679688 21.148438 C 34.722656 21.234375 34.78125 21.3125 34.804688 21.335938 C 34.828125 21.351562 34.859375 21.429688 34.871094 21.496094 C 34.949219 21.914062 34.957031 22.007812 34.925781 22.09375 C 34.878906 22.214844 34.75 22.816406 34.722656 23.035156 C 34.6875 23.332031 34.769531 23.617188 34.96875 23.882812 C 35.0625 24.015625 35.175781 24.1875 35.21875 24.269531 C 35.261719 24.347656 35.359375 24.507812 35.445312 24.621094 C 35.65625 24.914062 35.863281 25.28125 35.863281 25.359375 C 35.863281 25.484375 35.71875 25.753906 35.582031 25.894531 C 35.386719 26.089844 35.113281 26.316406 35.042969 26.34375 C 35.011719 26.355469 34.917969 26.414062 34.839844 26.472656 C 34.761719 26.53125 34.550781 26.660156 34.371094 26.757812 C 34.195312 26.859375 34.039062 26.949219 34.03125 26.960938 C 34.019531 26.972656 33.964844 27.007812 33.90625 27.035156 C 33.761719 27.109375 33.535156 27.378906 33.421875 27.605469 C 33.339844 27.78125 33.328125 27.835938 33.332031 28.226562 C 33.332031 28.585938 33.34375 28.671875 33.402344 28.757812 C 33.511719 28.933594 33.792969 29.273438 33.820312 29.273438 C 33.839844 29.273438 33.851562 29.296875 33.851562 29.324219 C 33.851562 29.351562 33.863281 29.382812 33.878906 29.386719 C 33.941406 29.414062 34.15625 29.808594 34.230469 30.027344 C 34.246094 30.0625 34.265625 30.089844 34.28125 30.089844 C 34.292969 30.089844 34.390625 30.167969 34.492188 30.257812 C 34.722656 30.480469 34.851562 30.570312 35.011719 30.644531 C 35.082031 30.679688 35.144531 30.71875 35.144531 30.738281 C 35.144531 30.753906 35.183594 30.765625 35.230469 30.765625 C 35.28125 30.765625 35.382812 30.800781 35.457031 30.847656 C 35.578125 30.914062 35.65625 30.925781 36.042969 30.9375 C 36.375 30.949219 36.511719 30.9375 36.558594 30.902344 C 36.628906 30.847656 36.699219 30.5 36.65625 30.410156 C 36.621094 30.347656 36.496094 30.011719 36.449219 29.859375 C 36.425781 29.769531 36.402344 29.753906 36.285156 29.742188 C 36.214844 29.734375 36.152344 29.71875 36.152344 29.699219 C 36.152344 29.652344 35.863281 29.53125 35.792969 29.546875 C 35.746094 29.5625 35.71875 29.546875 35.71875 29.515625 C 35.71875 29.441406 35.511719 29.207031 35.390625 29.148438 C 35.335938 29.117188 35.289062 29.070312 35.289062 29.03125 C 35.289062 28.933594 35.113281 28.707031 35.039062 28.707031 C 34.992188 28.707031 34.957031 28.675781 34.945312 28.621094 C 34.90625 28.480469 34.941406 28.410156 35.050781 28.382812 C 35.109375 28.363281 35.199219 28.3125 35.253906 28.261719 C 35.378906 28.140625 35.605469 28.03125 35.722656 28.03125 C 35.777344 28.03125 35.828125 28.015625 35.835938 28.003906 C 35.84375 27.988281 35.976562 27.9375 36.132812 27.894531 C 36.453125 27.804688 36.75 27.699219 37.277344 27.496094 C 37.46875 27.417969 37.671875 27.355469 37.71875 27.355469 C 37.765625 27.355469 37.808594 27.34375 37.808594 27.328125 C 37.808594 27.3125 37.902344 27.257812 38.027344 27.199219 C 38.144531 27.144531 38.253906 27.074219 38.261719 27.050781 C 38.289062 26.988281 38.382812 26.988281 38.382812 27.050781 C 38.382812 27.125 38.308594 27.320312 38.183594 27.585938 C 38.121094 27.722656 38.054688 27.875 38.039062 27.925781 C 38.027344 27.972656 37.992188 28.03125 37.964844 28.058594 C 37.9375 28.085938 37.914062 28.132812 37.914062 28.167969 C 37.914062 28.203125 37.898438 28.246094 37.882812 28.261719 C 37.867188 28.285156 37.792969 28.4375 37.71875 28.601562 C 37.609375 28.867188 37.589844 28.949219 37.589844 29.179688 C 37.589844 29.390625 37.609375 29.476562 37.671875 29.582031 C 37.714844 29.65625 37.765625 29.730469 37.789062 29.742188 C 37.808594 29.757812 37.875 29.839844 37.933594 29.929688 C 37.988281 30.011719 38.066406 30.089844 38.109375 30.101562 C 38.152344 30.113281 38.28125 30.160156 38.398438 30.207031 C 38.558594 30.273438 38.71875 30.304688 38.988281 30.324219 C 39.1875 30.335938 39.355469 30.363281 39.355469 30.375 C 39.355469 30.390625 39.453125 30.410156 39.582031 30.421875 C 39.703125 30.429688 39.960938 30.472656 40.160156 30.515625 C 40.351562 30.558594 40.636719 30.597656 40.789062 30.605469 C 40.941406 30.613281 41.109375 30.636719 41.164062 30.65625 C 41.21875 30.675781 41.304688 30.695312 41.351562 30.695312 C 41.398438 30.695312 41.441406 30.710938 41.441406 30.730469 C 41.441406 30.753906 41.605469 30.765625 41.863281 30.765625 L 42.285156 30.761719 L 42.351562 30.628906 C 42.433594 30.449219 42.429688 30.171875 42.335938 29.929688 C 42.25 29.699219 42.070312 29.488281 41.960938 29.488281 C 41.921875 29.488281 41.847656 29.464844 41.796875 29.4375 C 41.742188 29.414062 41.65625 29.390625 41.597656 29.386719 C 41.542969 29.386719 41.488281 29.371094 41.484375 29.347656 C 41.464844 29.296875 41.308594 29.300781 41.28125 29.351562 C 41.261719 29.386719 41.257812 29.386719 41.238281 29.351562 C 41.214844 29.296875 41.125 29.296875 41.109375 29.351562 C 41.097656 29.382812 41.078125 29.382812 41.03125 29.339844 C 40.949219 29.257812 40.699219 29.191406 40.582031 29.222656 C 40.425781 29.257812 40.289062 29.316406 40.289062 29.347656 C 40.289062 29.367188 40.222656 29.382812 40.144531 29.382812 C 40.066406 29.382812 40 29.367188 40 29.351562 C 40 29.335938 39.910156 29.296875 39.804688 29.261719 C 39.695312 29.226562 39.605469 29.1875 39.605469 29.167969 C 39.605469 29.148438 39.769531 28.859375 39.976562 28.519531 C 40.179688 28.183594 40.398438 27.820312 40.449219 27.71875 C 40.507812 27.613281 40.601562 27.488281 40.660156 27.441406 C 40.761719 27.359375 40.777344 27.355469 41.386719 27.355469 C 41.726562 27.355469 42.015625 27.34375 42.023438 27.324219 C 42.046875 27.253906 43.519531 27.003906 43.914062 27 C 44.035156 27 44.136719 26.988281 44.136719 26.964844 C 44.136719 26.945312 44.242188 26.929688 44.382812 26.929688 C 44.535156 26.929688 44.722656 26.898438 44.910156 26.839844 C 45.070312 26.792969 45.238281 26.753906 45.289062 26.753906 C 45.339844 26.753906 45.425781 26.726562 45.480469 26.699219 C 45.535156 26.671875 45.707031 26.628906 45.855469 26.605469 C 46.007812 26.585938 46.222656 26.558594 46.332031 26.539062 C 46.441406 26.523438 46.589844 26.507812 46.667969 26.507812 L 46.800781 26.503906 L 46.800781 26.679688 C 46.800781 26.921875 47.152344 27.789062 47.324219 27.976562 C 47.363281 28.019531 47.445312 28.15625 47.507812 28.28125 C 47.574219 28.40625 47.730469 28.621094 47.859375 28.753906 C 47.988281 28.890625 48.09375 29.015625 48.09375 29.03125 C 48.09375 29.046875 48.117188 29.0625 48.140625 29.0625 C 48.183594 29.0625 48.453125 29.289062 48.453125 29.328125 C 48.453125 29.378906 48.683594 29.628906 48.730469 29.628906 C 48.757812 29.628906 48.777344 29.648438 48.777344 29.667969 C 48.777344 29.691406 48.847656 29.769531 48.929688 29.839844 C 49.011719 29.910156 49.109375 29.992188 49.140625 30.027344 C 49.171875 30.058594 49.234375 30.09375 49.273438 30.105469 C 49.34375 30.128906 49.855469 30.613281 49.96875 30.761719 C 50 30.804688 50.046875 30.90625 50.074219 30.988281 C 50.101562 31.070312 50.132812 31.144531 50.144531 31.15625 C 50.15625 31.167969 50.195312 31.265625 50.226562 31.382812 C 50.292969 31.582031 50.285156 31.773438 50.210938 31.8125 C 50.195312 31.828125 50.179688 31.882812 50.179688 31.941406 C 50.179688 32 50.164062 32.046875 50.144531 32.046875 C 50.125 32.046875 50.109375 32.0625 50.109375 32.085938 C 50.109375 32.125 49.894531 32.449219 49.847656 32.464844 C 49.835938 32.472656 49.820312 32.488281 49.820312 32.507812 C 49.820312 32.546875 49.121094 33.238281 49.007812 33.3125 C 48.9375 33.355469 48.808594 33.378906 48.523438 33.386719 C 48.304688 33.398438 48.128906 33.417969 48.128906 33.429688 C 48.128906 33.449219 48.070312 33.46875 47.992188 33.484375 C 47.894531 33.496094 47.796875 33.5625 47.632812 33.710938 C 47.441406 33.886719 47.410156 33.929688 47.410156 34.046875 C 47.410156 34.132812 47.394531 34.175781 47.359375 34.175781 C 47.300781 34.175781 47.121094 34.375 47.121094 34.445312 C 47.121094 34.476562 47.152344 34.511719 47.1875 34.519531 C 47.21875 34.535156 47.269531 34.574219 47.296875 34.605469 C 47.320312 34.640625 47.410156 34.679688 47.496094 34.691406 C 47.960938 34.761719 49.773438 34.667969 49.964844 34.5625 C 50.164062 34.453125 50.226562 34.367188 50.210938 34.21875 C 50.191406 34.097656 50.207031 34.0625 50.308594 33.949219 C 50.375 33.878906 50.441406 33.820312 50.460938 33.820312 C 50.484375 33.820312 50.507812 33.777344 50.519531 33.730469 C 50.53125 33.679688 50.726562 33.457031 50.953125 33.230469 C 51.179688 33.003906 51.367188 32.800781 51.367188 32.78125 C 51.367188 32.757812 51.4375 32.675781 51.523438 32.59375 C 51.605469 32.515625 51.710938 32.378906 51.753906 32.285156 C 51.800781 32.191406 51.847656 32.117188 51.871094 32.117188 C 51.890625 32.117188 51.90625 32.089844 51.90625 32.0625 C 51.90625 31.988281 52.121094 31.578125 52.203125 31.5 C 52.265625 31.441406 52.269531 31.394531 52.253906 31.058594 L 52.238281 30.675781 L 52.074219 30.523438 C 51.984375 30.441406 51.90625 30.359375 51.90625 30.335938 C 51.90625 30.320312 51.84375 30.238281 51.761719 30.160156 C 51.683594 30.078125 51.621094 29.996094 51.621094 29.976562 C 51.621094 29.960938 51.566406 29.894531 51.5 29.832031 C 51.371094 29.710938 51.222656 29.40625 51.222656 29.261719 C 51.222656 29.210938 51.191406 29.144531 51.15625 29.109375 C 51.117188 29.070312 51.054688 28.949219 51.015625 28.832031 C 50.953125 28.644531 50.949219 28.566406 50.976562 28.226562 C 51.003906 27.847656 51.078125 27.566406 51.175781 27.46875 C 51.203125 27.445312 51.222656 27.398438 51.222656 27.375 C 51.222656 27.328125 51.347656 27.113281 51.4375 27.011719 C 51.457031 26.988281 51.476562 26.953125 51.476562 26.929688 C 51.476562 26.910156 51.5 26.867188 51.527344 26.835938 C 51.558594 26.804688 51.582031 26.746094 51.582031 26.699219 C 51.582031 26.652344 51.632812 26.511719 51.691406 26.378906 C 51.753906 26.246094 51.800781 26.121094 51.800781 26.089844 C 51.800781 26.0625 51.824219 26.03125 51.851562 26.019531 C 51.882812 26.007812 51.90625 25.976562 51.90625 25.949219 C 51.90625 25.921875 51.945312 25.839844 51.992188 25.765625 C 52.035156 25.695312 52.085938 25.597656 52.101562 25.554688 C 52.117188 25.507812 52.152344 25.453125 52.175781 25.425781 C 52.269531 25.332031 52.308594 24.640625 52.261719 23.964844 C 52.242188 23.628906 52.210938 23.347656 52.191406 23.339844 C 52.171875 23.328125 52.148438 23.238281 52.132812 23.140625 C 52.117188 22.984375 52.121094 22.949219 52.191406 22.894531 C 52.230469 22.859375 52.265625 22.808594 52.265625 22.789062 C 52.265625 22.761719 52.320312 22.703125 52.390625 22.648438 C 52.457031 22.597656 52.589844 22.484375 52.6875 22.398438 C 52.78125 22.3125 52.882812 22.242188 52.90625 22.242188 C 52.929688 22.242188 52.949219 22.226562 52.949219 22.210938 C 52.949219 22.179688 53.3125 21.878906 53.511719 21.742188 C 53.554688 21.714844 53.660156 21.601562 53.746094 21.496094 C 53.917969 21.277344 54.019531 21.179688 54.347656 20.890625 C 54.476562 20.785156 54.644531 20.632812 54.726562 20.550781 C 54.8125 20.46875 54.90625 20.390625 54.9375 20.371094 C 54.96875 20.355469 55.042969 20.28125 55.101562 20.207031 C 55.273438 19.992188 55.707031 19.625 55.890625 19.539062 C 55.984375 19.492188 56.082031 19.433594 56.109375 19.410156 C 56.132812 19.386719 56.179688 19.363281 56.207031 19.363281 C 56.257812 19.363281 56.574219 19.203125 56.890625 19.023438 C 57.046875 18.933594 57.160156 18.789062 57.160156 18.671875 C 57.160156 18.636719 57.121094 18.617188 57.042969 18.617188 C 56.980469 18.617188 56.835938 18.585938 56.722656 18.550781 C 56.519531 18.484375 56.289062 18.492188 56.097656 18.578125 C 56.058594 18.597656 55.921875 18.632812 55.792969 18.65625 C 55.5625 18.699219 55.140625 18.867188 55.035156 18.957031 C 55.007812 18.980469 54.929688 19.015625 54.867188 19.039062 C 54.742188 19.078125 54.507812 19.238281 54.4375 19.328125 C 54.414062 19.355469 54.304688 19.472656 54.195312 19.585938 C 54.082031 19.703125 53.992188 19.820312 53.992188 19.847656 C 53.992188 19.875 53.972656 19.898438 53.945312 19.898438 C 53.921875 19.898438 53.84375 19.953125 53.773438 20.023438 C 53.660156 20.140625 53.257812 20.429688 53.207031 20.429688 C 53.171875 20.429688 53.046875 20.570312 52.972656 20.683594 C 52.9375 20.742188 52.886719 20.785156 52.859375 20.785156 C 52.832031 20.785156 52.753906 20.839844 52.6875 20.898438 C 52.527344 21.046875 52.464844 21.089844 52.277344 21.175781 C 52.050781 21.28125 51.402344 21.460938 51.242188 21.460938 C 50.980469 21.457031 50.492188 21.324219 50.054688 21.140625 C 49.132812 20.742188 48.160156 20.496094 47.160156 20.402344 C 46.589844 20.347656 45.011719 20.355469 44.226562 20.414062 C 43.363281 20.484375 43.09375 20.464844 42.785156 20.324219 C 42.503906 20.195312 42.214844 20.109375 42.074219 20.109375 C 41.953125 20.109375 41.421875 19.921875 41.332031 19.847656 C 41.167969 19.710938 40.976562 19.640625 40.707031 19.613281 C 40.25 19.5625 40.101562 19.527344 39.945312 19.425781 C 39.851562 19.363281 39.71875 19.316406 39.558594 19.296875 C 39.394531 19.273438 39.242188 19.222656 39.089844 19.136719 C 38.816406 18.988281 38.410156 18.59375 38.265625 18.34375 C 38.167969 18.167969 38.058594 18.050781 37.476562 17.460938 L 37.222656 17.203125 L 37.386719 17.09375 C 37.5 17.015625 37.589844 16.984375 37.691406 16.984375 C 37.910156 16.984375 37.949219 16.960938 37.949219 16.808594 C 37.949219 16.738281 37.9375 16.664062 37.917969 16.644531 C 37.882812 16.605469 37.808594 16.230469 37.808594 16.078125 C 37.808594 16.015625 37.777344 15.941406 37.742188 15.90625 C 37.671875 15.84375 37.375 15.777344 37.171875 15.777344 C 37.097656 15.777344 37.035156 15.75 37.007812 15.710938 C 36.917969 15.589844 36.808594 15.554688 36.507812 15.578125 C 36.351562 15.589844 36.191406 15.613281 36.152344 15.632812 C 36.054688 15.683594 35.976562 15.679688 35.71875 15.597656 C 35.449219 15.511719 35.253906 15.511719 35.109375 15.582031 C 35.015625 15.628906 34.988281 15.628906 34.902344 15.585938 C 34.765625 15.515625 34.449219 15.496094 33.992188 15.523438 Z M 41.011719 21.804688 C 40.984375 21.859375 40.976562 21.859375 40.972656 21.8125 C 40.972656 21.75 41.007812 21.699219 41.035156 21.722656 C 41.042969 21.734375 41.035156 21.769531 41.011719 21.804688 Z M 41.011719 21.804688 " fill-opacity="1" fill-rule="nonzero"/></g><g clip-path="url(#c405689327)"><path fill="#623d2b" d="M 53.375 25.109375 C 53.34375 25.050781 53.324219 24.886719 53.269531 24.832031 C 53.125 24.777344 53.003906 24.675781 52.855469 24.628906 C 52.75 24.59375 52.601562 24.554688 52.539062 24.449219 C 52.453125 24.308594 52.523438 24.140625 52.644531 24.089844 C 52.636719 24.085938 52.628906 24.078125 52.625 24.066406 C 52.535156 23.910156 52.5625 23.617188 52.785156 23.605469 C 52.792969 23.605469 52.804688 23.609375 52.8125 23.609375 C 52.820312 23.609375 52.832031 23.605469 52.839844 23.605469 C 52.902344 23.609375 52.921875 23.507812 52.953125 23.460938 C 52.996094 23.40625 53.046875 23.390625 53.117188 23.382812 C 53.214844 23.371094 53.351562 23.390625 53.4375 23.457031 C 53.445312 23.453125 53.449219 23.453125 53.457031 23.453125 C 53.6875 23.4375 53.960938 23.578125 54.046875 23.796875 C 54.050781 23.804688 54.050781 23.816406 54.050781 23.824219 C 54.160156 24.023438 54.339844 24.226562 54.472656 24.410156 C 54.644531 24.640625 54.816406 24.863281 54.960938 25.113281 C 55.101562 25.359375 55.203125 25.628906 55.328125 25.882812 C 55.371094 25.96875 55.421875 26.054688 55.476562 26.136719 C 55.554688 26.066406 55.644531 25.824219 55.671875 25.773438 C 55.730469 25.65625 55.796875 25.496094 55.917969 25.433594 C 55.921875 25.429688 55.929688 25.429688 55.933594 25.425781 C 56.015625 25.226562 56.191406 25.082031 56.351562 24.945312 C 56.464844 24.847656 56.558594 24.71875 56.660156 24.605469 C 56.773438 24.480469 56.90625 24.382812 57.007812 24.246094 C 57.234375 23.941406 57.269531 23.636719 57.203125 23.273438 C 57.175781 23.125 57.140625 22.960938 57.078125 22.824219 C 57.03125 22.714844 56.964844 22.625 56.929688 22.511719 C 56.875 22.320312 57.03125 22.101562 57.136719 21.960938 C 57.378906 21.640625 57.734375 21.609375 58.050781 21.78125 C 58.058594 21.769531 58.074219 21.761719 58.089844 21.757812 C 58.410156 21.683594 58.667969 21.621094 58.992188 21.699219 C 59.023438 21.703125 59.050781 21.710938 59.078125 21.71875 C 59.082031 21.714844 59.085938 21.710938 59.09375 21.707031 C 59.21875 21.625 59.390625 21.4375 59.425781 21.289062 C 59.4375 21.234375 59.511719 21.210938 59.546875 21.253906 C 59.703125 21.4375 59.597656 21.714844 59.589844 21.925781 C 59.589844 21.925781 59.589844 21.925781 59.589844 21.929688 C 59.6875 21.980469 59.785156 22.042969 59.875 22.105469 C 60 21.917969 60.253906 21.753906 60.414062 21.628906 C 60.617188 21.464844 60.828125 21.371094 60.933594 21.664062 C 61.027344 21.933594 60.894531 22.300781 60.78125 22.546875 C 60.757812 22.59375 60.734375 22.640625 60.703125 22.6875 C 60.714844 22.699219 60.722656 22.714844 60.722656 22.734375 C 60.722656 23.117188 60.722656 23.5 60.730469 23.882812 C 60.734375 24.226562 60.5625 24.503906 60.46875 24.820312 C 60.425781 24.964844 60.355469 25.101562 60.300781 25.238281 C 60.230469 25.421875 60.226562 25.613281 60.238281 25.808594 C 60.242188 25.882812 60.25 25.953125 60.265625 26.023438 C 60.273438 26.03125 60.277344 26.042969 60.277344 26.054688 C 60.304688 26.199219 60.539062 26.292969 60.65625 26.351562 C 60.808594 26.433594 60.964844 26.503906 61.109375 26.605469 C 61.503906 26.875 61.921875 27.09375 62.328125 27.34375 C 63.082031 27.816406 63.867188 28.375 64.402344 29.097656 C 64.945312 29.832031 65.230469 30.703125 65.539062 31.554688 C 65.71875 32.046875 65.90625 32.484375 66.261719 32.871094 C 66.410156 33.03125 66.589844 33.152344 66.78125 33.253906 C 66.9375 33.332031 67.148438 33.414062 67.347656 33.449219 C 67.359375 33.4375 67.375 33.429688 67.398438 33.433594 C 68.335938 33.5 69.25 33.441406 70.121094 33.070312 C 70.511719 32.90625 70.898438 32.761719 71.273438 32.558594 C 71.433594 32.472656 71.589844 32.394531 71.765625 32.328125 C 71.984375 32.25 72.160156 32.089844 72.367188 31.992188 C 72.777344 31.792969 73.816406 31.476562 73.910156 32.199219 C 73.941406 32.449219 73.734375 32.707031 73.570312 32.871094 C 73.320312 33.113281 72.953125 33.191406 72.632812 33.289062 C 72.609375 33.296875 72.585938 33.292969 72.570312 33.28125 C 72.292969 33.324219 72.019531 33.550781 71.78125 33.683594 C 71.464844 33.855469 71.148438 34.023438 70.820312 34.175781 C 70.207031 34.460938 69.515625 34.585938 68.847656 34.667969 C 68.160156 34.75 67.421875 34.804688 66.734375 34.703125 C 66.433594 34.660156 66.15625 34.574219 65.871094 34.472656 C 65.707031 34.414062 65.535156 34.347656 65.40625 34.222656 C 65.25 34.332031 65.011719 34.339844 64.84375 34.417969 C 64.890625 34.59375 64.898438 34.773438 64.796875 34.953125 C 64.664062 35.191406 64.351562 35.226562 64.109375 35.230469 C 63.71875 35.238281 63.320312 35.179688 62.933594 35.164062 C 62.769531 35.160156 62.613281 35.183594 62.460938 35.191406 C 62.441406 35.210938 62.410156 35.214844 62.382812 35.191406 C 62.28125 35.195312 62.1875 35.1875 62.089844 35.160156 C 62.0625 35.167969 62.035156 35.164062 62.015625 35.136719 C 61.980469 35.125 61.945312 35.109375 61.910156 35.089844 C 61.871094 35.070312 61.839844 35.042969 61.808594 35.015625 C 61.792969 35.03125 61.773438 35.035156 61.746094 35.027344 C 61.464844 34.921875 61.140625 35.105469 60.851562 35.105469 C 60.570312 35.105469 60.429688 34.855469 60.4375 34.597656 C 60.445312 34.367188 60.621094 34.265625 60.847656 34.226562 C 60.832031 34.21875 60.820312 34.214844 60.808594 34.210938 C 60.652344 34.15625 60.496094 34.132812 60.347656 34.058594 C 60.167969 33.96875 60.042969 33.800781 59.917969 33.652344 C 59.703125 33.390625 59.488281 33.070312 59.488281 32.71875 C 59.488281 32.550781 59.550781 32.375 59.691406 32.304688 C 59.421875 32.175781 59.179688 32.027344 58.9375 31.835938 C 58.71875 31.664062 58.480469 31.496094 58.320312 31.265625 C 58.21875 31.523438 58.136719 31.804688 57.980469 32.03125 C 57.878906 32.183594 57.777344 32.335938 57.675781 32.488281 C 57.433594 32.851562 57.1875 33.214844 56.964844 33.589844 C 56.804688 33.855469 56.882812 34.367188 56.570312 34.527344 C 56.660156 34.6875 56.691406 34.878906 56.625 35.054688 C 56.546875 35.253906 56.304688 35.253906 56.164062 35.132812 C 56.160156 35.136719 56.160156 35.140625 56.15625 35.148438 C 56.101562 35.230469 55.992188 35.265625 55.898438 35.269531 C 55.757812 35.277344 55.636719 35.191406 55.570312 35.074219 C 55.546875 35.097656 55.523438 35.117188 55.496094 35.136719 C 55.332031 35.246094 55.195312 35.097656 55.136719 34.957031 C 55.019531 34.671875 55.195312 34.453125 55.433594 34.335938 C 55.519531 34.171875 55.535156 33.988281 55.59375 33.8125 C 55.664062 33.585938 55.738281 33.359375 55.828125 33.136719 C 55.941406 32.847656 56.019531 32.5625 56.085938 32.257812 C 56.140625 31.992188 56.199219 31.722656 56.257812 31.457031 C 56.292969 31.300781 56.3125 31.101562 56.394531 30.960938 C 56.398438 30.953125 56.402344 30.945312 56.410156 30.941406 C 56.46875 30.6875 56.484375 30.421875 56.441406 30.164062 C 56.390625 29.882812 56.222656 29.628906 56.136719 29.355469 C 55.992188 29.402344 55.789062 29.382812 55.6875 29.359375 C 55.109375 29.226562 54.890625 28.691406 54.667969 28.199219 C 54.546875 27.929688 54.359375 27.695312 54.230469 27.425781 C 54.097656 27.152344 54.058594 26.808594 54.011719 26.511719 C 53.976562 26.320312 53.941406 26.15625 53.847656 25.984375 C 53.765625 25.839844 53.667969 25.707031 53.589844 25.5625 C 53.511719 25.414062 53.445312 25.261719 53.375 25.109375 " fill-opacity="1" fill-rule="nonzero"/></g><g clip-path="url(#23e6debf66)"><path fill="#623d2b" d="M 32.972656 33.132812 C 32.972656 33.132812 33.265625 31.003906 31.574219 28.980469 C 29.878906 26.953125 28.402344 27.957031 28.402344 27.957031 C 28.402344 27.957031 27.8125 27.132812 27.988281 26.679688 C 28.167969 26.230469 28.894531 25.5625 28.992188 24.777344 C 29.09375 23.992188 29.542969 22.953125 29.113281 22.933594 C 28.679688 22.914062 27.871094 25.40625 27.871094 25.40625 C 27.871094 25.40625 29.386719 21.207031 27.574219 23.523438 C 26.878906 24.410156 26.648438 25.757812 26.648438 25.757812 C 26.648438 25.757812 26 25.914062 25.921875 26.089844 C 25.84375 26.269531 24.996094 26.523438 24.503906 27.25 C 24.011719 27.976562 23.933594 28.210938 24.089844 28.503906 C 24.25 28.796875 24.859375 29.484375 25.3125 29.328125 L 25.527344 29.621094 C 25.527344 29.621094 25.015625 31.507812 26.808594 32.957031 C 26.808594 32.957031 27.0625 33.742188 26.945312 34.054688 C 26.828125 34.371094 26.414062 34.585938 26.414062 34.78125 C 26.414062 34.976562 26.867188 35.175781 27.320312 35.078125 C 27.773438 34.976562 27.554688 35.101562 27.554688 35.101562 C 27.554688 35.101562 28.953125 35.117188 29.132812 35.019531 C 29.308594 34.917969 29.308594 34.625 29.308594 34.625 C 29.308594 34.625 29.605469 34.996094 29.703125 34.957031 C 29.800781 34.917969 31.355469 35.285156 31.515625 35.101562 C 31.671875 34.917969 32.046875 35.019531 32.046875 35.019531 C 32.046875 35.019531 32.539062 34.390625 32.695312 34.074219 C 32.851562 33.761719 32.9375 34.527344 33.582031 34.132812 C 34.226562 33.742188 34.289062 32.308594 32.972656 33.132812 " fill-opacity="1" fill-rule="nonzero"/></g><g clip-path="url(#56807201b8)"><path fill="#623d2b" d="M 46.257812 20.488281 L 45.597656 20.554688 L 45.417969 20.292969 L 46.4375 19.089844 C 46.535156 19.132812 46.625 19.171875 46.710938 19.210938 Z M 44.734375 14.09375 C 44.734375 14.289062 44.433594 14.289062 44.433594 14.09375 C 44.433594 13.894531 44.734375 13.894531 44.734375 14.09375 Z M 51.246094 20.144531 L 50.847656 19.96875 C 50.832031 19.964844 49.335938 19.300781 48.421875 17.6875 C 47.589844 16.222656 46.222656 16.355469 45.8125 15.105469 C 45.585938 14.421875 45.730469 14.3125 46.414062 13.800781 C 46.199219 13.679688 45.957031 13.578125 45.699219 13.652344 C 45.195312 13.0625 44.449219 13.21875 43.984375 13.710938 C 43.332031 14.398438 43.089844 16.300781 43.941406 17.542969 C 44.503906 18.363281 45.207031 18.550781 46.292969 19.023438 L 45.269531 20.230469 L 44.304688 20.765625 C 44.234375 20.804688 44.261719 20.910156 44.34375 20.910156 C 44.375 20.910156 45.265625 20.40625 45.296875 20.390625 C 45.746094 21.039062 45.753906 21.101562 45.84375 21.042969 C 45.925781 20.988281 45.851562 20.917969 45.699219 20.699219 L 46.289062 20.640625 C 46.855469 21.109375 46.890625 21.171875 46.957031 21.09375 C 47.027344 21.015625 46.957031 20.992188 46.40625 20.535156 L 46.855469 19.273438 C 47.457031 19.542969 47.90625 19.75 48.207031 19.929688 C 48.207031 19.820312 48.210938 19.566406 48.128906 19.167969 C 48.527344 19.46875 49.488281 20.039062 50.8125 20.117188 L 51.246094 20.144531 " fill-opacity="1" fill-rule="nonzero"/></g><g fill="#4bad20" fill-opacity="1"><g transform="translate(10.844304, 44.910154)"><g><path d="M 2.75 -2.796875 C 2.40625 -2.910156 2.09375 -3.023438 1.8125 -3.140625 C 1.539062 -3.265625 1.300781 -3.410156 1.09375 -3.578125 C 0.894531 -3.753906 0.738281 -3.957031 0.625 -4.1875 C 0.519531 -4.425781 0.46875 -4.71875 0.46875 -5.0625 C 0.46875 -5.71875 0.71875 -6.238281 1.21875 -6.625 C 1.726562 -7.019531 2.4375 -7.21875 3.34375 -7.21875 C 3.675781 -7.21875 3.984375 -7.191406 4.265625 -7.140625 C 4.554688 -7.097656 4.804688 -7.03125 5.015625 -6.9375 C 5.222656 -6.84375 5.382812 -6.71875 5.5 -6.5625 C 5.613281 -6.414062 5.671875 -6.242188 5.671875 -6.046875 C 5.671875 -5.835938 5.625 -5.660156 5.53125 -5.515625 C 5.4375 -5.378906 5.320312 -5.257812 5.1875 -5.15625 C 5.019531 -5.269531 4.789062 -5.363281 4.5 -5.4375 C 4.21875 -5.519531 3.910156 -5.5625 3.578125 -5.5625 C 3.222656 -5.5625 2.960938 -5.515625 2.796875 -5.421875 C 2.640625 -5.328125 2.5625 -5.207031 2.5625 -5.0625 C 2.5625 -4.9375 2.609375 -4.835938 2.703125 -4.765625 C 2.804688 -4.691406 2.960938 -4.625 3.171875 -4.5625 L 3.78125 -4.375 C 4.507812 -4.132812 5.066406 -3.832031 5.453125 -3.46875 C 5.847656 -3.113281 6.046875 -2.628906 6.046875 -2.015625 C 6.046875 -1.359375 5.785156 -0.828125 5.265625 -0.421875 C 4.742188 -0.015625 3.984375 0.1875 2.984375 0.1875 C 2.628906 0.1875 2.296875 0.15625 1.984375 0.09375 C 1.679688 0.0390625 1.414062 -0.0390625 1.1875 -0.15625 C 0.957031 -0.269531 0.78125 -0.410156 0.65625 -0.578125 C 0.53125 -0.742188 0.46875 -0.929688 0.46875 -1.140625 C 0.46875 -1.367188 0.53125 -1.5625 0.65625 -1.71875 C 0.789062 -1.875 0.9375 -2 1.09375 -2.09375 C 1.3125 -1.914062 1.578125 -1.765625 1.890625 -1.640625 C 2.203125 -1.515625 2.539062 -1.453125 2.90625 -1.453125 C 3.289062 -1.453125 3.554688 -1.507812 3.703125 -1.625 C 3.859375 -1.75 3.9375 -1.890625 3.9375 -2.046875 C 3.9375 -2.191406 3.875 -2.304688 3.75 -2.390625 C 3.632812 -2.472656 3.460938 -2.550781 3.234375 -2.625 Z M 2.75 -2.796875 "/></g></g></g><g fill="#4bad20" fill-opacity="1"><g transform="translate(17.227894, 44.910154)"><g><path d="M 2.25 -6.8125 C 2.382812 -6.894531 2.582031 -6.96875 2.84375 -7.03125 C 3.113281 -7.101562 3.382812 -7.140625 3.65625 -7.140625 C 4.039062 -7.140625 4.378906 -7.082031 4.671875 -6.96875 C 4.972656 -6.863281 5.164062 -6.691406 5.25 -6.453125 C 5.382812 -6.046875 5.535156 -5.578125 5.703125 -5.046875 C 5.867188 -4.515625 6.03125 -3.960938 6.1875 -3.390625 C 6.351562 -2.816406 6.507812 -2.253906 6.65625 -1.703125 C 6.8125 -1.148438 6.953125 -0.664062 7.078125 -0.25 C 6.984375 -0.132812 6.84375 -0.046875 6.65625 0.015625 C 6.46875 0.078125 6.25 0.109375 6 0.109375 C 5.8125 0.109375 5.648438 0.09375 5.515625 0.0625 C 5.390625 0.03125 5.285156 -0.0078125 5.203125 -0.0625 C 5.128906 -0.125 5.066406 -0.207031 5.015625 -0.3125 C 4.960938 -0.414062 4.914062 -0.53125 4.875 -0.65625 L 4.671875 -1.453125 L 2.578125 -1.453125 C 2.515625 -1.222656 2.453125 -0.984375 2.390625 -0.734375 C 2.328125 -0.492188 2.265625 -0.253906 2.203125 -0.015625 C 2.097656 0.015625 1.984375 0.0390625 1.859375 0.0625 C 1.742188 0.09375 1.597656 0.109375 1.421875 0.109375 C 1.023438 0.109375 0.734375 0.0390625 0.546875 -0.09375 C 0.359375 -0.226562 0.265625 -0.414062 0.265625 -0.65625 C 0.265625 -0.757812 0.28125 -0.863281 0.3125 -0.96875 C 0.34375 -1.082031 0.378906 -1.210938 0.421875 -1.359375 C 0.472656 -1.566406 0.546875 -1.820312 0.640625 -2.125 C 0.734375 -2.4375 0.835938 -2.769531 0.953125 -3.125 C 1.078125 -3.488281 1.203125 -3.859375 1.328125 -4.234375 C 1.460938 -4.617188 1.585938 -4.976562 1.703125 -5.3125 C 1.816406 -5.644531 1.921875 -5.941406 2.015625 -6.203125 C 2.117188 -6.472656 2.195312 -6.675781 2.25 -6.8125 Z M 3.640625 -5.328125 C 3.535156 -4.992188 3.414062 -4.628906 3.28125 -4.234375 C 3.144531 -3.835938 3.019531 -3.4375 2.90625 -3.03125 L 4.34375 -3.03125 C 4.238281 -3.445312 4.128906 -3.851562 4.015625 -4.25 C 3.898438 -4.644531 3.796875 -5.003906 3.703125 -5.328125 Z M 3.640625 -5.328125 "/></g></g></g><g fill="#4bad20" fill-opacity="1"><g transform="translate(24.491982, 44.910154)"><g><path d="M 4.96875 -0.234375 C 4.851562 -0.140625 4.679688 -0.0625 4.453125 0 C 4.222656 0.0703125 3.972656 0.109375 3.703125 0.109375 C 3.378906 0.109375 3.101562 0.0625 2.875 -0.03125 C 2.644531 -0.125 2.488281 -0.253906 2.40625 -0.421875 C 2.3125 -0.609375 2.203125 -0.84375 2.078125 -1.125 C 1.960938 -1.40625 1.835938 -1.71875 1.703125 -2.0625 C 1.566406 -2.40625 1.425781 -2.769531 1.28125 -3.15625 C 1.132812 -3.550781 0.992188 -3.953125 0.859375 -4.359375 C 0.734375 -4.765625 0.613281 -5.160156 0.5 -5.546875 C 0.382812 -5.929688 0.285156 -6.289062 0.203125 -6.625 C 0.304688 -6.738281 0.457031 -6.835938 0.65625 -6.921875 C 0.863281 -7.015625 1.085938 -7.0625 1.328125 -7.0625 C 1.609375 -7.0625 1.835938 -7 2.015625 -6.875 C 2.203125 -6.757812 2.335938 -6.539062 2.421875 -6.21875 C 2.628906 -5.457031 2.835938 -4.726562 3.046875 -4.03125 C 3.265625 -3.34375 3.488281 -2.625 3.71875 -1.875 L 3.796875 -1.875 C 4.003906 -2.601562 4.21875 -3.394531 4.4375 -4.25 C 4.65625 -5.113281 4.863281 -5.96875 5.0625 -6.8125 C 5.207031 -6.882812 5.359375 -6.941406 5.515625 -6.984375 C 5.671875 -7.035156 5.847656 -7.0625 6.046875 -7.0625 C 6.335938 -7.0625 6.582031 -6.992188 6.78125 -6.859375 C 6.976562 -6.734375 7.078125 -6.523438 7.078125 -6.234375 C 7.078125 -6.066406 7.035156 -5.820312 6.953125 -5.5 C 6.878906 -5.175781 6.773438 -4.8125 6.640625 -4.40625 C 6.515625 -4 6.375 -3.570312 6.21875 -3.125 C 6.0625 -2.6875 5.898438 -2.269531 5.734375 -1.875 C 5.578125 -1.488281 5.429688 -1.144531 5.296875 -0.84375 C 5.160156 -0.550781 5.050781 -0.347656 4.96875 -0.234375 Z M 4.96875 -0.234375 "/></g></g></g><g fill="#4bad20" fill-opacity="1"><g transform="translate(31.837166, 44.910154)"><g><path d="M 2.78125 -0.046875 C 2.695312 -0.0234375 2.5625 -0.00390625 2.375 0.015625 C 2.195312 0.046875 2.019531 0.0625 1.84375 0.0625 C 1.664062 0.0625 1.507812 0.046875 1.375 0.015625 C 1.238281 -0.00390625 1.125 -0.0507812 1.03125 -0.125 C 0.9375 -0.195312 0.863281 -0.296875 0.8125 -0.421875 C 0.769531 -0.546875 0.75 -0.707031 0.75 -0.90625 L 0.75 -7.03125 C 0.832031 -7.039062 0.96875 -7.054688 1.15625 -7.078125 C 1.34375 -7.109375 1.519531 -7.125 1.6875 -7.125 C 1.863281 -7.125 2.019531 -7.109375 2.15625 -7.078125 C 2.289062 -7.054688 2.40625 -7.007812 2.5 -6.9375 C 2.59375 -6.875 2.660156 -6.78125 2.703125 -6.65625 C 2.753906 -6.53125 2.78125 -6.367188 2.78125 -6.171875 Z M 2.78125 -0.046875 "/></g></g></g><g fill="#4bad20" fill-opacity="1"><g transform="translate(35.370734, 44.910154)"><g><path d="M 7.125 -0.25 C 7.007812 -0.132812 6.847656 -0.0507812 6.640625 0 C 6.441406 0.0625 6.195312 0.09375 5.90625 0.09375 C 5.625 0.09375 5.351562 0.0507812 5.09375 -0.03125 C 4.84375 -0.113281 4.632812 -0.320312 4.46875 -0.65625 L 3.328125 -2.984375 C 3.210938 -3.222656 3.109375 -3.445312 3.015625 -3.65625 C 2.921875 -3.875 2.820312 -4.125 2.71875 -4.40625 L 2.640625 -4.390625 C 2.671875 -3.972656 2.6875 -3.546875 2.6875 -3.109375 C 2.695312 -2.679688 2.703125 -2.257812 2.703125 -1.84375 L 2.703125 -0.046875 C 2.617188 -0.0234375 2.488281 -0.00390625 2.3125 0.015625 C 2.132812 0.046875 1.960938 0.0625 1.796875 0.0625 C 1.628906 0.0625 1.476562 0.046875 1.34375 0.015625 C 1.207031 -0.00390625 1.097656 -0.046875 1.015625 -0.109375 C 0.929688 -0.179688 0.863281 -0.273438 0.8125 -0.390625 C 0.769531 -0.515625 0.75 -0.675781 0.75 -0.875 L 0.75 -6.671875 C 0.863281 -6.816406 1.03125 -6.925781 1.25 -7 C 1.476562 -7.082031 1.71875 -7.125 1.96875 -7.125 C 2.257812 -7.125 2.53125 -7.078125 2.78125 -6.984375 C 3.039062 -6.898438 3.25 -6.703125 3.40625 -6.390625 L 4.5625 -4.046875 C 4.675781 -3.804688 4.78125 -3.578125 4.875 -3.359375 C 4.96875 -3.148438 5.070312 -2.90625 5.1875 -2.625 L 5.234375 -2.640625 C 5.203125 -3.054688 5.179688 -3.472656 5.171875 -3.890625 C 5.171875 -4.304688 5.171875 -4.722656 5.171875 -5.140625 L 5.171875 -7.03125 C 5.253906 -7.050781 5.378906 -7.070312 5.546875 -7.09375 C 5.722656 -7.113281 5.898438 -7.125 6.078125 -7.125 C 6.410156 -7.125 6.664062 -7.0625 6.84375 -6.9375 C 7.03125 -6.820312 7.125 -6.578125 7.125 -6.203125 Z M 7.125 -0.25 "/></g></g></g><g fill="#4bad20" fill-opacity="1"><g transform="translate(43.237264, 44.910154)"><g><path d="M 7.125 -1.140625 C 7.125 -0.898438 7.078125 -0.722656 6.984375 -0.609375 C 6.898438 -0.492188 6.765625 -0.382812 6.578125 -0.28125 C 6.472656 -0.21875 6.335938 -0.15625 6.171875 -0.09375 C 6.015625 -0.0390625 5.835938 0.00390625 5.640625 0.046875 C 5.453125 0.0859375 5.25 0.117188 5.03125 0.140625 C 4.820312 0.171875 4.613281 0.1875 4.40625 0.1875 C 3.851562 0.1875 3.332031 0.113281 2.84375 -0.03125 C 2.351562 -0.1875 1.925781 -0.414062 1.5625 -0.71875 C 1.207031 -1.03125 0.925781 -1.410156 0.71875 -1.859375 C 0.507812 -2.316406 0.40625 -2.847656 0.40625 -3.453125 C 0.40625 -4.085938 0.519531 -4.640625 0.75 -5.109375 C 0.976562 -5.578125 1.28125 -5.96875 1.65625 -6.28125 C 2.03125 -6.601562 2.457031 -6.835938 2.9375 -6.984375 C 3.414062 -7.140625 3.910156 -7.21875 4.421875 -7.21875 C 5.160156 -7.21875 5.742188 -7.097656 6.171875 -6.859375 C 6.597656 -6.628906 6.8125 -6.328125 6.8125 -5.953125 C 6.8125 -5.742188 6.757812 -5.566406 6.65625 -5.421875 C 6.5625 -5.273438 6.445312 -5.160156 6.3125 -5.078125 C 6.125 -5.191406 5.882812 -5.304688 5.59375 -5.421875 C 5.300781 -5.535156 4.972656 -5.59375 4.609375 -5.59375 C 3.960938 -5.59375 3.445312 -5.40625 3.0625 -5.03125 C 2.6875 -4.65625 2.5 -4.140625 2.5 -3.484375 C 2.5 -3.128906 2.550781 -2.820312 2.65625 -2.5625 C 2.757812 -2.300781 2.898438 -2.085938 3.078125 -1.921875 C 3.253906 -1.765625 3.457031 -1.644531 3.6875 -1.5625 C 3.914062 -1.476562 4.160156 -1.4375 4.421875 -1.4375 C 4.597656 -1.4375 4.75 -1.453125 4.875 -1.484375 C 5.007812 -1.515625 5.113281 -1.550781 5.1875 -1.59375 L 5.1875 -2.671875 L 3.9375 -2.671875 C 3.894531 -2.765625 3.851562 -2.878906 3.8125 -3.015625 C 3.769531 -3.148438 3.75 -3.296875 3.75 -3.453125 C 3.75 -3.734375 3.8125 -3.9375 3.9375 -4.0625 C 4.0625 -4.1875 4.222656 -4.25 4.421875 -4.25 L 6.390625 -4.25 C 6.617188 -4.25 6.796875 -4.179688 6.921875 -4.046875 C 7.054688 -3.921875 7.125 -3.742188 7.125 -3.515625 Z M 7.125 -1.140625 "/></g></g></g><g fill="#4bad20" fill-opacity="1"><g transform="translate(50.930012, 44.910154)"><g/></g></g><g fill="#4bad20" fill-opacity="1"><g transform="translate(53.247104, 44.910154)"><g><path d="M 3.390625 -3.765625 C 3.710938 -3.765625 3.957031 -3.835938 4.125 -3.984375 C 4.300781 -4.140625 4.390625 -4.375 4.390625 -4.6875 C 4.390625 -4.976562 4.296875 -5.203125 4.109375 -5.359375 C 3.929688 -5.515625 3.671875 -5.59375 3.328125 -5.59375 C 3.203125 -5.59375 3.097656 -5.59375 3.015625 -5.59375 C 2.941406 -5.59375 2.859375 -5.582031 2.765625 -5.5625 L 2.765625 -3.765625 Z M 2.78125 -0.046875 C 2.695312 -0.0234375 2.5625 -0.00390625 2.375 0.015625 C 2.195312 0.046875 2.019531 0.0625 1.84375 0.0625 C 1.664062 0.0625 1.507812 0.046875 1.375 0.015625 C 1.238281 -0.00390625 1.125 -0.0507812 1.03125 -0.125 C 0.9375 -0.195312 0.863281 -0.296875 0.8125 -0.421875 C 0.769531 -0.546875 0.75 -0.707031 0.75 -0.90625 L 0.75 -6.359375 C 0.75 -6.523438 0.789062 -6.648438 0.875 -6.734375 C 0.96875 -6.828125 1.09375 -6.898438 1.25 -6.953125 C 1.507812 -7.046875 1.804688 -7.113281 2.140625 -7.15625 C 2.484375 -7.195312 2.828125 -7.21875 3.171875 -7.21875 C 4.234375 -7.21875 5.046875 -6.988281 5.609375 -6.53125 C 6.171875 -6.082031 6.453125 -5.46875 6.453125 -4.6875 C 6.453125 -4.300781 6.390625 -3.957031 6.265625 -3.65625 C 6.148438 -3.351562 5.972656 -3.085938 5.734375 -2.859375 C 5.503906 -2.640625 5.207031 -2.46875 4.84375 -2.34375 C 4.488281 -2.226562 4.078125 -2.171875 3.609375 -2.171875 L 2.78125 -2.171875 Z M 2.78125 -0.046875 "/></g></g></g><g fill="#4bad20" fill-opacity="1"><g transform="translate(59.978256, 44.910154)"><g><path d="M 0.75 -5.953125 C 0.75 -6.285156 0.84375 -6.546875 1.03125 -6.734375 C 1.226562 -6.929688 1.492188 -7.03125 1.828125 -7.03125 L 5.65625 -7.03125 C 5.707031 -6.9375 5.753906 -6.820312 5.796875 -6.6875 C 5.835938 -6.550781 5.859375 -6.40625 5.859375 -6.25 C 5.859375 -5.957031 5.796875 -5.75 5.671875 -5.625 C 5.546875 -5.5 5.378906 -5.4375 5.171875 -5.4375 L 2.71875 -5.4375 L 2.71875 -4.359375 L 5.328125 -4.359375 C 5.390625 -4.273438 5.441406 -4.164062 5.484375 -4.03125 C 5.523438 -3.894531 5.546875 -3.75 5.546875 -3.59375 C 5.546875 -3.300781 5.484375 -3.09375 5.359375 -2.96875 C 5.234375 -2.84375 5.066406 -2.78125 4.859375 -2.78125 L 2.71875 -2.78125 L 2.71875 -1.5625 L 5.703125 -1.5625 C 5.753906 -1.476562 5.800781 -1.363281 5.84375 -1.21875 C 5.882812 -1.082031 5.90625 -0.9375 5.90625 -0.78125 C 5.90625 -0.488281 5.84375 -0.28125 5.71875 -0.15625 C 5.59375 -0.03125 5.425781 0.03125 5.21875 0.03125 L 1.828125 0.03125 C 1.492188 0.03125 1.226562 -0.0625 1.03125 -0.25 C 0.84375 -0.445312 0.75 -0.710938 0.75 -1.046875 Z M 0.75 -5.953125 "/></g></g></g><g fill="#4bad20" fill-opacity="1"><g transform="translate(66.327087, 44.910154)"><g><path d="M 0.421875 -5.40625 C 0.367188 -5.488281 0.316406 -5.601562 0.265625 -5.75 C 0.222656 -5.894531 0.203125 -6.050781 0.203125 -6.21875 C 0.203125 -6.519531 0.269531 -6.734375 0.40625 -6.859375 C 0.539062 -6.992188 0.71875 -7.0625 0.9375 -7.0625 L 6 -7.0625 C 6.050781 -6.976562 6.097656 -6.863281 6.140625 -6.71875 C 6.191406 -6.570312 6.21875 -6.414062 6.21875 -6.25 C 6.21875 -5.945312 6.148438 -5.726562 6.015625 -5.59375 C 5.878906 -5.46875 5.703125 -5.40625 5.484375 -5.40625 L 4.203125 -5.40625 L 4.203125 -0.046875 C 4.109375 -0.0234375 3.972656 -0.00390625 3.796875 0.015625 C 3.617188 0.046875 3.441406 0.0625 3.265625 0.0625 C 3.078125 0.0625 2.914062 0.046875 2.78125 0.015625 C 2.644531 -0.00390625 2.53125 -0.0507812 2.4375 -0.125 C 2.351562 -0.195312 2.285156 -0.296875 2.234375 -0.421875 C 2.191406 -0.546875 2.171875 -0.707031 2.171875 -0.90625 L 2.171875 -5.40625 Z M 0.421875 -5.40625 "/></g></g></g><g fill="#4bad20" fill-opacity="1"><g transform="translate(72.768601, 44.910154)"><g><path d="M 2.75 -2.796875 C 2.40625 -2.910156 2.09375 -3.023438 1.8125 -3.140625 C 1.539062 -3.265625 1.300781 -3.410156 1.09375 -3.578125 C 0.894531 -3.753906 0.738281 -3.957031 0.625 -4.1875 C 0.519531 -4.425781 0.46875 -4.71875 0.46875 -5.0625 C 0.46875 -5.71875 0.71875 -6.238281 1.21875 -6.625 C 1.726562 -7.019531 2.4375 -7.21875 3.34375 -7.21875 C 3.675781 -7.21875 3.984375 -7.191406 4.265625 -7.140625 C 4.554688 -7.097656 4.804688 -7.03125 5.015625 -6.9375 C 5.222656 -6.84375 5.382812 -6.71875 5.5 -6.5625 C 5.613281 -6.414062 5.671875 -6.242188 5.671875 -6.046875 C 5.671875 -5.835938 5.625 -5.660156 5.53125 -5.515625 C 5.4375 -5.378906 5.320312 -5.257812 5.1875 -5.15625 C 5.019531 -5.269531 4.789062 -5.363281 4.5 -5.4375 C 4.21875 -5.519531 3.910156 -5.5625 3.578125 -5.5625 C 3.222656 -5.5625 2.960938 -5.515625 2.796875 -5.421875 C 2.640625 -5.328125 2.5625 -5.207031 2.5625 -5.0625 C 2.5625 -4.9375 2.609375 -4.835938 2.703125 -4.765625 C 2.804688 -4.691406 2.960938 -4.625 3.171875 -4.5625 L 3.78125 -4.375 C 4.507812 -4.132812 5.066406 -3.832031 5.453125 -3.46875 C 5.847656 -3.113281 6.046875 -2.628906 6.046875 -2.015625 C 6.046875 -1.359375 5.785156 -0.828125 5.265625 -0.421875 C 4.742188 -0.015625 3.984375 0.1875 2.984375 0.1875 C 2.628906 0.1875 2.296875 0.15625 1.984375 0.09375 C 1.679688 0.0390625 1.414062 -0.0390625 1.1875 -0.15625 C 0.957031 -0.269531 0.78125 -0.410156 0.65625 -0.578125 C 0.53125 -0.742188 0.46875 -0.929688 0.46875 -1.140625 C 0.46875 -1.367188 0.53125 -1.5625 0.65625 -1.71875 C 0.789062 -1.875 0.9375 -2 1.09375 -2.09375 C 1.3125 -1.914062 1.578125 -1.765625 1.890625 -1.640625 C 2.203125 -1.515625 2.539062 -1.453125 2.90625 -1.453125 C 3.289062 -1.453125 3.554688 -1.507812 3.703125 -1.625 C 3.859375 -1.75 3.9375 -1.890625 3.9375 -2.046875 C 3.9375 -2.191406 3.875 -2.304688 3.75 -2.390625 C 3.632812 -2.472656 3.460938 -2.550781 3.234375 -2.625 Z M 2.75 -2.796875 "/></g></g></g><g fill="#623d2b" fill-opacity="1"><g transform="translate(29.517664, 52.32213)"><g/></g></g><g fill="#623d2b" fill-opacity="1"><g transform="translate(30.345811, 52.32213)"><g><path d="M 0.8125 -2.4375 C 0.851562 -2.46875 0.921875 -2.492188 1.015625 -2.515625 C 1.109375 -2.546875 1.207031 -2.5625 1.3125 -2.5625 C 1.445312 -2.5625 1.566406 -2.539062 1.671875 -2.5 C 1.785156 -2.457031 1.859375 -2.394531 1.890625 -2.3125 C 1.929688 -2.164062 1.976562 -1.992188 2.03125 -1.796875 C 2.09375 -1.609375 2.15625 -1.410156 2.21875 -1.203125 C 2.28125 -1.003906 2.335938 -0.804688 2.390625 -0.609375 C 2.441406 -0.410156 2.488281 -0.238281 2.53125 -0.09375 C 2.5 -0.0507812 2.445312 -0.0195312 2.375 0 C 2.3125 0.03125 2.238281 0.046875 2.15625 0.046875 C 2.082031 0.046875 2.019531 0.0390625 1.96875 0.03125 C 1.925781 0.0195312 1.890625 0.00390625 1.859375 -0.015625 C 1.835938 -0.046875 1.816406 -0.078125 1.796875 -0.109375 C 1.773438 -0.148438 1.757812 -0.191406 1.75 -0.234375 L 1.671875 -0.53125 L 0.921875 -0.53125 C 0.898438 -0.445312 0.878906 -0.359375 0.859375 -0.265625 C 0.835938 -0.179688 0.816406 -0.0976562 0.796875 -0.015625 C 0.753906 0.00390625 0.710938 0.0195312 0.671875 0.03125 C 0.628906 0.0390625 0.578125 0.046875 0.515625 0.046875 C 0.367188 0.046875 0.257812 0.0195312 0.1875 -0.03125 C 0.125 -0.0820312 0.09375 -0.148438 0.09375 -0.234375 C 0.09375 -0.273438 0.0976562 -0.3125 0.109375 -0.34375 C 0.117188 -0.382812 0.132812 -0.429688 0.15625 -0.484375 C 0.164062 -0.554688 0.1875 -0.648438 0.21875 -0.765625 C 0.257812 -0.878906 0.300781 -1 0.34375 -1.125 C 0.382812 -1.25 0.425781 -1.378906 0.46875 -1.515625 C 0.519531 -1.648438 0.566406 -1.78125 0.609375 -1.90625 C 0.648438 -2.03125 0.6875 -2.140625 0.71875 -2.234375 C 0.757812 -2.328125 0.789062 -2.394531 0.8125 -2.4375 Z M 1.3125 -1.90625 C 1.269531 -1.789062 1.222656 -1.660156 1.171875 -1.515625 C 1.117188 -1.378906 1.078125 -1.234375 1.046875 -1.078125 L 1.5625 -1.078125 C 1.519531 -1.234375 1.476562 -1.378906 1.4375 -1.515625 C 1.394531 -1.660156 1.359375 -1.789062 1.328125 -1.90625 Z M 1.3125 -1.90625 "/></g></g></g><g fill="#623d2b" fill-opacity="1"><g transform="translate(32.951032, 52.32213)"><g><path d="M 2.015625 -0.625 C 1.972656 -0.59375 1.921875 -0.566406 1.859375 -0.546875 C 1.804688 -0.523438 1.742188 -0.515625 1.671875 -0.515625 C 1.578125 -0.515625 1.492188 -0.523438 1.421875 -0.546875 C 1.359375 -0.578125 1.316406 -0.625 1.296875 -0.6875 C 1.222656 -0.925781 1.160156 -1.117188 1.109375 -1.265625 C 1.054688 -1.421875 1.019531 -1.554688 1 -1.671875 L 0.96875 -1.671875 C 0.957031 -1.515625 0.953125 -1.367188 0.953125 -1.234375 C 0.953125 -1.097656 0.945312 -0.960938 0.9375 -0.828125 C 0.9375 -0.703125 0.9375 -0.570312 0.9375 -0.4375 C 0.9375 -0.3125 0.929688 -0.171875 0.921875 -0.015625 C 0.878906 -0.00390625 0.828125 0.00390625 0.765625 0.015625 C 0.710938 0.0234375 0.660156 0.03125 0.609375 0.03125 C 0.484375 0.03125 0.382812 0.015625 0.3125 -0.015625 C 0.25 -0.0546875 0.21875 -0.128906 0.21875 -0.234375 L 0.34375 -2.359375 C 0.363281 -2.390625 0.410156 -2.425781 0.484375 -2.46875 C 0.554688 -2.507812 0.660156 -2.53125 0.796875 -2.53125 C 0.941406 -2.53125 1.054688 -2.503906 1.140625 -2.453125 C 1.222656 -2.410156 1.285156 -2.34375 1.328125 -2.25 C 1.347656 -2.175781 1.375 -2.097656 1.40625 -2.015625 C 1.4375 -1.929688 1.460938 -1.84375 1.484375 -1.75 C 1.515625 -1.65625 1.546875 -1.5625 1.578125 -1.46875 C 1.609375 -1.382812 1.632812 -1.304688 1.65625 -1.234375 L 1.671875 -1.234375 C 1.742188 -1.460938 1.8125 -1.6875 1.875 -1.90625 C 1.9375 -2.125 2 -2.304688 2.0625 -2.453125 C 2.101562 -2.472656 2.15625 -2.488281 2.21875 -2.5 C 2.28125 -2.519531 2.351562 -2.53125 2.4375 -2.53125 C 2.570312 -2.53125 2.679688 -2.507812 2.765625 -2.46875 C 2.847656 -2.4375 2.898438 -2.378906 2.921875 -2.296875 C 2.929688 -2.242188 2.941406 -2.160156 2.953125 -2.046875 C 2.960938 -1.929688 2.972656 -1.800781 2.984375 -1.65625 C 3.003906 -1.507812 3.019531 -1.351562 3.03125 -1.1875 C 3.050781 -1.03125 3.066406 -0.878906 3.078125 -0.734375 C 3.085938 -0.585938 3.097656 -0.453125 3.109375 -0.328125 C 3.117188 -0.203125 3.125 -0.109375 3.125 -0.046875 C 3.070312 -0.015625 3.019531 0.00390625 2.96875 0.015625 C 2.914062 0.0234375 2.851562 0.03125 2.78125 0.03125 C 2.675781 0.03125 2.585938 0.015625 2.515625 -0.015625 C 2.441406 -0.0546875 2.398438 -0.128906 2.390625 -0.234375 C 2.378906 -0.535156 2.367188 -0.804688 2.359375 -1.046875 C 2.359375 -1.285156 2.351562 -1.488281 2.34375 -1.65625 L 2.328125 -1.65625 C 2.296875 -1.539062 2.253906 -1.398438 2.203125 -1.234375 C 2.148438 -1.078125 2.085938 -0.875 2.015625 -0.625 Z M 2.015625 -0.625 "/></g></g></g><g fill="#623d2b" fill-opacity="1"><g transform="translate(36.262611, 52.32213)"><g><path d="M 0.140625 -1.265625 C 0.140625 -1.484375 0.171875 -1.675781 0.234375 -1.84375 C 0.304688 -2.007812 0.398438 -2.144531 0.515625 -2.25 C 0.640625 -2.363281 0.78125 -2.445312 0.9375 -2.5 C 1.101562 -2.5625 1.273438 -2.59375 1.453125 -2.59375 C 1.640625 -2.59375 1.8125 -2.5625 1.96875 -2.5 C 2.132812 -2.445312 2.273438 -2.363281 2.390625 -2.25 C 2.515625 -2.144531 2.609375 -2.007812 2.671875 -1.84375 C 2.742188 -1.675781 2.78125 -1.484375 2.78125 -1.265625 C 2.78125 -1.046875 2.742188 -0.851562 2.671875 -0.6875 C 2.609375 -0.519531 2.515625 -0.378906 2.390625 -0.265625 C 2.273438 -0.148438 2.132812 -0.0625 1.96875 0 C 1.8125 0.0507812 1.640625 0.078125 1.453125 0.078125 C 1.265625 0.078125 1.085938 0.046875 0.921875 -0.015625 C 0.765625 -0.078125 0.628906 -0.160156 0.515625 -0.265625 C 0.398438 -0.378906 0.304688 -0.519531 0.234375 -0.6875 C 0.171875 -0.851562 0.140625 -1.046875 0.140625 -1.265625 Z M 0.890625 -1.265625 C 0.890625 -1.015625 0.941406 -0.828125 1.046875 -0.703125 C 1.148438 -0.578125 1.285156 -0.515625 1.453125 -0.515625 C 1.628906 -0.515625 1.769531 -0.578125 1.875 -0.703125 C 1.976562 -0.828125 2.03125 -1.015625 2.03125 -1.265625 C 2.03125 -1.515625 1.976562 -1.703125 1.875 -1.828125 C 1.769531 -1.953125 1.632812 -2.015625 1.46875 -2.015625 C 1.289062 -2.015625 1.148438 -1.953125 1.046875 -1.828125 C 0.941406 -1.703125 0.890625 -1.515625 0.890625 -1.265625 Z M 0.890625 -1.265625 "/></g></g></g><g fill="#623d2b" fill-opacity="1"><g transform="translate(39.183615, 52.32213)"><g><path d="M 1 -0.8125 L 1 -0.015625 C 0.96875 -0.00390625 0.914062 0 0.84375 0 C 0.78125 0.0078125 0.71875 0.015625 0.65625 0.015625 C 0.59375 0.015625 0.535156 0.0078125 0.484375 0 C 0.441406 -0.0078125 0.398438 -0.0234375 0.359375 -0.046875 C 0.328125 -0.0664062 0.300781 -0.0976562 0.28125 -0.140625 C 0.269531 -0.191406 0.265625 -0.253906 0.265625 -0.328125 L 0.265625 -2.28125 C 0.265625 -2.34375 0.28125 -2.390625 0.3125 -2.421875 C 0.34375 -2.453125 0.390625 -2.476562 0.453125 -2.5 C 0.546875 -2.53125 0.65625 -2.550781 0.78125 -2.5625 C 0.90625 -2.582031 1.035156 -2.59375 1.171875 -2.59375 C 1.554688 -2.59375 1.84375 -2.507812 2.03125 -2.34375 C 2.226562 -2.1875 2.328125 -1.972656 2.328125 -1.703125 C 2.328125 -1.523438 2.28125 -1.375 2.1875 -1.25 C 2.101562 -1.132812 2.003906 -1.039062 1.890625 -0.96875 C 1.984375 -0.832031 2.078125 -0.703125 2.171875 -0.578125 C 2.273438 -0.460938 2.351562 -0.359375 2.40625 -0.265625 C 2.375 -0.171875 2.320312 -0.0976562 2.25 -0.046875 C 2.175781 0.00390625 2.09375 0.03125 2 0.03125 C 1.945312 0.03125 1.894531 0.0195312 1.84375 0 C 1.800781 -0.0078125 1.765625 -0.0234375 1.734375 -0.046875 C 1.703125 -0.0664062 1.671875 -0.09375 1.640625 -0.125 C 1.609375 -0.164062 1.582031 -0.207031 1.5625 -0.25 L 1.21875 -0.8125 Z M 1.25 -1.375 C 1.351562 -1.375 1.4375 -1.398438 1.5 -1.453125 C 1.5625 -1.503906 1.59375 -1.582031 1.59375 -1.6875 C 1.59375 -1.789062 1.554688 -1.867188 1.484375 -1.921875 C 1.421875 -1.972656 1.316406 -2 1.171875 -2 C 1.128906 -2 1.09375 -2 1.0625 -2 C 1.039062 -2 1.015625 -1.992188 0.984375 -1.984375 L 0.984375 -1.375 Z M 1.25 -1.375 "/></g></g></g><g fill="#623d2b" fill-opacity="1"><g transform="translate(41.714043, 52.32213)"><g/></g></g><g fill="#623d2b" fill-opacity="1"><g transform="translate(42.545053, 52.32213)"><g><path d="M 0.8125 -2.4375 C 0.851562 -2.46875 0.921875 -2.492188 1.015625 -2.515625 C 1.109375 -2.546875 1.207031 -2.5625 1.3125 -2.5625 C 1.445312 -2.5625 1.566406 -2.539062 1.671875 -2.5 C 1.785156 -2.457031 1.859375 -2.394531 1.890625 -2.3125 C 1.929688 -2.164062 1.976562 -1.992188 2.03125 -1.796875 C 2.09375 -1.609375 2.15625 -1.410156 2.21875 -1.203125 C 2.28125 -1.003906 2.335938 -0.804688 2.390625 -0.609375 C 2.441406 -0.410156 2.488281 -0.238281 2.53125 -0.09375 C 2.5 -0.0507812 2.445312 -0.0195312 2.375 0 C 2.3125 0.03125 2.238281 0.046875 2.15625 0.046875 C 2.082031 0.046875 2.019531 0.0390625 1.96875 0.03125 C 1.925781 0.0195312 1.890625 0.00390625 1.859375 -0.015625 C 1.835938 -0.046875 1.816406 -0.078125 1.796875 -0.109375 C 1.773438 -0.148438 1.757812 -0.191406 1.75 -0.234375 L 1.671875 -0.53125 L 0.921875 -0.53125 C 0.898438 -0.445312 0.878906 -0.359375 0.859375 -0.265625 C 0.835938 -0.179688 0.816406 -0.0976562 0.796875 -0.015625 C 0.753906 0.00390625 0.710938 0.0195312 0.671875 0.03125 C 0.628906 0.0390625 0.578125 0.046875 0.515625 0.046875 C 0.367188 0.046875 0.257812 0.0195312 0.1875 -0.03125 C 0.125 -0.0820312 0.09375 -0.148438 0.09375 -0.234375 C 0.09375 -0.273438 0.0976562 -0.3125 0.109375 -0.34375 C 0.117188 -0.382812 0.132812 -0.429688 0.15625 -0.484375 C 0.164062 -0.554688 0.1875 -0.648438 0.21875 -0.765625 C 0.257812 -0.878906 0.300781 -1 0.34375 -1.125 C 0.382812 -1.25 0.425781 -1.378906 0.46875 -1.515625 C 0.519531 -1.648438 0.566406 -1.78125 0.609375 -1.90625 C 0.648438 -2.03125 0.6875 -2.140625 0.71875 -2.234375 C 0.757812 -2.328125 0.789062 -2.394531 0.8125 -2.4375 Z M 1.3125 -1.90625 C 1.269531 -1.789062 1.222656 -1.660156 1.171875 -1.515625 C 1.117188 -1.378906 1.078125 -1.234375 1.046875 -1.078125 L 1.5625 -1.078125 C 1.519531 -1.234375 1.476562 -1.378906 1.4375 -1.515625 C 1.394531 -1.660156 1.359375 -1.789062 1.328125 -1.90625 Z M 1.3125 -1.90625 "/></g></g></g><g fill="#623d2b" fill-opacity="1"><g transform="translate(45.150274, 52.32213)"><g><path d="M 0.140625 -1.265625 C 0.140625 -1.484375 0.171875 -1.675781 0.234375 -1.84375 C 0.304688 -2.007812 0.398438 -2.144531 0.515625 -2.25 C 0.640625 -2.363281 0.78125 -2.445312 0.9375 -2.5 C 1.101562 -2.5625 1.273438 -2.59375 1.453125 -2.59375 C 1.640625 -2.59375 1.8125 -2.5625 1.96875 -2.5 C 2.132812 -2.445312 2.273438 -2.363281 2.390625 -2.25 C 2.515625 -2.144531 2.609375 -2.007812 2.671875 -1.84375 C 2.742188 -1.675781 2.78125 -1.484375 2.78125 -1.265625 C 2.78125 -1.046875 2.742188 -0.851562 2.671875 -0.6875 C 2.609375 -0.519531 2.515625 -0.378906 2.390625 -0.265625 C 2.273438 -0.148438 2.132812 -0.0625 1.96875 0 C 1.8125 0.0507812 1.640625 0.078125 1.453125 0.078125 C 1.265625 0.078125 1.085938 0.046875 0.921875 -0.015625 C 0.765625 -0.078125 0.628906 -0.160156 0.515625 -0.265625 C 0.398438 -0.378906 0.304688 -0.519531 0.234375 -0.6875 C 0.171875 -0.851562 0.140625 -1.046875 0.140625 -1.265625 Z M 0.890625 -1.265625 C 0.890625 -1.015625 0.941406 -0.828125 1.046875 -0.703125 C 1.148438 -0.578125 1.285156 -0.515625 1.453125 -0.515625 C 1.628906 -0.515625 1.769531 -0.578125 1.875 -0.703125 C 1.976562 -0.828125 2.03125 -1.015625 2.03125 -1.265625 C 2.03125 -1.515625 1.976562 -1.703125 1.875 -1.828125 C 1.769531 -1.953125 1.632812 -2.015625 1.46875 -2.015625 C 1.289062 -2.015625 1.148438 -1.953125 1.046875 -1.828125 C 0.941406 -1.703125 0.890625 -1.515625 0.890625 -1.265625 Z M 0.890625 -1.265625 "/></g></g></g><g fill="#623d2b" fill-opacity="1"><g transform="translate(48.071278, 52.32213)"><g><path d="M 0.984375 -1 C 0.859375 -1.039062 0.742188 -1.082031 0.640625 -1.125 C 0.546875 -1.164062 0.460938 -1.21875 0.390625 -1.28125 C 0.316406 -1.34375 0.257812 -1.414062 0.21875 -1.5 C 0.1875 -1.582031 0.171875 -1.6875 0.171875 -1.8125 C 0.171875 -2.050781 0.257812 -2.238281 0.4375 -2.375 C 0.613281 -2.519531 0.867188 -2.59375 1.203125 -2.59375 C 1.316406 -2.59375 1.425781 -2.582031 1.53125 -2.5625 C 1.632812 -2.550781 1.722656 -2.523438 1.796875 -2.484375 C 1.867188 -2.453125 1.925781 -2.410156 1.96875 -2.359375 C 2.007812 -2.304688 2.03125 -2.242188 2.03125 -2.171875 C 2.03125 -2.097656 2.015625 -2.035156 1.984375 -1.984375 C 1.953125 -1.929688 1.910156 -1.882812 1.859375 -1.84375 C 1.796875 -1.882812 1.710938 -1.921875 1.609375 -1.953125 C 1.515625 -1.984375 1.40625 -2 1.28125 -2 C 1.15625 -2 1.0625 -1.976562 1 -1.9375 C 0.945312 -1.90625 0.921875 -1.863281 0.921875 -1.8125 C 0.921875 -1.769531 0.9375 -1.734375 0.96875 -1.703125 C 1.007812 -1.679688 1.066406 -1.660156 1.140625 -1.640625 L 1.359375 -1.5625 C 1.617188 -1.476562 1.816406 -1.375 1.953125 -1.25 C 2.097656 -1.125 2.171875 -0.945312 2.171875 -0.71875 C 2.171875 -0.488281 2.078125 -0.300781 1.890625 -0.15625 C 1.703125 -0.0078125 1.425781 0.0625 1.0625 0.0625 C 0.9375 0.0625 0.816406 0.0507812 0.703125 0.03125 C 0.597656 0.0078125 0.503906 -0.015625 0.421875 -0.046875 C 0.335938 -0.0859375 0.273438 -0.140625 0.234375 -0.203125 C 0.191406 -0.265625 0.171875 -0.332031 0.171875 -0.40625 C 0.171875 -0.488281 0.191406 -0.554688 0.234375 -0.609375 C 0.285156 -0.671875 0.335938 -0.71875 0.390625 -0.75 C 0.460938 -0.6875 0.554688 -0.632812 0.671875 -0.59375 C 0.785156 -0.550781 0.910156 -0.53125 1.046875 -0.53125 C 1.179688 -0.53125 1.273438 -0.546875 1.328125 -0.578125 C 1.378906 -0.617188 1.40625 -0.671875 1.40625 -0.734375 C 1.40625 -0.785156 1.382812 -0.828125 1.34375 -0.859375 C 1.300781 -0.890625 1.238281 -0.914062 1.15625 -0.9375 Z M 0.984375 -1 "/></g></g></g><g fill="#623d2b" fill-opacity="1"><g transform="translate(50.360713, 52.32213)"><g/></g></g><g fill="#623d2b" fill-opacity="1"><g transform="translate(51.191723, 52.32213)"><g><path d="M 1.21875 -1.34375 C 1.332031 -1.34375 1.421875 -1.367188 1.484375 -1.421875 C 1.546875 -1.484375 1.578125 -1.566406 1.578125 -1.671875 C 1.578125 -1.785156 1.539062 -1.867188 1.46875 -1.921875 C 1.40625 -1.972656 1.3125 -2 1.1875 -2 C 1.144531 -2 1.109375 -2 1.078125 -2 C 1.054688 -2 1.03125 -2 1 -2 L 1 -1.34375 Z M 1 -0.015625 C 0.96875 -0.00390625 0.914062 0 0.84375 0 C 0.78125 0.0078125 0.71875 0.015625 0.65625 0.015625 C 0.59375 0.015625 0.535156 0.0078125 0.484375 0 C 0.441406 -0.0078125 0.398438 -0.0234375 0.359375 -0.046875 C 0.328125 -0.0664062 0.300781 -0.0976562 0.28125 -0.140625 C 0.269531 -0.191406 0.265625 -0.253906 0.265625 -0.328125 L 0.265625 -2.28125 C 0.265625 -2.34375 0.28125 -2.390625 0.3125 -2.421875 C 0.34375 -2.453125 0.390625 -2.476562 0.453125 -2.5 C 0.546875 -2.53125 0.648438 -2.550781 0.765625 -2.5625 C 0.890625 -2.582031 1.015625 -2.59375 1.140625 -2.59375 C 1.515625 -2.59375 1.800781 -2.507812 2 -2.34375 C 2.207031 -2.175781 2.3125 -1.953125 2.3125 -1.671875 C 2.3125 -1.535156 2.289062 -1.410156 2.25 -1.296875 C 2.207031 -1.191406 2.144531 -1.097656 2.0625 -1.015625 C 1.976562 -0.941406 1.867188 -0.882812 1.734375 -0.84375 C 1.609375 -0.800781 1.460938 -0.78125 1.296875 -0.78125 L 1 -0.78125 Z M 1 -0.015625 "/></g></g></g><g fill="#623d2b" fill-opacity="1"><g transform="translate(53.605811, 52.32213)"><g><path d="M 0.265625 -2.125 C 0.265625 -2.25 0.300781 -2.34375 0.375 -2.40625 C 0.445312 -2.476562 0.539062 -2.515625 0.65625 -2.515625 L 2.03125 -2.515625 C 2.050781 -2.484375 2.066406 -2.441406 2.078125 -2.390625 C 2.097656 -2.347656 2.109375 -2.296875 2.109375 -2.234375 C 2.109375 -2.128906 2.082031 -2.054688 2.03125 -2.015625 C 1.988281 -1.972656 1.929688 -1.953125 1.859375 -1.953125 L 0.984375 -1.953125 L 0.984375 -1.5625 L 1.90625 -1.5625 C 1.925781 -1.53125 1.941406 -1.488281 1.953125 -1.4375 C 1.972656 -1.394531 1.984375 -1.34375 1.984375 -1.28125 C 1.984375 -1.175781 1.960938 -1.101562 1.921875 -1.0625 C 1.878906 -1.019531 1.816406 -1 1.734375 -1 L 0.984375 -1 L 0.984375 -0.5625 L 2.046875 -0.5625 C 2.066406 -0.53125 2.082031 -0.488281 2.09375 -0.4375 C 2.113281 -0.382812 2.125 -0.332031 2.125 -0.28125 C 2.125 -0.175781 2.097656 -0.0976562 2.046875 -0.046875 C 2.003906 -0.00390625 1.945312 0.015625 1.875 0.015625 L 0.65625 0.015625 C 0.539062 0.015625 0.445312 -0.0195312 0.375 -0.09375 C 0.300781 -0.164062 0.265625 -0.257812 0.265625 -0.375 Z M 0.265625 -2.125 "/></g></g></g><g fill="#623d2b" fill-opacity="1"><g transform="translate(55.882782, 52.32213)"><g><path d="M 0.15625 -1.9375 C 0.132812 -1.96875 0.113281 -2.007812 0.09375 -2.0625 C 0.0820312 -2.113281 0.078125 -2.171875 0.078125 -2.234375 C 0.078125 -2.335938 0.0976562 -2.410156 0.140625 -2.453125 C 0.191406 -2.503906 0.257812 -2.53125 0.34375 -2.53125 L 2.15625 -2.53125 C 2.164062 -2.5 2.179688 -2.457031 2.203125 -2.40625 C 2.222656 -2.351562 2.234375 -2.296875 2.234375 -2.234375 C 2.234375 -2.128906 2.207031 -2.050781 2.15625 -2 C 2.101562 -1.957031 2.039062 -1.9375 1.96875 -1.9375 L 1.5 -1.9375 L 1.5 -0.015625 C 1.46875 -0.00390625 1.421875 0 1.359375 0 C 1.296875 0.0078125 1.234375 0.015625 1.171875 0.015625 C 1.109375 0.015625 1.050781 0.0078125 1 0 C 0.945312 -0.0078125 0.90625 -0.0234375 0.875 -0.046875 C 0.84375 -0.0664062 0.816406 -0.0976562 0.796875 -0.140625 C 0.785156 -0.191406 0.78125 -0.253906 0.78125 -0.328125 L 0.78125 -1.9375 Z M 0.15625 -1.9375 "/></g></g></g><g fill="#623d2b" fill-opacity="1"><g transform="translate(58.192993, 52.32213)"><g><path d="M 0.984375 -1 C 0.859375 -1.039062 0.742188 -1.082031 0.640625 -1.125 C 0.546875 -1.164062 0.460938 -1.21875 0.390625 -1.28125 C 0.316406 -1.34375 0.257812 -1.414062 0.21875 -1.5 C 0.1875 -1.582031 0.171875 -1.6875 0.171875 -1.8125 C 0.171875 -2.050781 0.257812 -2.238281 0.4375 -2.375 C 0.613281 -2.519531 0.867188 -2.59375 1.203125 -2.59375 C 1.316406 -2.59375 1.425781 -2.582031 1.53125 -2.5625 C 1.632812 -2.550781 1.722656 -2.523438 1.796875 -2.484375 C 1.867188 -2.453125 1.925781 -2.410156 1.96875 -2.359375 C 2.007812 -2.304688 2.03125 -2.242188 2.03125 -2.171875 C 2.03125 -2.097656 2.015625 -2.035156 1.984375 -1.984375 C 1.953125 -1.929688 1.910156 -1.882812 1.859375 -1.84375 C 1.796875 -1.882812 1.710938 -1.921875 1.609375 -1.953125 C 1.515625 -1.984375 1.40625 -2 1.28125 -2 C 1.15625 -2 1.0625 -1.976562 1 -1.9375 C 0.945312 -1.90625 0.921875 -1.863281 0.921875 -1.8125 C 0.921875 -1.769531 0.9375 -1.734375 0.96875 -1.703125 C 1.007812 -1.679688 1.066406 -1.660156 1.140625 -1.640625 L 1.359375 -1.5625 C 1.617188 -1.476562 1.816406 -1.375 1.953125 -1.25 C 2.097656 -1.125 2.171875 -0.945312 2.171875 -0.71875 C 2.171875 -0.488281 2.078125 -0.300781 1.890625 -0.15625 C 1.703125 -0.0078125 1.425781 0.0625 1.0625 0.0625 C 0.9375 0.0625 0.816406 0.0507812 0.703125 0.03125 C 0.597656 0.0078125 0.503906 -0.015625 0.421875 -0.046875 C 0.335938 -0.0859375 0.273438 -0.140625 0.234375 -0.203125 C 0.191406 -0.265625 0.171875 -0.332031 0.171875 -0.40625 C 0.171875 -0.488281 0.191406 -0.554688 0.234375 -0.609375 C 0.285156 -0.671875 0.335938 -0.71875 0.390625 -0.75 C 0.460938 -0.6875 0.554688 -0.632812 0.671875 -0.59375 C 0.785156 -0.550781 0.910156 -0.53125 1.046875 -0.53125 C 1.179688 -0.53125 1.273438 -0.546875 1.328125 -0.578125 C 1.378906 -0.617188 1.40625 -0.671875 1.40625 -0.734375 C 1.40625 -0.785156 1.382812 -0.828125 1.34375 -0.859375 C 1.300781 -0.890625 1.238281 -0.914062 1.15625 -0.9375 Z M 0.984375 -1 "/></g></g></g></svg>