<svg xmlns="http://www.w3.org/2000/svg" xmlns:xlink="http://www.w3.org/1999/xlink" width="400" zoomAndPan="magnify" viewBox="0 0 300 299.999988" height="400" preserveAspectRatio="xMidYMid meet" version="1.0"><defs><g/><clipPath id="c90bb08c62"><path d="M 58.390625 72.5625 L 241.390625 72.5625 L 241.390625 163.957031 L 58.390625 163.957031 Z M 58.390625 72.5625 " clip-rule="nonzero"/></clipPath><clipPath id="0dcd11ebb0"><path d="M 96.050781 98.519531 L 191.300781 98.519531 L 191.300781 164.519531 L 96.050781 164.519531 Z M 96.050781 98.519531 " clip-rule="nonzero"/></clipPath><clipPath id="d92c9ffa52"><path d="M 176.414062 117.785156 L 247.558594 117.785156 L 247.558594 164.285156 L 176.414062 164.285156 Z M 176.414062 117.785156 " clip-rule="nonzero"/></clipPath><clipPath id="b140311ad7"><path d="M 144 91 L 170.566406 91 L 170.566406 117.988281 L 144 117.988281 Z M 144 91 " clip-rule="nonzero"/></clipPath></defs><g clip-path="url(#c90bb08c62)"><path fill="#feae11" d="M 241.3125 164.0625 C 241.3125 113.519531 200.355469 72.5625 149.8125 72.5625 C 99.269531 72.5625 58.46875 113.519531 58.46875 164.0625 Z M 241.3125 164.0625 " fill-opacity="1" fill-rule="nonzero"/></g><g clip-path="url(#0dcd11ebb0)"><path fill="#623d2b" d="M 112.921875 98.621094 C 112.21875 98.671875 111.574219 98.742188 111.488281 98.804688 C 111.402344 98.851562 110.988281 98.949219 110.574219 99 C 109.019531 99.230469 107.496094 99.875 106.109375 100.910156 C 105.671875 101.226562 105.089844 101.652344 104.808594 101.835938 C 104.3125 102.1875 104.128906 102.480469 103.984375 103.234375 C 103.933594 103.453125 103.582031 104.035156 103.179688 104.523438 C 102.523438 105.351562 102.363281 105.460938 101.085938 106.105469 C 100.332031 106.480469 99.628906 106.785156 99.519531 106.785156 C 99.421875 106.785156 99.261719 106.871094 99.179688 106.96875 C 99.09375 107.066406 98.8125 107.210938 98.535156 107.285156 C 98.265625 107.359375 97.839844 107.539062 97.585938 107.710938 C 97.328125 107.871094 97.039062 108.003906 96.941406 108.003906 C 96.855469 108.003906 96.648438 108.101562 96.488281 108.234375 C 96.136719 108.515625 96.113281 109.160156 96.441406 110.011719 C 96.5625 110.339844 96.78125 110.9375 96.914062 111.3125 C 97.0625 111.703125 97.257812 112.042969 97.355469 112.089844 C 98.289062 112.492188 100.808594 112.664062 102.390625 112.445312 C 103.070312 112.347656 103.691406 112.261719 103.777344 112.261719 C 104.007812 112.261719 103.945312 112.480469 103.667969 112.722656 C 103.519531 112.832031 103.339844 113.003906 103.253906 113.078125 C 103.15625 113.164062 103.035156 113.234375 102.972656 113.234375 C 102.753906 113.234375 101.429688 114.355469 101.269531 114.671875 C 101.171875 114.855469 100.894531 115.144531 100.625 115.328125 C 100.320312 115.546875 100.152344 115.765625 100.152344 115.925781 C 100.152344 116.15625 100.199219 116.179688 100.578125 116.117188 C 100.953125 116.058594 101.003906 116.082031 101.003906 116.324219 C 101.003906 117.214844 102.242188 118.042969 103.558594 118.027344 C 104.285156 118.027344 104.457031 117.96875 105.867188 117.226562 C 108.070312 116.070312 109.601562 115.558594 109.820312 115.914062 C 109.941406 116.09375 110.683594 116.058594 110.855469 115.851562 C 111.0625 115.609375 111.136719 115.621094 111.523438 115.984375 C 111.851562 116.289062 111.925781 116.300781 112.644531 116.226562 L 113.421875 116.144531 L 114.113281 116.765625 C 114.492188 117.09375 114.84375 117.371094 114.894531 117.371094 C 114.941406 117.371094 115.101562 117.601562 115.246094 117.882812 C 115.390625 118.175781 115.585938 118.457031 115.660156 118.527344 C 115.746094 118.589844 115.855469 118.84375 115.890625 119.074219 C 116.160156 120.511719 116.183594 120.828125 116.074219 121.132812 C 115.914062 121.546875 115.476562 123.601562 115.390625 124.34375 C 115.269531 125.367188 115.550781 126.339844 116.21875 127.253906 C 116.535156 127.703125 116.925781 128.296875 117.058594 128.578125 C 117.203125 128.847656 117.546875 129.394531 117.824219 129.78125 C 118.542969 130.792969 119.246094 132.046875 119.246094 132.3125 C 119.246094 132.738281 118.761719 133.664062 118.300781 134.140625 C 117.628906 134.808594 116.707031 135.585938 116.472656 135.683594 C 116.363281 135.722656 116.050781 135.925781 115.78125 136.121094 C 115.511719 136.328125 114.808594 136.765625 114.199219 137.109375 C 113.605469 137.449219 113.082031 137.753906 113.042969 137.800781 C 113.007812 137.835938 112.824219 137.960938 112.632812 138.058594 C 112.132812 138.3125 111.367188 139.226562 110.988281 140.003906 C 110.710938 140.613281 110.671875 140.792969 110.683594 142.132812 C 110.683594 143.363281 110.722656 143.652344 110.929688 143.957031 C 111.292969 144.554688 112.242188 145.722656 112.339844 145.722656 C 112.398438 145.722656 112.4375 145.796875 112.4375 145.894531 C 112.4375 145.988281 112.484375 146.085938 112.535156 146.113281 C 112.742188 146.195312 113.46875 147.546875 113.726562 148.300781 C 113.773438 148.421875 113.847656 148.519531 113.894531 148.519531 C 113.933594 148.519531 114.261719 148.777344 114.601562 149.09375 C 115.390625 149.847656 115.816406 150.164062 116.363281 150.417969 C 116.609375 150.539062 116.816406 150.675781 116.816406 150.734375 C 116.816406 150.785156 116.949219 150.832031 117.105469 150.832031 C 117.277344 150.832031 117.617188 150.953125 117.875 151.113281 C 118.273438 151.34375 118.542969 151.378906 119.855469 151.417969 C 120.976562 151.453125 121.4375 151.417969 121.59375 151.296875 C 121.839844 151.113281 122.070312 149.921875 121.921875 149.617188 C 121.800781 149.398438 121.386719 148.253906 121.230469 147.730469 C 121.144531 147.414062 121.058594 147.363281 120.671875 147.328125 C 120.425781 147.304688 120.222656 147.242188 120.222656 147.183594 C 120.222656 147.011719 119.246094 146.597656 119.003906 146.660156 C 118.847656 146.707031 118.761719 146.660156 118.761719 146.550781 C 118.761719 146.292969 118.054688 145.492188 117.640625 145.285156 C 117.460938 145.1875 117.300781 145.015625 117.300781 144.894531 C 117.300781 144.554688 116.707031 143.777344 116.449219 143.777344 C 116.304688 143.777344 116.183594 143.667969 116.132812 143.484375 C 116.011719 143.007812 116.121094 142.765625 116.5 142.667969 C 116.695312 142.609375 116.996094 142.425781 117.179688 142.253906 C 117.605469 141.839844 118.371094 141.464844 118.773438 141.464844 C 118.957031 141.464844 119.125 141.414062 119.152344 141.367188 C 119.175781 141.316406 119.625 141.148438 120.160156 140.988281 C 121.242188 140.683594 122.238281 140.332031 124.027344 139.625 C 124.671875 139.359375 125.355469 139.152344 125.511719 139.152344 C 125.683594 139.152344 125.816406 139.117188 125.816406 139.054688 C 125.816406 139.007812 126.144531 138.8125 126.558594 138.617188 C 126.960938 138.421875 127.324219 138.191406 127.359375 138.105469 C 127.445312 137.886719 127.761719 137.886719 127.761719 138.105469 C 127.761719 138.359375 127.519531 139.03125 127.09375 139.941406 C 126.875 140.40625 126.65625 140.929688 126.605469 141.097656 C 126.558594 141.257812 126.4375 141.464844 126.351562 141.5625 C 126.253906 141.644531 126.179688 141.816406 126.179688 141.9375 C 126.179688 142.046875 126.132812 142.195312 126.070312 142.253906 C 126.023438 142.328125 125.765625 142.851562 125.523438 143.421875 C 125.148438 144.324219 125.085938 144.601562 125.085938 145.394531 C 125.085938 146.125 125.148438 146.414062 125.355469 146.78125 C 125.5 147.035156 125.683594 147.28125 125.753906 147.328125 C 125.828125 147.378906 126.046875 147.65625 126.242188 147.960938 C 126.425781 148.253906 126.691406 148.519531 126.835938 148.558594 C 126.984375 148.59375 127.421875 148.753906 127.824219 148.921875 C 128.359375 149.140625 128.894531 149.25 129.804688 149.3125 C 130.488281 149.359375 131.046875 149.445312 131.046875 149.496094 C 131.046875 149.542969 131.386719 149.617188 131.8125 149.652344 C 132.226562 149.675781 133.101562 149.824219 133.769531 149.96875 C 134.429688 150.113281 135.390625 150.261719 135.898438 150.285156 C 136.410156 150.308594 136.980469 150.382812 137.164062 150.457031 C 137.359375 150.527344 137.640625 150.589844 137.808594 150.589844 C 137.96875 150.589844 138.101562 150.636719 138.101562 150.710938 C 138.101562 150.785156 138.660156 150.832031 139.535156 150.832031 L 140.960938 150.820312 L 141.179688 150.359375 C 141.457031 149.75 141.445312 148.800781 141.128906 147.972656 C 140.839844 147.183594 140.230469 146.453125 139.863281 146.453125 C 139.730469 146.453125 139.476562 146.378906 139.304688 146.28125 C 139.121094 146.195312 138.832031 146.125 138.636719 146.113281 C 138.453125 146.113281 138.273438 146.050781 138.246094 145.976562 C 138.1875 145.796875 137.652344 145.808594 137.566406 145.988281 C 137.503906 146.113281 137.480469 146.113281 137.421875 145.988281 C 137.335938 145.796875 137.042969 145.796875 136.980469 145.988281 C 136.945312 146.097656 136.871094 146.085938 136.714844 145.941406 C 136.445312 145.660156 135.59375 145.441406 135.195312 145.539062 C 134.671875 145.660156 134.207031 145.867188 134.207031 145.976562 C 134.207031 146.039062 133.988281 146.085938 133.722656 146.085938 C 133.453125 146.085938 133.234375 146.039062 133.234375 145.988281 C 133.234375 145.929688 132.933594 145.796875 132.566406 145.671875 C 132.203125 145.5625 131.898438 145.417969 131.898438 145.355469 C 131.898438 145.285156 132.457031 144.296875 133.152344 143.144531 C 133.84375 141.988281 134.574219 140.746094 134.757812 140.394531 C 134.949219 140.027344 135.265625 139.601562 135.460938 139.445312 C 135.800781 139.164062 135.863281 139.152344 137.917969 139.152344 C 139.074219 139.152344 140.046875 139.101562 140.070312 139.042969 C 140.15625 138.800781 145.132812 137.949219 146.46875 137.933594 C 146.882812 137.933594 147.222656 137.886719 147.222656 137.8125 C 147.222656 137.742188 147.578125 137.691406 148.050781 137.691406 C 148.574219 137.691406 149.207031 137.582031 149.839844 137.386719 C 150.375 137.21875 150.945312 137.082031 151.117188 137.082031 C 151.285156 137.082031 151.578125 137 151.761719 136.902344 C 151.957031 136.804688 152.527344 136.65625 153.039062 136.585938 C 153.550781 136.511719 154.277344 136.414062 154.644531 136.351562 C 155.007812 136.292969 155.519531 136.242188 155.773438 136.242188 L 156.226562 136.230469 L 156.226562 136.839844 C 156.226562 137.667969 157.417969 140.636719 158 141.28125 C 158.132812 141.425781 158.414062 141.890625 158.621094 142.316406 C 158.839844 142.753906 159.375 143.484375 159.8125 143.945312 C 160.25 144.410156 160.605469 144.835938 160.605469 144.882812 C 160.605469 144.945312 160.675781 144.992188 160.761719 144.992188 C 160.90625 144.992188 161.820312 145.769531 161.820312 145.90625 C 161.820312 146.074219 162.597656 146.9375 162.757812 146.9375 C 162.839844 146.9375 162.914062 147 162.914062 147.074219 C 162.914062 147.144531 163.144531 147.414062 163.425781 147.65625 C 163.707031 147.898438 164.035156 148.179688 164.144531 148.300781 C 164.253906 148.410156 164.460938 148.53125 164.59375 148.570312 C 164.824219 148.644531 166.5625 150.308594 166.941406 150.820312 C 167.050781 150.964844 167.207031 151.308594 167.304688 151.597656 C 167.390625 151.878906 167.5 152.132812 167.535156 152.171875 C 167.574219 152.207031 167.707031 152.546875 167.816406 152.9375 C 168.035156 153.632812 168.011719 154.277344 167.769531 154.421875 C 167.707031 154.472656 167.660156 154.652344 167.660156 154.859375 C 167.660156 155.054688 167.609375 155.214844 167.535156 155.214844 C 167.476562 155.214844 167.414062 155.273438 167.414062 155.347656 C 167.414062 155.492188 166.683594 156.601562 166.539062 156.648438 C 166.492188 156.671875 166.441406 156.734375 166.441406 156.792969 C 166.441406 156.929688 164.082031 159.300781 163.691406 159.558594 C 163.460938 159.703125 163.023438 159.777344 162.050781 159.8125 C 161.320312 159.847656 160.726562 159.910156 160.726562 159.957031 C 160.726562 160.019531 160.519531 160.09375 160.261719 160.140625 C 159.933594 160.191406 159.59375 160.410156 159.046875 160.917969 C 158.390625 161.527344 158.292969 161.675781 158.292969 162.0625 C 158.292969 162.367188 158.230469 162.511719 158.121094 162.511719 C 157.914062 162.511719 157.320312 163.195312 157.320312 163.4375 C 157.320312 163.535156 157.417969 163.65625 157.539062 163.695312 C 157.648438 163.742188 157.816406 163.875 157.902344 163.984375 C 157.988281 164.105469 158.292969 164.242188 158.585938 164.277344 C 160.152344 164.519531 166.285156 164.191406 166.929688 163.839844 C 167.609375 163.460938 167.816406 163.171875 167.753906 162.660156 C 167.695312 162.246094 167.742188 162.125 168.097656 161.734375 C 168.316406 161.492188 168.546875 161.296875 168.605469 161.296875 C 168.679688 161.296875 168.765625 161.152344 168.800781 160.980469 C 168.851562 160.808594 169.507812 160.042969 170.273438 159.277344 C 171.039062 158.5 171.671875 157.804688 171.671875 157.730469 C 171.671875 157.660156 171.902344 157.367188 172.195312 157.097656 C 172.476562 156.832031 172.828125 156.355469 172.972656 156.039062 C 173.132812 155.710938 173.300781 155.457031 173.375 155.457031 C 173.4375 155.457031 173.496094 155.371094 173.496094 155.273438 C 173.496094 155.019531 174.226562 153.605469 174.496094 153.339844 C 174.714844 153.144531 174.726562 152.988281 174.675781 151.832031 L 174.617188 150.527344 L 174.054688 150.003906 C 173.753906 149.714844 173.496094 149.433594 173.496094 149.359375 C 173.496094 149.300781 173.277344 149.019531 173.011719 148.753906 C 172.742188 148.472656 172.523438 148.191406 172.523438 148.132812 C 172.523438 148.070312 172.339844 147.851562 172.121094 147.632812 C 171.683594 147.21875 171.1875 146.171875 171.1875 145.671875 C 171.1875 145.503906 171.078125 145.273438 170.953125 145.152344 C 170.820312 145.027344 170.613281 144.601562 170.480469 144.203125 C 170.273438 143.570312 170.261719 143.300781 170.347656 142.132812 C 170.445312 140.832031 170.699219 139.871094 171.027344 139.542969 C 171.113281 139.457031 171.1875 139.296875 171.1875 139.210938 C 171.1875 139.054688 171.613281 138.324219 171.914062 137.972656 C 171.976562 137.886719 172.039062 137.765625 172.039062 137.691406 C 172.039062 137.617188 172.121094 137.472656 172.21875 137.375 C 172.316406 137.265625 172.402344 137.058594 172.402344 136.902344 C 172.402344 136.742188 172.574219 136.257812 172.765625 135.804688 C 172.972656 135.355469 173.132812 134.917969 173.132812 134.820312 C 173.132812 134.722656 173.21875 134.613281 173.316406 134.578125 C 173.410156 134.527344 173.496094 134.429688 173.496094 134.332031 C 173.496094 134.234375 173.628906 133.957031 173.789062 133.699219 C 173.933594 133.457031 174.105469 133.128906 174.152344 132.984375 C 174.203125 132.824219 174.324219 132.628906 174.410156 132.53125 C 174.726562 132.214844 174.859375 129.84375 174.699219 127.53125 C 174.628906 126.386719 174.519531 125.425781 174.457031 125.390625 C 174.398438 125.355469 174.3125 125.050781 174.261719 124.710938 C 174.203125 124.175781 174.226562 124.050781 174.457031 123.871094 C 174.589844 123.746094 174.714844 123.578125 174.714844 123.503906 C 174.714844 123.417969 174.894531 123.210938 175.125 123.03125 C 175.359375 122.847656 175.808594 122.457031 176.136719 122.167969 C 176.453125 121.875 176.792969 121.628906 176.878906 121.628906 C 176.953125 121.628906 177.023438 121.582031 177.023438 121.519531 C 177.023438 121.425781 178.253906 120.390625 178.921875 119.925781 C 179.066406 119.828125 179.421875 119.441406 179.710938 119.074219 C 180.296875 118.332031 180.636719 117.992188 181.757812 117.007812 C 182.183594 116.640625 182.753906 116.117188 183.03125 115.839844 C 183.324219 115.558594 183.640625 115.292969 183.738281 115.230469 C 183.847656 115.171875 184.101562 114.914062 184.296875 114.660156 C 184.882812 113.929688 186.355469 112.664062 186.972656 112.371094 C 187.289062 112.214844 187.617188 112.019531 187.703125 111.933594 C 187.789062 111.847656 187.945312 111.773438 188.042969 111.773438 C 188.214844 111.773438 189.285156 111.226562 190.34375 110.605469 C 190.878906 110.304688 191.253906 109.804688 191.253906 109.402344 C 191.253906 109.28125 191.132812 109.21875 190.867188 109.21875 C 190.648438 109.21875 190.160156 109.109375 189.785156 108.988281 C 189.089844 108.757812 188.3125 108.792969 187.667969 109.085938 C 187.535156 109.148438 187.070312 109.269531 186.632812 109.355469 C 185.855469 109.5 184.433594 110.070312 184.078125 110.375 C 183.980469 110.460938 183.714844 110.582031 183.507812 110.65625 C 183.082031 110.800781 182.292969 111.347656 182.058594 111.652344 C 181.976562 111.75 181.609375 112.152344 181.234375 112.542969 C 180.855469 112.941406 180.550781 113.332031 180.550781 113.429688 C 180.550781 113.527344 180.480469 113.601562 180.394531 113.601562 C 180.308594 113.601562 180.039062 113.796875 179.808594 114.039062 C 179.421875 114.441406 178.070312 115.425781 177.886719 115.425781 C 177.777344 115.425781 177.351562 115.914062 177.097656 116.300781 C 176.976562 116.496094 176.804688 116.640625 176.71875 116.640625 C 176.621094 116.640625 176.367188 116.824219 176.136719 117.03125 C 175.589844 117.542969 175.382812 117.6875 174.75 117.980469 C 173.984375 118.34375 171.792969 118.953125 171.246094 118.953125 C 170.359375 118.941406 168.714844 118.492188 167.234375 117.859375 C 164.117188 116.496094 160.824219 115.65625 157.441406 115.328125 C 155.519531 115.144531 150.179688 115.171875 147.527344 115.375 C 144.609375 115.609375 143.695312 115.546875 142.648438 115.058594 C 141.703125 114.621094 140.730469 114.332031 140.242188 114.332031 C 139.839844 114.332031 138.039062 113.683594 137.734375 113.429688 C 137.175781 112.96875 136.53125 112.722656 135.621094 112.625 C 134.074219 112.457031 133.578125 112.335938 133.054688 111.980469 C 132.738281 111.773438 132.285156 111.617188 131.738281 111.542969 C 131.179688 111.472656 130.667969 111.289062 130.160156 110.996094 C 129.234375 110.484375 127.859375 109.136719 127.371094 108.28125 C 127.03125 107.675781 126.667969 107.273438 124.695312 105.253906 L 123.84375 104.378906 L 124.394531 104 C 124.78125 103.734375 125.085938 103.621094 125.425781 103.621094 C 126.167969 103.621094 126.300781 103.539062 126.300781 103.027344 C 126.300781 102.785156 126.253906 102.527344 126.191406 102.453125 C 126.070312 102.320312 125.816406 101.042969 125.816406 100.519531 C 125.816406 100.300781 125.71875 100.046875 125.597656 99.9375 C 125.367188 99.71875 124.355469 99.484375 123.675781 99.484375 C 123.417969 99.484375 123.214844 99.402344 123.117188 99.265625 C 122.8125 98.839844 122.445312 98.730469 121.425781 98.804688 C 120.890625 98.839844 120.355469 98.925781 120.222656 99 C 119.890625 99.167969 119.625 99.15625 118.761719 98.878906 C 117.847656 98.585938 117.179688 98.574219 116.695312 98.816406 C 116.378906 98.988281 116.28125 98.988281 116 98.828125 C 115.539062 98.597656 114.457031 98.523438 112.921875 98.621094 Z M 136.652344 120.132812 C 136.554688 120.316406 136.53125 120.316406 136.519531 120.160156 C 136.519531 119.953125 136.640625 119.769531 136.738281 119.855469 C 136.761719 119.890625 136.726562 120.011719 136.652344 120.132812 Z M 136.652344 120.132812 " fill-opacity="1" fill-rule="nonzero"/></g><g clip-path="url(#d92c9ffa52)"><path fill="#623d2b" d="M 179.472656 130.675781 C 179.378906 130.484375 179.308594 129.941406 179.128906 129.757812 C 178.648438 129.578125 178.25 129.238281 177.757812 129.082031 C 177.402344 128.96875 176.917969 128.84375 176.707031 128.496094 C 176.417969 128.03125 176.648438 127.46875 177.054688 127.3125 C 177.027344 127.292969 177.003906 127.265625 176.984375 127.230469 C 176.699219 126.714844 176.78125 125.75 177.515625 125.710938 C 177.550781 125.710938 177.582031 125.714844 177.613281 125.722656 C 177.640625 125.714844 177.671875 125.710938 177.707031 125.710938 C 177.90625 125.722656 177.976562 125.378906 178.078125 125.234375 C 178.21875 125.042969 178.394531 124.992188 178.617188 124.964844 C 178.941406 124.925781 179.394531 124.996094 179.683594 125.214844 C 179.703125 125.207031 179.722656 125.203125 179.746094 125.199219 C 180.507812 125.144531 181.425781 125.613281 181.707031 126.339844 C 181.71875 126.371094 181.722656 126.398438 181.722656 126.421875 C 182.082031 127.09375 182.675781 127.761719 183.117188 128.359375 C 183.683594 129.121094 184.25 129.863281 184.734375 130.6875 C 185.207031 131.5 185.542969 132.386719 185.953125 133.230469 C 186.09375 133.519531 186.265625 133.792969 186.441406 134.0625 C 186.699219 133.832031 187 133.042969 187.085938 132.867188 C 187.285156 132.480469 187.507812 131.957031 187.914062 131.738281 C 187.925781 131.730469 187.941406 131.726562 187.957031 131.722656 C 188.230469 131.066406 188.8125 130.589844 189.339844 130.136719 C 189.726562 129.808594 190.035156 129.386719 190.371094 129.011719 C 190.746094 128.59375 191.1875 128.273438 191.527344 127.820312 C 192.273438 126.816406 192.390625 125.8125 192.164062 124.605469 C 192.074219 124.113281 191.953125 123.578125 191.75 123.121094 C 191.59375 122.765625 191.375 122.464844 191.265625 122.089844 C 191.078125 121.460938 191.59375 120.738281 191.945312 120.277344 C 192.746094 119.214844 193.933594 119.113281 194.980469 119.675781 C 195.007812 119.640625 195.054688 119.613281 195.113281 119.597656 C 196.167969 119.355469 197.03125 119.144531 198.105469 119.402344 C 198.199219 119.425781 198.289062 119.449219 198.382812 119.476562 C 198.394531 119.460938 198.414062 119.445312 198.433594 119.429688 C 198.847656 119.15625 199.414062 118.539062 199.53125 118.046875 C 199.570312 117.875 199.824219 117.796875 199.941406 117.9375 C 200.453125 118.539062 200.105469 119.457031 200.078125 120.15625 C 200.078125 120.15625 200.078125 120.160156 200.078125 120.164062 C 200.410156 120.339844 200.726562 120.535156 201.027344 120.75 C 201.4375 120.128906 202.28125 119.59375 202.8125 119.167969 C 203.492188 118.628906 204.1875 118.324219 204.53125 119.285156 C 204.851562 120.1875 204.410156 121.386719 204.03125 122.203125 C 203.957031 122.367188 203.871094 122.523438 203.777344 122.667969 C 203.816406 122.707031 203.839844 122.761719 203.839844 122.832031 C 203.839844 124.097656 203.839844 125.363281 203.855469 126.628906 C 203.875 127.765625 203.304688 128.667969 202.988281 129.726562 C 202.847656 130.195312 202.625 130.644531 202.441406 131.101562 C 202.203125 131.707031 202.191406 132.34375 202.226562 132.984375 C 202.238281 133.226562 202.273438 133.464844 202.324219 133.699219 C 202.34375 133.726562 202.359375 133.757812 202.367188 133.800781 C 202.449219 134.273438 203.230469 134.582031 203.609375 134.78125 C 204.121094 135.046875 204.632812 135.285156 205.113281 135.613281 C 206.421875 136.507812 207.8125 137.226562 209.160156 138.0625 C 211.664062 139.613281 214.253906 141.460938 216.03125 143.847656 C 217.835938 146.277344 218.78125 149.160156 219.804688 151.972656 C 220.398438 153.59375 221.019531 155.035156 222.207031 156.320312 C 222.691406 156.847656 223.292969 157.25 223.925781 157.582031 C 224.4375 157.847656 225.144531 158.113281 225.800781 158.234375 C 225.839844 158.191406 225.898438 158.167969 225.976562 158.171875 C 229.082031 158.402344 232.109375 158.210938 235 156.980469 C 236.292969 156.433594 237.578125 155.957031 238.816406 155.289062 C 239.351562 154.996094 239.871094 154.738281 240.445312 154.53125 C 241.167969 154.269531 241.753906 153.742188 242.445312 153.410156 C 243.800781 152.757812 247.242188 151.710938 247.554688 154.101562 C 247.664062 154.925781 246.96875 155.78125 246.429688 156.3125 C 245.605469 157.117188 244.382812 157.382812 243.320312 157.703125 C 243.238281 157.726562 243.171875 157.710938 243.121094 157.671875 C 242.199219 157.816406 241.292969 158.570312 240.492188 159.003906 C 239.453125 159.570312 238.398438 160.125 237.320312 160.625 C 235.277344 161.574219 232.992188 161.980469 230.769531 162.25 C 228.492188 162.527344 226.046875 162.710938 223.765625 162.378906 C 222.769531 162.230469 221.851562 161.941406 220.90625 161.605469 C 220.355469 161.414062 219.789062 161.195312 219.367188 160.789062 C 218.847656 161.148438 218.058594 161.167969 217.496094 161.433594 C 217.65625 162.015625 217.683594 162.601562 217.347656 163.195312 C 216.902344 163.988281 215.871094 164.105469 215.0625 164.121094 C 213.769531 164.140625 212.453125 163.941406 211.160156 163.898438 C 210.621094 163.882812 210.105469 163.953125 209.601562 163.980469 C 209.535156 164.046875 209.4375 164.066406 209.335938 163.988281 C 209.007812 163.996094 208.6875 163.972656 208.363281 163.886719 C 208.28125 163.910156 208.1875 163.894531 208.121094 163.808594 C 208.007812 163.765625 207.890625 163.714844 207.773438 163.652344 C 207.648438 163.582031 207.539062 163.5 207.441406 163.410156 C 207.390625 163.457031 207.316406 163.476562 207.226562 163.441406 C 206.296875 163.089844 205.222656 163.695312 204.261719 163.699219 C 203.335938 163.699219 202.871094 162.875 202.890625 162.023438 C 202.910156 161.257812 203.496094 160.921875 204.25 160.792969 C 204.207031 160.773438 204.160156 160.757812 204.117188 160.742188 C 203.601562 160.566406 203.089844 160.488281 202.59375 160.242188 C 202 159.949219 201.578125 159.394531 201.167969 158.894531 C 200.457031 158.03125 199.742188 156.976562 199.742188 155.820312 C 199.746094 155.257812 199.945312 154.675781 200.414062 154.449219 C 199.519531 154.019531 198.714844 153.535156 197.921875 152.902344 C 197.195312 152.324219 196.402344 151.78125 195.867188 151.015625 C 195.535156 151.867188 195.265625 152.789062 194.746094 153.542969 C 194.402344 154.042969 194.066406 154.546875 193.730469 155.054688 C 192.933594 156.253906 192.117188 157.453125 191.378906 158.691406 C 190.851562 159.574219 191.109375 161.257812 190.074219 161.785156 C 190.367188 162.316406 190.472656 162.953125 190.246094 163.535156 C 189.988281 164.195312 189.191406 164.1875 188.722656 163.792969 C 188.710938 163.808594 188.707031 163.824219 188.695312 163.839844 C 188.515625 164.117188 188.152344 164.234375 187.839844 164.25 C 187.371094 164.269531 186.976562 163.980469 186.757812 163.59375 C 186.679688 163.671875 186.597656 163.746094 186.503906 163.808594 C 185.960938 164.171875 185.507812 163.679688 185.3125 163.203125 C 184.929688 162.273438 185.515625 161.550781 186.296875 161.164062 C 186.582031 160.617188 186.636719 160.015625 186.828125 159.425781 C 187.070312 158.675781 187.316406 157.925781 187.609375 157.191406 C 187.988281 156.238281 188.246094 155.296875 188.460938 154.296875 C 188.652344 153.410156 188.839844 152.523438 189.035156 151.640625 C 189.152344 151.128906 189.210938 150.464844 189.480469 150.003906 C 189.496094 149.980469 189.515625 149.957031 189.535156 149.941406 C 189.734375 149.105469 189.789062 148.226562 189.640625 147.382812 C 189.476562 146.449219 188.917969 145.609375 188.628906 144.710938 C 188.628906 144.710938 188.628906 144.710938 188.628906 144.707031 C 188.160156 144.859375 187.484375 144.800781 187.148438 144.722656 C 185.222656 144.28125 184.507812 142.511719 183.765625 140.886719 C 183.359375 139.988281 182.742188 139.214844 182.316406 138.328125 C 181.878906 137.417969 181.75 136.289062 181.582031 135.304688 C 181.476562 134.671875 181.355469 134.125 181.039062 133.558594 C 180.777344 133.082031 180.445312 132.652344 180.191406 132.167969 C 179.933594 131.679688 179.714844 131.171875 179.472656 130.675781 " fill-opacity="1" fill-rule="nonzero"/></g><path fill="#623d2b" d="M 108.992188 157.179688 C 108.992188 157.179688 109.972656 150.152344 104.339844 143.460938 C 98.707031 136.773438 93.792969 140.078125 93.792969 140.078125 C 93.792969 140.078125 91.828125 137.355469 92.417969 135.867188 C 93.007812 134.375 95.429688 132.171875 95.757812 129.582031 C 96.085938 126.992188 97.59375 123.554688 96.152344 123.492188 C 94.710938 123.425781 92.023438 131.65625 92.023438 131.65625 C 92.023438 131.65625 97.066406 117.789062 91.042969 125.433594 C 88.726562 128.371094 87.960938 132.820312 87.960938 132.820312 C 87.960938 132.820312 85.800781 133.339844 85.539062 133.921875 C 85.277344 134.503906 82.460938 135.347656 80.820312 137.746094 C 79.183594 140.140625 78.921875 140.917969 79.445312 141.890625 C 79.96875 142.863281 82 145.128906 83.507812 144.613281 L 84.226562 145.585938 C 84.226562 145.585938 82.527344 151.804688 88.488281 156.597656 C 88.488281 156.597656 89.339844 159.1875 88.945312 160.226562 C 88.550781 161.261719 87.175781 161.976562 87.175781 162.621094 C 87.175781 163.269531 88.683594 163.917969 90.191406 163.59375 C 91.695312 163.269531 90.976562 163.679688 90.976562 163.679688 C 90.976562 163.679688 95.628906 163.722656 96.214844 163.402344 C 96.804688 163.078125 96.804688 162.105469 96.804688 162.105469 C 96.804688 162.105469 97.789062 163.335938 98.117188 163.207031 C 98.445312 163.078125 103.617188 164.289062 104.144531 163.683594 C 104.667969 163.078125 105.910156 163.402344 105.910156 163.402344 C 105.910156 163.402344 107.550781 161.328125 108.074219 160.289062 C 108.597656 159.253906 108.875 161.78125 111.019531 160.484375 C 113.167969 159.1875 113.378906 154.460938 108.992188 157.179688 " fill-opacity="1" fill-rule="nonzero"/><g clip-path="url(#b140311ad7)"><path fill="#623d2b" d="M 154.042969 115.609375 L 151.863281 115.828125 L 151.265625 114.949219 L 154.652344 110.84375 C 154.96875 110.988281 155.269531 111.125 155.550781 111.253906 Z M 149.007812 93.8125 C 149.007812 94.476562 148.007812 94.476562 148.007812 93.8125 C 148.007812 93.140625 149.007812 93.140625 149.007812 93.8125 Z M 170.574219 114.429688 L 169.253906 113.839844 C 169.203125 113.816406 164.25 111.554688 161.214844 106.058594 C 158.457031 101.066406 153.933594 101.519531 152.574219 97.269531 C 151.824219 94.9375 152.296875 94.570312 154.5625 92.8125 C 153.851562 92.410156 153.054688 92.066406 152.199219 92.308594 C 150.527344 90.296875 148.0625 90.835938 146.515625 92.511719 C 144.363281 94.851562 143.550781 101.335938 146.378906 105.570312 C 148.242188 108.367188 150.566406 109.003906 154.160156 110.621094 L 150.777344 114.726562 L 147.574219 116.550781 C 147.34375 116.683594 147.4375 117.042969 147.703125 117.042969 C 147.8125 117.042969 150.765625 115.332031 150.863281 115.277344 C 152.347656 117.480469 152.386719 117.691406 152.671875 117.496094 C 152.949219 117.304688 152.699219 117.066406 152.195312 116.320312 L 154.152344 116.125 C 156.03125 117.726562 156.140625 117.941406 156.367188 117.671875 C 156.59375 117.402344 156.359375 117.320312 154.539062 115.769531 L 156.027344 111.472656 C 158.019531 112.390625 159.503906 113.089844 160.511719 113.699219 C 160.503906 113.332031 160.519531 112.464844 160.25 111.101562 C 161.574219 112.125 164.753906 114.074219 169.132812 114.34375 L 170.574219 114.429688 " fill-opacity="1" fill-rule="nonzero"/></g><g fill="#4bad20" fill-opacity="1"><g transform="translate(34.775965, 197.754148)"><g><path d="M 9.265625 -9.421875 C 8.117188 -9.816406 7.078125 -10.210938 6.140625 -10.609375 C 5.203125 -11.015625 4.394531 -11.503906 3.71875 -12.078125 C 3.039062 -12.648438 2.507812 -13.332031 2.125 -14.125 C 1.75 -14.925781 1.5625 -15.898438 1.5625 -17.046875 C 1.5625 -19.265625 2.414062 -21.035156 4.125 -22.359375 C 5.832031 -23.691406 8.222656 -24.359375 11.296875 -24.359375 C 12.421875 -24.359375 13.460938 -24.28125 14.421875 -24.125 C 15.390625 -23.96875 16.21875 -23.722656 16.90625 -23.390625 C 17.59375 -23.066406 18.128906 -22.648438 18.515625 -22.140625 C 18.910156 -21.640625 19.109375 -21.050781 19.109375 -20.375 C 19.109375 -19.6875 18.953125 -19.101562 18.640625 -18.625 C 18.328125 -18.144531 17.953125 -17.734375 17.515625 -17.390625 C 16.941406 -17.753906 16.171875 -18.070312 15.203125 -18.34375 C 14.242188 -18.625 13.191406 -18.765625 12.046875 -18.765625 C 10.867188 -18.765625 10.003906 -18.597656 9.453125 -18.265625 C 8.910156 -17.941406 8.640625 -17.535156 8.640625 -17.046875 C 8.640625 -16.648438 8.804688 -16.328125 9.140625 -16.078125 C 9.484375 -15.835938 9.992188 -15.613281 10.671875 -15.40625 L 12.75 -14.734375 C 15.195312 -13.953125 17.078125 -12.957031 18.390625 -11.75 C 19.710938 -10.539062 20.375 -8.890625 20.375 -6.796875 C 20.375 -4.585938 19.5 -2.796875 17.75 -1.421875 C 16 -0.0546875 13.429688 0.625 10.046875 0.625 C 8.847656 0.625 7.734375 0.523438 6.703125 0.328125 C 5.671875 0.140625 4.769531 -0.140625 4 -0.515625 C 3.238281 -0.898438 2.640625 -1.375 2.203125 -1.9375 C 1.773438 -2.5 1.5625 -3.144531 1.5625 -3.875 C 1.5625 -4.625 1.78125 -5.265625 2.21875 -5.796875 C 2.664062 -6.335938 3.148438 -6.75 3.671875 -7.03125 C 4.398438 -6.457031 5.289062 -5.960938 6.34375 -5.546875 C 7.40625 -5.128906 8.5625 -4.921875 9.8125 -4.921875 C 11.09375 -4.921875 11.992188 -5.113281 12.515625 -5.5 C 13.035156 -5.894531 13.296875 -6.351562 13.296875 -6.875 C 13.296875 -7.394531 13.085938 -7.789062 12.671875 -8.0625 C 12.253906 -8.34375 11.664062 -8.613281 10.90625 -8.875 Z M 9.265625 -9.421875 "/></g></g></g><g fill="#4bad20" fill-opacity="1"><g transform="translate(56.310968, 197.754148)"><g><path d="M 7.578125 -22.984375 C 8.023438 -23.242188 8.695312 -23.488281 9.59375 -23.71875 C 10.5 -23.957031 11.40625 -24.078125 12.3125 -24.078125 C 13.613281 -24.078125 14.765625 -23.890625 15.765625 -23.515625 C 16.773438 -23.140625 17.421875 -22.546875 17.703125 -21.734375 C 18.171875 -20.378906 18.679688 -18.800781 19.234375 -17 C 19.785156 -15.207031 20.332031 -13.351562 20.875 -11.4375 C 21.425781 -9.519531 21.960938 -7.628906 22.484375 -5.765625 C 23.003906 -3.898438 23.457031 -2.253906 23.84375 -0.828125 C 23.53125 -0.460938 23.0625 -0.171875 22.4375 0.046875 C 21.8125 0.273438 21.070312 0.390625 20.21875 0.390625 C 19.582031 0.390625 19.050781 0.335938 18.625 0.234375 C 18.195312 0.128906 17.84375 -0.0234375 17.5625 -0.234375 C 17.289062 -0.441406 17.070312 -0.710938 16.90625 -1.046875 C 16.738281 -1.390625 16.585938 -1.785156 16.453125 -2.234375 L 15.75 -4.921875 L 8.671875 -4.921875 C 8.460938 -4.140625 8.253906 -3.332031 8.046875 -2.5 C 7.835938 -1.664062 7.628906 -0.859375 7.421875 -0.078125 C 7.054688 0.0546875 6.671875 0.164062 6.265625 0.25 C 5.867188 0.34375 5.382812 0.390625 4.8125 0.390625 C 3.476562 0.390625 2.492188 0.160156 1.859375 -0.296875 C 1.222656 -0.753906 0.90625 -1.382812 0.90625 -2.1875 C 0.90625 -2.550781 0.957031 -2.914062 1.0625 -3.28125 C 1.164062 -3.644531 1.28125 -4.078125 1.40625 -4.578125 C 1.59375 -5.273438 1.847656 -6.144531 2.171875 -7.1875 C 2.492188 -8.226562 2.847656 -9.351562 3.234375 -10.5625 C 3.628906 -11.78125 4.046875 -13.023438 4.484375 -14.296875 C 4.929688 -15.578125 5.347656 -16.785156 5.734375 -17.921875 C 6.128906 -19.054688 6.488281 -20.066406 6.8125 -20.953125 C 7.144531 -21.835938 7.398438 -22.515625 7.578125 -22.984375 Z M 12.28125 -17.9375 C 11.914062 -16.84375 11.503906 -15.625 11.046875 -14.28125 C 10.585938 -12.945312 10.175781 -11.585938 9.8125 -10.203125 L 14.65625 -10.203125 C 14.289062 -11.609375 13.921875 -12.984375 13.546875 -14.328125 C 13.171875 -15.671875 12.828125 -16.875 12.515625 -17.9375 Z M 12.28125 -17.9375 "/></g></g></g><g fill="#4bad20" fill-opacity="1"><g transform="translate(80.816324, 197.754148)"><g><path d="M 16.734375 -0.78125 C 16.367188 -0.46875 15.800781 -0.195312 15.03125 0.03125 C 14.257812 0.269531 13.421875 0.390625 12.515625 0.390625 C 11.421875 0.390625 10.476562 0.226562 9.6875 -0.09375 C 8.90625 -0.425781 8.375 -0.878906 8.09375 -1.453125 C 7.800781 -2.046875 7.445312 -2.816406 7.03125 -3.765625 C 6.613281 -4.722656 6.175781 -5.785156 5.71875 -6.953125 C 5.269531 -8.128906 4.800781 -9.375 4.3125 -10.6875 C 3.832031 -12.007812 3.367188 -13.347656 2.921875 -14.703125 C 2.484375 -16.054688 2.066406 -17.382812 1.671875 -18.6875 C 1.285156 -19.988281 0.953125 -21.210938 0.671875 -22.359375 C 1.035156 -22.722656 1.5625 -23.054688 2.25 -23.359375 C 2.9375 -23.660156 3.671875 -23.8125 4.453125 -23.8125 C 5.421875 -23.8125 6.207031 -23.609375 6.8125 -23.203125 C 7.425781 -22.796875 7.878906 -22.046875 8.171875 -20.953125 C 8.867188 -18.398438 9.578125 -15.957031 10.296875 -13.625 C 11.015625 -11.289062 11.765625 -8.859375 12.546875 -6.328125 L 12.78125 -6.328125 C 13.488281 -8.785156 14.210938 -11.457031 14.953125 -14.34375 C 15.691406 -17.238281 16.398438 -20.117188 17.078125 -22.984375 C 17.546875 -23.222656 18.046875 -23.421875 18.578125 -23.578125 C 19.117188 -23.734375 19.726562 -23.8125 20.40625 -23.8125 C 21.375 -23.8125 22.195312 -23.59375 22.875 -23.15625 C 23.550781 -22.726562 23.890625 -22.019531 23.890625 -21.03125 C 23.890625 -20.457031 23.75 -19.625 23.46875 -18.53125 C 23.195312 -17.4375 22.847656 -16.203125 22.421875 -14.828125 C 21.992188 -13.460938 21.507812 -12.035156 20.96875 -10.546875 C 20.4375 -9.066406 19.898438 -7.664062 19.359375 -6.34375 C 18.828125 -5.03125 18.328125 -3.875 17.859375 -2.875 C 17.390625 -1.875 17.015625 -1.175781 16.734375 -0.78125 Z M 16.734375 -0.78125 "/></g></g></g><g fill="#4bad20" fill-opacity="1"><g transform="translate(105.595262, 197.754148)"><g><path d="M 9.375 -0.15625 C 9.09375 -0.0820312 8.644531 -0.00390625 8.03125 0.078125 C 7.414062 0.160156 6.8125 0.203125 6.21875 0.203125 C 5.613281 0.203125 5.082031 0.15625 4.625 0.0625 C 4.175781 -0.03125 3.796875 -0.191406 3.484375 -0.421875 C 3.171875 -0.660156 2.9375 -0.988281 2.78125 -1.40625 C 2.625 -1.820312 2.546875 -2.367188 2.546875 -3.046875 L 2.546875 -23.6875 C 2.828125 -23.738281 3.28125 -23.8125 3.90625 -23.90625 C 4.53125 -24 5.128906 -24.046875 5.703125 -24.046875 C 6.304688 -24.046875 6.832031 -24 7.28125 -23.90625 C 7.738281 -23.8125 8.125 -23.644531 8.4375 -23.40625 C 8.75 -23.175781 8.984375 -22.851562 9.140625 -22.4375 C 9.296875 -22.019531 9.375 -21.472656 9.375 -20.796875 Z M 9.375 -0.15625 "/></g></g></g><g fill="#4bad20" fill-opacity="1"><g transform="translate(117.515732, 197.754148)"><g><path d="M 24 -0.828125 C 23.632812 -0.460938 23.109375 -0.179688 22.421875 0.015625 C 21.734375 0.210938 20.90625 0.3125 19.9375 0.3125 C 18.96875 0.3125 18.050781 0.171875 17.1875 -0.109375 C 16.332031 -0.398438 15.632812 -1.09375 15.09375 -2.1875 L 11.21875 -10.09375 C 10.832031 -10.894531 10.476562 -11.65625 10.15625 -12.375 C 9.84375 -13.09375 9.503906 -13.921875 9.140625 -14.859375 L 8.90625 -14.8125 C 9.007812 -13.40625 9.066406 -11.972656 9.078125 -10.515625 C 9.097656 -9.054688 9.109375 -7.625 9.109375 -6.21875 L 9.109375 -0.15625 C 8.816406 -0.0820312 8.378906 -0.00390625 7.796875 0.078125 C 7.210938 0.160156 6.632812 0.203125 6.0625 0.203125 C 5.488281 0.203125 4.976562 0.160156 4.53125 0.078125 C 4.09375 -0.00390625 3.726562 -0.160156 3.4375 -0.390625 C 3.15625 -0.628906 2.9375 -0.945312 2.78125 -1.34375 C 2.625 -1.75 2.546875 -2.28125 2.546875 -2.9375 L 2.546875 -22.484375 C 2.910156 -23.003906 3.46875 -23.394531 4.21875 -23.65625 C 4.976562 -23.914062 5.785156 -24.046875 6.640625 -24.046875 C 7.609375 -24.046875 8.53125 -23.894531 9.40625 -23.59375 C 10.28125 -23.289062 10.976562 -22.609375 11.5 -21.546875 L 15.40625 -13.640625 C 15.789062 -12.835938 16.140625 -12.078125 16.453125 -11.359375 C 16.765625 -10.640625 17.101562 -9.8125 17.46875 -8.875 L 17.671875 -8.90625 C 17.566406 -10.320312 17.5 -11.734375 17.46875 -13.140625 C 17.445312 -14.546875 17.4375 -15.953125 17.4375 -17.359375 L 17.4375 -23.6875 C 17.71875 -23.769531 18.148438 -23.847656 18.734375 -23.921875 C 19.328125 -24.003906 19.910156 -24.046875 20.484375 -24.046875 C 21.628906 -24.046875 22.5 -23.84375 23.09375 -23.4375 C 23.695312 -23.03125 24 -22.191406 24 -20.921875 Z M 24 -0.828125 "/></g></g></g><g fill="#4bad20" fill-opacity="1"><g transform="translate(144.053424, 197.754148)"><g><path d="M 24 -3.875 C 24 -3.0625 23.851562 -2.457031 23.5625 -2.0625 C 23.28125 -1.675781 22.828125 -1.300781 22.203125 -0.9375 C 21.835938 -0.726562 21.378906 -0.523438 20.828125 -0.328125 C 20.285156 -0.140625 19.6875 0.0234375 19.03125 0.171875 C 18.382812 0.316406 17.703125 0.425781 16.984375 0.5 C 16.265625 0.582031 15.554688 0.625 14.859375 0.625 C 12.984375 0.625 11.222656 0.367188 9.578125 -0.140625 C 7.929688 -0.648438 6.503906 -1.414062 5.296875 -2.4375 C 4.085938 -3.46875 3.128906 -4.75 2.421875 -6.28125 C 1.722656 -7.820312 1.375 -9.613281 1.375 -11.65625 C 1.375 -13.789062 1.753906 -15.648438 2.515625 -17.234375 C 3.285156 -18.828125 4.300781 -20.148438 5.5625 -21.203125 C 6.832031 -22.265625 8.28125 -23.054688 9.90625 -23.578125 C 11.539062 -24.097656 13.21875 -24.359375 14.9375 -24.359375 C 17.40625 -24.359375 19.363281 -23.957031 20.8125 -23.15625 C 22.257812 -22.363281 22.984375 -21.332031 22.984375 -20.0625 C 22.984375 -19.375 22.8125 -18.78125 22.46875 -18.28125 C 22.132812 -17.789062 21.75 -17.40625 21.3125 -17.125 C 20.65625 -17.507812 19.835938 -17.890625 18.859375 -18.265625 C 17.878906 -18.648438 16.78125 -18.84375 15.5625 -18.84375 C 13.375 -18.84375 11.632812 -18.21875 10.34375 -16.96875 C 9.050781 -15.71875 8.40625 -13.984375 8.40625 -11.765625 C 8.40625 -10.566406 8.578125 -9.53125 8.921875 -8.65625 C 9.273438 -7.78125 9.753906 -7.0625 10.359375 -6.5 C 10.960938 -5.945312 11.65625 -5.53125 12.4375 -5.25 C 13.21875 -4.976562 14.050781 -4.84375 14.9375 -4.84375 C 15.507812 -4.84375 16.015625 -4.894531 16.453125 -5 C 16.898438 -5.101562 17.238281 -5.222656 17.46875 -5.359375 L 17.46875 -9.03125 L 13.296875 -9.03125 C 13.140625 -9.3125 12.988281 -9.6875 12.84375 -10.15625 C 12.695312 -10.632812 12.625 -11.132812 12.625 -11.65625 C 12.625 -12.59375 12.835938 -13.269531 13.265625 -13.6875 C 13.703125 -14.101562 14.257812 -14.3125 14.9375 -14.3125 L 21.546875 -14.3125 C 22.328125 -14.3125 22.929688 -14.09375 23.359375 -13.65625 C 23.785156 -13.226562 24 -12.625 24 -11.84375 Z M 24 -3.875 "/></g></g></g><g fill="#4bad20" fill-opacity="1"><g transform="translate(170.004867, 197.754148)"><g/></g></g><g fill="#4bad20" fill-opacity="1"><g transform="translate(177.821564, 197.754148)"><g><path d="M 11.421875 -12.703125 C 12.515625 -12.703125 13.351562 -12.957031 13.9375 -13.46875 C 14.519531 -13.976562 14.8125 -14.753906 14.8125 -15.796875 C 14.8125 -16.785156 14.503906 -17.546875 13.890625 -18.078125 C 13.285156 -18.609375 12.394531 -18.875 11.21875 -18.875 C 10.800781 -18.875 10.453125 -18.867188 10.171875 -18.859375 C 9.898438 -18.847656 9.625 -18.816406 9.34375 -18.765625 L 9.34375 -12.703125 Z M 9.375 -0.15625 C 9.09375 -0.0820312 8.644531 -0.00390625 8.03125 0.078125 C 7.414062 0.160156 6.8125 0.203125 6.21875 0.203125 C 5.613281 0.203125 5.082031 0.15625 4.625 0.0625 C 4.175781 -0.03125 3.796875 -0.191406 3.484375 -0.421875 C 3.171875 -0.660156 2.9375 -0.988281 2.78125 -1.40625 C 2.625 -1.820312 2.546875 -2.367188 2.546875 -3.046875 L 2.546875 -21.46875 C 2.546875 -22.007812 2.691406 -22.429688 2.984375 -22.734375 C 3.285156 -23.035156 3.695312 -23.273438 4.21875 -23.453125 C 5.101562 -23.765625 6.113281 -23.992188 7.25 -24.140625 C 8.382812 -24.285156 9.523438 -24.359375 10.671875 -24.359375 C 14.265625 -24.359375 17.015625 -23.585938 18.921875 -22.046875 C 20.828125 -20.515625 21.78125 -18.429688 21.78125 -15.796875 C 21.78125 -14.515625 21.578125 -13.359375 21.171875 -12.328125 C 20.765625 -11.304688 20.160156 -10.421875 19.359375 -9.671875 C 18.566406 -8.929688 17.566406 -8.359375 16.359375 -7.953125 C 15.148438 -7.546875 13.75 -7.34375 12.15625 -7.34375 L 9.375 -7.34375 Z M 9.375 -0.15625 "/></g></g></g><g fill="#4bad20" fill-opacity="1"><g transform="translate(200.529063, 197.754148)"><g><path d="M 2.546875 -20.0625 C 2.546875 -21.175781 2.867188 -22.054688 3.515625 -22.703125 C 4.171875 -23.359375 5.054688 -23.6875 6.171875 -23.6875 L 19.078125 -23.6875 C 19.253906 -23.40625 19.414062 -23.03125 19.5625 -22.5625 C 19.707031 -22.09375 19.78125 -21.597656 19.78125 -21.078125 C 19.78125 -20.085938 19.5625 -19.378906 19.125 -18.953125 C 18.695312 -18.535156 18.132812 -18.328125 17.4375 -18.328125 L 9.1875 -18.328125 L 9.1875 -14.703125 L 17.984375 -14.703125 C 18.160156 -14.410156 18.320312 -14.035156 18.46875 -13.578125 C 18.613281 -13.128906 18.6875 -12.644531 18.6875 -12.125 C 18.6875 -11.132812 18.476562 -10.425781 18.0625 -10 C 17.644531 -9.582031 17.082031 -9.375 16.375 -9.375 L 9.1875 -9.375 L 9.1875 -5.28125 L 19.234375 -5.28125 C 19.410156 -4.988281 19.570312 -4.609375 19.71875 -4.140625 C 19.863281 -3.671875 19.9375 -3.175781 19.9375 -2.65625 C 19.9375 -1.664062 19.71875 -0.953125 19.28125 -0.515625 C 18.851562 -0.0859375 18.289062 0.125 17.59375 0.125 L 6.171875 0.125 C 5.054688 0.125 4.171875 -0.203125 3.515625 -0.859375 C 2.867188 -1.515625 2.546875 -2.398438 2.546875 -3.515625 Z M 2.546875 -20.0625 "/></g></g></g><g fill="#4bad20" fill-opacity="1"><g transform="translate(221.946808, 197.754148)"><g><path d="M 1.453125 -18.21875 C 1.265625 -18.5 1.09375 -18.890625 0.9375 -19.390625 C 0.78125 -19.890625 0.703125 -20.410156 0.703125 -20.953125 C 0.703125 -21.972656 0.929688 -22.703125 1.390625 -23.140625 C 1.847656 -23.585938 2.441406 -23.8125 3.171875 -23.8125 L 20.21875 -23.8125 C 20.394531 -23.519531 20.5625 -23.125 20.71875 -22.625 C 20.875 -22.132812 20.953125 -21.617188 20.953125 -21.078125 C 20.953125 -20.054688 20.722656 -19.320312 20.265625 -18.875 C 19.816406 -18.4375 19.222656 -18.21875 18.484375 -18.21875 L 14.15625 -18.21875 L 14.15625 -0.15625 C 13.863281 -0.0820312 13.410156 -0.00390625 12.796875 0.078125 C 12.191406 0.160156 11.585938 0.203125 10.984375 0.203125 C 10.390625 0.203125 9.863281 0.15625 9.40625 0.0625 C 8.945312 -0.03125 8.5625 -0.191406 8.25 -0.421875 C 7.9375 -0.660156 7.703125 -0.988281 7.546875 -1.40625 C 7.390625 -1.820312 7.3125 -2.367188 7.3125 -3.046875 L 7.3125 -18.21875 Z M 1.453125 -18.21875 "/></g></g></g><g fill="#4bad20" fill-opacity="1"><g transform="translate(243.677219, 197.754148)"><g><path d="M 9.265625 -9.421875 C 8.117188 -9.816406 7.078125 -10.210938 6.140625 -10.609375 C 5.203125 -11.015625 4.394531 -11.503906 3.71875 -12.078125 C 3.039062 -12.648438 2.507812 -13.332031 2.125 -14.125 C 1.75 -14.925781 1.5625 -15.898438 1.5625 -17.046875 C 1.5625 -19.265625 2.414062 -21.035156 4.125 -22.359375 C 5.832031 -23.691406 8.222656 -24.359375 11.296875 -24.359375 C 12.421875 -24.359375 13.460938 -24.28125 14.421875 -24.125 C 15.390625 -23.96875 16.21875 -23.722656 16.90625 -23.390625 C 17.59375 -23.066406 18.128906 -22.648438 18.515625 -22.140625 C 18.910156 -21.640625 19.109375 -21.050781 19.109375 -20.375 C 19.109375 -19.6875 18.953125 -19.101562 18.640625 -18.625 C 18.328125 -18.144531 17.953125 -17.734375 17.515625 -17.390625 C 16.941406 -17.753906 16.171875 -18.070312 15.203125 -18.34375 C 14.242188 -18.625 13.191406 -18.765625 12.046875 -18.765625 C 10.867188 -18.765625 10.003906 -18.597656 9.453125 -18.265625 C 8.910156 -17.941406 8.640625 -17.535156 8.640625 -17.046875 C 8.640625 -16.648438 8.804688 -16.328125 9.140625 -16.078125 C 9.484375 -15.835938 9.992188 -15.613281 10.671875 -15.40625 L 12.75 -14.734375 C 15.195312 -13.953125 17.078125 -12.957031 18.390625 -11.75 C 19.710938 -10.539062 20.375 -8.890625 20.375 -6.796875 C 20.375 -4.585938 19.5 -2.796875 17.75 -1.421875 C 16 -0.0546875 13.429688 0.625 10.046875 0.625 C 8.847656 0.625 7.734375 0.523438 6.703125 0.328125 C 5.671875 0.140625 4.769531 -0.140625 4 -0.515625 C 3.238281 -0.898438 2.640625 -1.375 2.203125 -1.9375 C 1.773438 -2.5 1.5625 -3.144531 1.5625 -3.875 C 1.5625 -4.625 1.78125 -5.265625 2.21875 -5.796875 C 2.664062 -6.335938 3.148438 -6.75 3.671875 -7.03125 C 4.398438 -6.457031 5.289062 -5.960938 6.34375 -5.546875 C 7.40625 -5.128906 8.5625 -4.921875 9.8125 -4.921875 C 11.09375 -4.921875 11.992188 -5.113281 12.515625 -5.5 C 13.035156 -5.894531 13.296875 -6.351562 13.296875 -6.875 C 13.296875 -7.394531 13.085938 -7.789062 12.671875 -8.0625 C 12.253906 -8.34375 11.664062 -8.613281 10.90625 -8.875 Z M 9.265625 -9.421875 "/></g></g></g><g fill="#623d2b" fill-opacity="1"><g transform="translate(97.760768, 222.758393)"><g/></g></g><g fill="#623d2b" fill-opacity="1"><g transform="translate(100.564185, 222.758393)"><g><path d="M 2.71875 -8.234375 C 2.875 -8.328125 3.113281 -8.414062 3.4375 -8.5 C 3.757812 -8.59375 4.085938 -8.640625 4.421875 -8.640625 C 4.878906 -8.640625 5.285156 -8.570312 5.640625 -8.4375 C 6.003906 -8.300781 6.238281 -8.085938 6.34375 -7.796875 C 6.507812 -7.304688 6.691406 -6.738281 6.890625 -6.09375 C 7.085938 -5.445312 7.285156 -4.78125 7.484375 -4.09375 C 7.679688 -3.40625 7.875 -2.726562 8.0625 -2.0625 C 8.25 -1.394531 8.410156 -0.804688 8.546875 -0.296875 C 8.429688 -0.160156 8.257812 -0.0546875 8.03125 0.015625 C 7.8125 0.0976562 7.550781 0.140625 7.25 0.140625 C 7.019531 0.140625 6.828125 0.117188 6.671875 0.078125 C 6.523438 0.046875 6.398438 -0.00390625 6.296875 -0.078125 C 6.203125 -0.160156 6.125 -0.257812 6.0625 -0.375 C 6 -0.5 5.945312 -0.640625 5.90625 -0.796875 L 5.640625 -1.765625 L 3.109375 -1.765625 C 3.035156 -1.484375 2.960938 -1.191406 2.890625 -0.890625 C 2.816406 -0.597656 2.738281 -0.3125 2.65625 -0.03125 C 2.53125 0.0195312 2.394531 0.0625 2.25 0.09375 C 2.101562 0.125 1.925781 0.140625 1.71875 0.140625 C 1.25 0.140625 0.898438 0.0625 0.671875 -0.09375 C 0.441406 -0.257812 0.328125 -0.488281 0.328125 -0.78125 C 0.328125 -0.914062 0.34375 -1.046875 0.375 -1.171875 C 0.414062 -1.304688 0.457031 -1.460938 0.5 -1.640625 C 0.570312 -1.890625 0.664062 -2.203125 0.78125 -2.578125 C 0.894531 -2.953125 1.019531 -3.351562 1.15625 -3.78125 C 1.300781 -4.21875 1.453125 -4.664062 1.609375 -5.125 C 1.765625 -5.582031 1.910156 -6.015625 2.046875 -6.421875 C 2.191406 -6.828125 2.320312 -7.1875 2.4375 -7.5 C 2.5625 -7.820312 2.65625 -8.066406 2.71875 -8.234375 Z M 4.40625 -6.4375 C 4.269531 -6.039062 4.117188 -5.601562 3.953125 -5.125 C 3.796875 -4.644531 3.648438 -4.15625 3.515625 -3.65625 L 5.25 -3.65625 C 5.125 -4.164062 4.992188 -4.660156 4.859375 -5.140625 C 4.722656 -5.617188 4.597656 -6.050781 4.484375 -6.4375 Z M 4.40625 -6.4375 "/></g></g></g><g fill="#623d2b" fill-opacity="1"><g transform="translate(109.352883, 222.758393)"><g><path d="M 6.78125 -2.09375 C 6.65625 -1.988281 6.5 -1.90625 6.3125 -1.84375 C 6.125 -1.78125 5.898438 -1.75 5.640625 -1.75 C 5.304688 -1.75 5.03125 -1.789062 4.8125 -1.875 C 4.59375 -1.957031 4.453125 -2.101562 4.390625 -2.3125 C 4.128906 -3.132812 3.910156 -3.800781 3.734375 -4.3125 C 3.566406 -4.820312 3.4375 -5.265625 3.34375 -5.640625 L 3.28125 -5.640625 C 3.25 -5.097656 3.226562 -4.597656 3.21875 -4.140625 C 3.207031 -3.691406 3.195312 -3.25 3.1875 -2.8125 C 3.1875 -2.382812 3.175781 -1.953125 3.15625 -1.515625 C 3.144531 -1.078125 3.125 -0.59375 3.09375 -0.0625 C 2.976562 -0.0078125 2.820312 0.03125 2.625 0.0625 C 2.425781 0.09375 2.226562 0.109375 2.03125 0.109375 C 1.625 0.109375 1.304688 0.046875 1.078125 -0.078125 C 0.847656 -0.210938 0.734375 -0.453125 0.734375 -0.796875 L 1.140625 -7.953125 C 1.210938 -8.066406 1.375 -8.191406 1.625 -8.328125 C 1.875 -8.472656 2.226562 -8.546875 2.6875 -8.546875 C 3.1875 -8.546875 3.578125 -8.46875 3.859375 -8.3125 C 4.140625 -8.164062 4.34375 -7.914062 4.46875 -7.5625 C 4.550781 -7.34375 4.640625 -7.085938 4.734375 -6.796875 C 4.835938 -6.503906 4.9375 -6.203125 5.03125 -5.890625 C 5.132812 -5.585938 5.234375 -5.285156 5.328125 -4.984375 C 5.421875 -4.679688 5.503906 -4.40625 5.578125 -4.15625 L 5.640625 -4.15625 C 5.867188 -4.945312 6.09375 -5.707031 6.3125 -6.4375 C 6.539062 -7.175781 6.75 -7.789062 6.9375 -8.28125 C 7.070312 -8.351562 7.25 -8.414062 7.46875 -8.46875 C 7.695312 -8.519531 7.945312 -8.546875 8.21875 -8.546875 C 8.675781 -8.546875 9.046875 -8.476562 9.328125 -8.34375 C 9.617188 -8.207031 9.789062 -8.015625 9.84375 -7.765625 C 9.875 -7.578125 9.910156 -7.289062 9.953125 -6.90625 C 9.992188 -6.519531 10.035156 -6.082031 10.078125 -5.59375 C 10.128906 -5.101562 10.175781 -4.585938 10.21875 -4.046875 C 10.269531 -3.503906 10.316406 -2.984375 10.359375 -2.484375 C 10.398438 -1.984375 10.4375 -1.523438 10.46875 -1.109375 C 10.5 -0.691406 10.519531 -0.375 10.53125 -0.15625 C 10.363281 -0.0625 10.191406 0.00390625 10.015625 0.046875 C 9.847656 0.0859375 9.628906 0.109375 9.359375 0.109375 C 9.003906 0.109375 8.703125 0.0507812 8.453125 -0.0625 C 8.210938 -0.1875 8.085938 -0.425781 8.078125 -0.78125 C 8.015625 -1.800781 7.976562 -2.71875 7.96875 -3.53125 C 7.957031 -4.34375 7.9375 -5.023438 7.90625 -5.578125 L 7.828125 -5.578125 C 7.734375 -5.210938 7.597656 -4.753906 7.421875 -4.203125 C 7.242188 -3.648438 7.03125 -2.945312 6.78125 -2.09375 Z M 6.78125 -2.09375 "/></g></g></g><g fill="#623d2b" fill-opacity="1"><g transform="translate(120.524476, 222.758393)"><g><path d="M 0.484375 -4.265625 C 0.484375 -4.992188 0.597656 -5.632812 0.828125 -6.1875 C 1.054688 -6.75 1.367188 -7.21875 1.765625 -7.59375 C 2.171875 -7.976562 2.640625 -8.269531 3.171875 -8.46875 C 3.710938 -8.664062 4.296875 -8.765625 4.921875 -8.765625 C 5.546875 -8.765625 6.125 -8.664062 6.65625 -8.46875 C 7.195312 -8.269531 7.664062 -7.976562 8.0625 -7.59375 C 8.46875 -7.21875 8.785156 -6.75 9.015625 -6.1875 C 9.242188 -5.632812 9.359375 -4.992188 9.359375 -4.265625 C 9.359375 -3.535156 9.242188 -2.882812 9.015625 -2.3125 C 8.796875 -1.75 8.488281 -1.28125 8.09375 -0.90625 C 7.695312 -0.53125 7.226562 -0.242188 6.6875 -0.046875 C 6.144531 0.148438 5.554688 0.25 4.921875 0.25 C 4.285156 0.25 3.695312 0.148438 3.15625 -0.046875 C 2.613281 -0.242188 2.144531 -0.535156 1.75 -0.921875 C 1.351562 -1.304688 1.039062 -1.78125 0.8125 -2.34375 C 0.59375 -2.90625 0.484375 -3.546875 0.484375 -4.265625 Z M 3.015625 -4.265625 C 3.015625 -3.410156 3.1875 -2.769531 3.53125 -2.34375 C 3.875 -1.925781 4.335938 -1.71875 4.921875 -1.71875 C 5.503906 -1.71875 5.96875 -1.925781 6.3125 -2.34375 C 6.664062 -2.769531 6.84375 -3.410156 6.84375 -4.265625 C 6.84375 -5.097656 6.671875 -5.722656 6.328125 -6.140625 C 5.984375 -6.566406 5.519531 -6.78125 4.9375 -6.78125 C 4.351562 -6.78125 3.882812 -6.570312 3.53125 -6.15625 C 3.1875 -5.738281 3.015625 -5.109375 3.015625 -4.265625 Z M 3.015625 -4.265625 "/></g></g></g><g fill="#623d2b" fill-opacity="1"><g transform="translate(130.378465, 222.758393)"><g><path d="M 3.34375 -2.75 L 3.34375 -0.0625 C 3.25 -0.03125 3.085938 -0.00390625 2.859375 0.015625 C 2.640625 0.046875 2.425781 0.0625 2.21875 0.0625 C 2 0.0625 1.804688 0.046875 1.640625 0.015625 C 1.484375 -0.015625 1.347656 -0.0703125 1.234375 -0.15625 C 1.128906 -0.238281 1.046875 -0.351562 0.984375 -0.5 C 0.929688 -0.65625 0.90625 -0.851562 0.90625 -1.09375 L 0.90625 -7.6875 C 0.90625 -7.882812 0.957031 -8.035156 1.0625 -8.140625 C 1.175781 -8.253906 1.328125 -8.34375 1.515625 -8.40625 C 1.828125 -8.519531 2.191406 -8.601562 2.609375 -8.65625 C 3.035156 -8.707031 3.488281 -8.734375 3.96875 -8.734375 C 5.257812 -8.734375 6.226562 -8.460938 6.875 -7.921875 C 7.53125 -7.378906 7.859375 -6.644531 7.859375 -5.71875 C 7.859375 -5.132812 7.707031 -4.632812 7.40625 -4.21875 C 7.113281 -3.8125 6.757812 -3.5 6.34375 -3.28125 C 6.6875 -2.820312 7.019531 -2.390625 7.34375 -1.984375 C 7.664062 -1.585938 7.921875 -1.222656 8.109375 -0.890625 C 8.015625 -0.566406 7.84375 -0.316406 7.59375 -0.140625 C 7.351562 0.0234375 7.078125 0.109375 6.765625 0.109375 C 6.566406 0.109375 6.390625 0.0820312 6.234375 0.03125 C 6.085938 -0.0078125 5.957031 -0.0703125 5.84375 -0.15625 C 5.726562 -0.238281 5.625 -0.335938 5.53125 -0.453125 C 5.4375 -0.578125 5.347656 -0.710938 5.265625 -0.859375 L 4.09375 -2.75 Z M 4.234375 -4.609375 C 4.585938 -4.609375 4.863281 -4.695312 5.0625 -4.875 C 5.269531 -5.0625 5.375 -5.332031 5.375 -5.6875 C 5.375 -6.039062 5.257812 -6.304688 5.03125 -6.484375 C 4.800781 -6.671875 4.441406 -6.765625 3.953125 -6.765625 C 3.804688 -6.765625 3.691406 -6.757812 3.609375 -6.75 C 3.523438 -6.738281 3.429688 -6.726562 3.328125 -6.71875 L 3.328125 -4.609375 Z M 4.234375 -4.609375 "/></g></g></g><g fill="#623d2b" fill-opacity="1"><g transform="translate(138.914849, 222.758393)"><g/></g></g><g fill="#623d2b" fill-opacity="1"><g transform="translate(141.718257, 222.758393)"><g><path d="M 2.71875 -8.234375 C 2.875 -8.328125 3.113281 -8.414062 3.4375 -8.5 C 3.757812 -8.59375 4.085938 -8.640625 4.421875 -8.640625 C 4.878906 -8.640625 5.285156 -8.570312 5.640625 -8.4375 C 6.003906 -8.300781 6.238281 -8.085938 6.34375 -7.796875 C 6.507812 -7.304688 6.691406 -6.738281 6.890625 -6.09375 C 7.085938 -5.445312 7.285156 -4.78125 7.484375 -4.09375 C 7.679688 -3.40625 7.875 -2.726562 8.0625 -2.0625 C 8.25 -1.394531 8.410156 -0.804688 8.546875 -0.296875 C 8.429688 -0.160156 8.257812 -0.0546875 8.03125 0.015625 C 7.8125 0.0976562 7.550781 0.140625 7.25 0.140625 C 7.019531 0.140625 6.828125 0.117188 6.671875 0.078125 C 6.523438 0.046875 6.398438 -0.00390625 6.296875 -0.078125 C 6.203125 -0.160156 6.125 -0.257812 6.0625 -0.375 C 6 -0.5 5.945312 -0.640625 5.90625 -0.796875 L 5.640625 -1.765625 L 3.109375 -1.765625 C 3.035156 -1.484375 2.960938 -1.191406 2.890625 -0.890625 C 2.816406 -0.597656 2.738281 -0.3125 2.65625 -0.03125 C 2.53125 0.0195312 2.394531 0.0625 2.25 0.09375 C 2.101562 0.125 1.925781 0.140625 1.71875 0.140625 C 1.25 0.140625 0.898438 0.0625 0.671875 -0.09375 C 0.441406 -0.257812 0.328125 -0.488281 0.328125 -0.78125 C 0.328125 -0.914062 0.34375 -1.046875 0.375 -1.171875 C 0.414062 -1.304688 0.457031 -1.460938 0.5 -1.640625 C 0.570312 -1.890625 0.664062 -2.203125 0.78125 -2.578125 C 0.894531 -2.953125 1.019531 -3.351562 1.15625 -3.78125 C 1.300781 -4.21875 1.453125 -4.664062 1.609375 -5.125 C 1.765625 -5.582031 1.910156 -6.015625 2.046875 -6.421875 C 2.191406 -6.828125 2.320312 -7.1875 2.4375 -7.5 C 2.5625 -7.820312 2.65625 -8.066406 2.71875 -8.234375 Z M 4.40625 -6.4375 C 4.269531 -6.039062 4.117188 -5.601562 3.953125 -5.125 C 3.796875 -4.644531 3.648438 -4.15625 3.515625 -3.65625 L 5.25 -3.65625 C 5.125 -4.164062 4.992188 -4.660156 4.859375 -5.140625 C 4.722656 -5.617188 4.597656 -6.050781 4.484375 -6.4375 Z M 4.40625 -6.4375 "/></g></g></g><g fill="#623d2b" fill-opacity="1"><g transform="translate(150.506955, 222.758393)"><g><path d="M 0.484375 -4.265625 C 0.484375 -4.992188 0.597656 -5.632812 0.828125 -6.1875 C 1.054688 -6.75 1.367188 -7.21875 1.765625 -7.59375 C 2.171875 -7.976562 2.640625 -8.269531 3.171875 -8.46875 C 3.710938 -8.664062 4.296875 -8.765625 4.921875 -8.765625 C 5.546875 -8.765625 6.125 -8.664062 6.65625 -8.46875 C 7.195312 -8.269531 7.664062 -7.976562 8.0625 -7.59375 C 8.46875 -7.21875 8.785156 -6.75 9.015625 -6.1875 C 9.242188 -5.632812 9.359375 -4.992188 9.359375 -4.265625 C 9.359375 -3.535156 9.242188 -2.882812 9.015625 -2.3125 C 8.796875 -1.75 8.488281 -1.28125 8.09375 -0.90625 C 7.695312 -0.53125 7.226562 -0.242188 6.6875 -0.046875 C 6.144531 0.148438 5.554688 0.25 4.921875 0.25 C 4.285156 0.25 3.695312 0.148438 3.15625 -0.046875 C 2.613281 -0.242188 2.144531 -0.535156 1.75 -0.921875 C 1.351562 -1.304688 1.039062 -1.78125 0.8125 -2.34375 C 0.59375 -2.90625 0.484375 -3.546875 0.484375 -4.265625 Z M 3.015625 -4.265625 C 3.015625 -3.410156 3.1875 -2.769531 3.53125 -2.34375 C 3.875 -1.925781 4.335938 -1.71875 4.921875 -1.71875 C 5.503906 -1.71875 5.96875 -1.925781 6.3125 -2.34375 C 6.664062 -2.769531 6.84375 -3.410156 6.84375 -4.265625 C 6.84375 -5.097656 6.671875 -5.722656 6.328125 -6.140625 C 5.984375 -6.566406 5.519531 -6.78125 4.9375 -6.78125 C 4.351562 -6.78125 3.882812 -6.570312 3.53125 -6.15625 C 3.1875 -5.738281 3.015625 -5.109375 3.015625 -4.265625 Z M 3.015625 -4.265625 "/></g></g></g><g fill="#623d2b" fill-opacity="1"><g transform="translate(160.360943, 222.758393)"><g><path d="M 3.328125 -3.375 C 2.910156 -3.519531 2.535156 -3.660156 2.203125 -3.796875 C 1.867188 -3.941406 1.578125 -4.117188 1.328125 -4.328125 C 1.085938 -4.535156 0.898438 -4.78125 0.765625 -5.0625 C 0.628906 -5.351562 0.5625 -5.703125 0.5625 -6.109375 C 0.5625 -6.898438 0.863281 -7.535156 1.46875 -8.015625 C 2.082031 -8.492188 2.941406 -8.734375 4.046875 -8.734375 C 4.453125 -8.734375 4.828125 -8.703125 5.171875 -8.640625 C 5.515625 -8.585938 5.8125 -8.503906 6.0625 -8.390625 C 6.3125 -8.273438 6.503906 -8.125 6.640625 -7.9375 C 6.785156 -7.757812 6.859375 -7.546875 6.859375 -7.296875 C 6.859375 -7.054688 6.800781 -6.847656 6.6875 -6.671875 C 6.570312 -6.503906 6.4375 -6.359375 6.28125 -6.234375 C 6.070312 -6.367188 5.796875 -6.484375 5.453125 -6.578125 C 5.109375 -6.679688 4.726562 -6.734375 4.3125 -6.734375 C 3.894531 -6.734375 3.585938 -6.671875 3.390625 -6.546875 C 3.191406 -6.429688 3.09375 -6.285156 3.09375 -6.109375 C 3.09375 -5.972656 3.15625 -5.859375 3.28125 -5.765625 C 3.40625 -5.679688 3.585938 -5.597656 3.828125 -5.515625 L 4.5625 -5.28125 C 5.445312 -5 6.125 -4.640625 6.59375 -4.203125 C 7.0625 -3.773438 7.296875 -3.1875 7.296875 -2.4375 C 7.296875 -1.644531 6.984375 -1.003906 6.359375 -0.515625 C 5.734375 -0.0234375 4.816406 0.21875 3.609375 0.21875 C 3.171875 0.21875 2.765625 0.179688 2.390625 0.109375 C 2.023438 0.046875 1.703125 -0.0507812 1.421875 -0.1875 C 1.148438 -0.320312 0.9375 -0.488281 0.78125 -0.6875 C 0.632812 -0.894531 0.5625 -1.128906 0.5625 -1.390625 C 0.5625 -1.660156 0.640625 -1.890625 0.796875 -2.078125 C 0.953125 -2.273438 1.125 -2.421875 1.3125 -2.515625 C 1.570312 -2.316406 1.890625 -2.140625 2.265625 -1.984375 C 2.648438 -1.835938 3.066406 -1.765625 3.515625 -1.765625 C 3.972656 -1.765625 4.296875 -1.832031 4.484375 -1.96875 C 4.671875 -2.113281 4.765625 -2.28125 4.765625 -2.46875 C 4.765625 -2.65625 4.6875 -2.796875 4.53125 -2.890625 C 4.382812 -2.992188 4.175781 -3.09375 3.90625 -3.1875 Z M 3.328125 -3.375 "/></g></g></g><g fill="#623d2b" fill-opacity="1"><g transform="translate(168.084341, 222.758393)"><g/></g></g><g fill="#623d2b" fill-opacity="1"><g transform="translate(170.887749, 222.758393)"><g><path d="M 4.09375 -4.5625 C 4.488281 -4.5625 4.789062 -4.648438 5 -4.828125 C 5.207031 -5.015625 5.3125 -5.289062 5.3125 -5.65625 C 5.3125 -6.007812 5.203125 -6.28125 4.984375 -6.46875 C 4.765625 -6.664062 4.441406 -6.765625 4.015625 -6.765625 C 3.867188 -6.765625 3.742188 -6.757812 3.640625 -6.75 C 3.546875 -6.75 3.445312 -6.742188 3.34375 -6.734375 L 3.34375 -4.5625 Z M 3.359375 -0.0625 C 3.253906 -0.03125 3.09375 -0.00390625 2.875 0.015625 C 2.65625 0.046875 2.441406 0.0625 2.234375 0.0625 C 2.015625 0.0625 1.820312 0.046875 1.65625 0.015625 C 1.5 -0.015625 1.363281 -0.0703125 1.25 -0.15625 C 1.132812 -0.238281 1.046875 -0.351562 0.984375 -0.5 C 0.929688 -0.65625 0.90625 -0.851562 0.90625 -1.09375 L 0.90625 -7.6875 C 0.90625 -7.882812 0.957031 -8.035156 1.0625 -8.140625 C 1.175781 -8.253906 1.328125 -8.34375 1.515625 -8.40625 C 1.828125 -8.519531 2.1875 -8.601562 2.59375 -8.65625 C 3 -8.707031 3.410156 -8.734375 3.828125 -8.734375 C 5.117188 -8.734375 6.101562 -8.457031 6.78125 -7.90625 C 7.46875 -7.351562 7.8125 -6.601562 7.8125 -5.65625 C 7.8125 -5.195312 7.738281 -4.785156 7.59375 -4.421875 C 7.445312 -4.054688 7.226562 -3.738281 6.9375 -3.46875 C 6.65625 -3.195312 6.296875 -2.988281 5.859375 -2.84375 C 5.429688 -2.707031 4.929688 -2.640625 4.359375 -2.640625 L 3.359375 -2.640625 Z M 3.359375 -0.0625 "/></g></g></g><g fill="#623d2b" fill-opacity="1"><g transform="translate(179.031659, 222.758393)"><g><path d="M 0.90625 -7.1875 C 0.90625 -7.59375 1.019531 -7.910156 1.25 -8.140625 C 1.488281 -8.378906 1.8125 -8.5 2.21875 -8.5 L 6.84375 -8.5 C 6.90625 -8.394531 6.960938 -8.253906 7.015625 -8.078125 C 7.066406 -7.910156 7.09375 -7.734375 7.09375 -7.546875 C 7.09375 -7.191406 7.015625 -6.941406 6.859375 -6.796875 C 6.703125 -6.648438 6.5 -6.578125 6.25 -6.578125 L 3.296875 -6.578125 L 3.296875 -5.265625 L 6.453125 -5.265625 C 6.515625 -5.160156 6.570312 -5.023438 6.625 -4.859375 C 6.675781 -4.703125 6.703125 -4.53125 6.703125 -4.34375 C 6.703125 -3.988281 6.625 -3.734375 6.46875 -3.578125 C 6.320312 -3.429688 6.125 -3.359375 5.875 -3.359375 L 3.296875 -3.359375 L 3.296875 -1.890625 L 6.890625 -1.890625 C 6.960938 -1.785156 7.019531 -1.648438 7.0625 -1.484375 C 7.113281 -1.316406 7.140625 -1.140625 7.140625 -0.953125 C 7.140625 -0.597656 7.0625 -0.34375 6.90625 -0.1875 C 6.757812 -0.03125 6.5625 0.046875 6.3125 0.046875 L 2.21875 0.046875 C 1.8125 0.046875 1.488281 -0.0664062 1.25 -0.296875 C 1.019531 -0.535156 0.90625 -0.859375 0.90625 -1.265625 Z M 0.90625 -7.1875 "/></g></g></g><g fill="#623d2b" fill-opacity="1"><g transform="translate(186.713008, 222.758393)"><g><path d="M 0.515625 -6.53125 C 0.453125 -6.632812 0.390625 -6.773438 0.328125 -6.953125 C 0.273438 -7.128906 0.25 -7.316406 0.25 -7.515625 C 0.25 -7.878906 0.332031 -8.140625 0.5 -8.296875 C 0.664062 -8.453125 0.878906 -8.53125 1.140625 -8.53125 L 7.25 -8.53125 C 7.3125 -8.425781 7.367188 -8.285156 7.421875 -8.109375 C 7.484375 -7.929688 7.515625 -7.742188 7.515625 -7.546875 C 7.515625 -7.191406 7.429688 -6.929688 7.265625 -6.765625 C 7.097656 -6.609375 6.882812 -6.53125 6.625 -6.53125 L 5.078125 -6.53125 L 5.078125 -0.0625 C 4.972656 -0.03125 4.8125 -0.00390625 4.59375 0.015625 C 4.375 0.046875 4.15625 0.0625 3.9375 0.0625 C 3.71875 0.0625 3.523438 0.046875 3.359375 0.015625 C 3.203125 -0.015625 3.066406 -0.0703125 2.953125 -0.15625 C 2.847656 -0.238281 2.765625 -0.351562 2.703125 -0.5 C 2.648438 -0.65625 2.625 -0.851562 2.625 -1.09375 L 2.625 -6.53125 Z M 0.515625 -6.53125 "/></g></g></g><g fill="#623d2b" fill-opacity="1"><g transform="translate(194.506491, 222.758393)"><g><path d="M 3.328125 -3.375 C 2.910156 -3.519531 2.535156 -3.660156 2.203125 -3.796875 C 1.867188 -3.941406 1.578125 -4.117188 1.328125 -4.328125 C 1.085938 -4.535156 0.898438 -4.78125 0.765625 -5.0625 C 0.628906 -5.351562 0.5625 -5.703125 0.5625 -6.109375 C 0.5625 -6.898438 0.863281 -7.535156 1.46875 -8.015625 C 2.082031 -8.492188 2.941406 -8.734375 4.046875 -8.734375 C 4.453125 -8.734375 4.828125 -8.703125 5.171875 -8.640625 C 5.515625 -8.585938 5.8125 -8.503906 6.0625 -8.390625 C 6.3125 -8.273438 6.503906 -8.125 6.640625 -7.9375 C 6.785156 -7.757812 6.859375 -7.546875 6.859375 -7.296875 C 6.859375 -7.054688 6.800781 -6.847656 6.6875 -6.671875 C 6.570312 -6.503906 6.4375 -6.359375 6.28125 -6.234375 C 6.070312 -6.367188 5.796875 -6.484375 5.453125 -6.578125 C 5.109375 -6.679688 4.726562 -6.734375 4.3125 -6.734375 C 3.894531 -6.734375 3.585938 -6.671875 3.390625 -6.546875 C 3.191406 -6.429688 3.09375 -6.285156 3.09375 -6.109375 C 3.09375 -5.972656 3.15625 -5.859375 3.28125 -5.765625 C 3.40625 -5.679688 3.585938 -5.597656 3.828125 -5.515625 L 4.5625 -5.28125 C 5.445312 -5 6.125 -4.640625 6.59375 -4.203125 C 7.0625 -3.773438 7.296875 -3.1875 7.296875 -2.4375 C 7.296875 -1.644531 6.984375 -1.003906 6.359375 -0.515625 C 5.734375 -0.0234375 4.816406 0.21875 3.609375 0.21875 C 3.171875 0.21875 2.765625 0.179688 2.390625 0.109375 C 2.023438 0.046875 1.703125 -0.0507812 1.421875 -0.1875 C 1.148438 -0.320312 0.9375 -0.488281 0.78125 -0.6875 C 0.632812 -0.894531 0.5625 -1.128906 0.5625 -1.390625 C 0.5625 -1.660156 0.640625 -1.890625 0.796875 -2.078125 C 0.953125 -2.273438 1.125 -2.421875 1.3125 -2.515625 C 1.570312 -2.316406 1.890625 -2.140625 2.265625 -1.984375 C 2.648438 -1.835938 3.066406 -1.765625 3.515625 -1.765625 C 3.972656 -1.765625 4.296875 -1.832031 4.484375 -1.96875 C 4.671875 -2.113281 4.765625 -2.28125 4.765625 -2.46875 C 4.765625 -2.65625 4.6875 -2.796875 4.53125 -2.890625 C 4.382812 -2.992188 4.175781 -3.09375 3.90625 -3.1875 Z M 3.328125 -3.375 "/></g></g></g></svg>