<svg xmlns="http://www.w3.org/2000/svg" xmlns:xlink="http://www.w3.org/1999/xlink" width="40" zoomAndPan="magnify" viewBox="0 0 30 30.000001" height="40" preserveAspectRatio="xMidYMid meet" version="1.0"><defs><clipPath id="acd96ffd67"><path d="M 0.703125 0.21875 L 29.007812 0.21875 L 29.007812 28.523438 L 0.703125 28.523438 Z M 0.703125 0.21875 " clip-rule="nonzero"/></clipPath></defs><g clip-path="url(#acd96ffd67)"><path fill="#E7B32E" d="M 14.855469 0.21875 C 7.039062 0.21875 0.703125 6.554688 0.703125 14.371094 C 0.703125 22.1875 7.039062 28.523438 14.855469 28.523438 C 22.671875 28.523438 29.007812 22.1875 29.007812 14.371094 C 29.007812 6.554688 22.671875 0.21875 14.855469 0.21875 Z M 19.121094 20.269531 L 10.726562 20.269531 L 10.726562 18.566406 L 14.523438 14.851562 C 16.160156 13.253906 16.570312 12.648438 16.570312 11.890625 C 16.570312 10.957031 15.8125 10.292969 14.75 10.292969 C 13.621094 10.292969 12.847656 11.035156 12.847656 12.109375 L 12.847656 12.15625 L 10.589844 12.15625 L 10.589844 12.117188 C 10.589844 9.867188 12.316406 8.335938 14.832031 8.335938 C 17.257812 8.335938 18.949219 9.730469 18.949219 11.730469 C 18.949219 12.996094 18.265625 14.085938 16.25 15.980469 L 14.023438 18.101562 L 14.023438 18.246094 L 19.121094 18.246094 Z M 19.121094 20.269531 " fill-opacity="1" fill-rule="nonzero"/></g></svg>