<svg xmlns="http://www.w3.org/2000/svg" xmlns:xlink="http://www.w3.org/1999/xlink" width="40" zoomAndPan="magnify" viewBox="0 0 30 30.000001" height="40" preserveAspectRatio="xMidYMid meet" version="1.0"><defs><clipPath id="e59201b2e4"><path d="M 0.847656 0.363281 L 29.152344 0.363281 L 29.152344 28.667969 L 0.847656 28.667969 Z M 0.847656 0.363281 " clip-rule="nonzero"/></clipPath></defs><g clip-path="url(#e59201b2e4)"><path fill="#E7B32E" d="M 15 0.363281 C 7.183594 0.363281 0.847656 6.699219 0.847656 14.515625 C 0.847656 22.332031 7.183594 28.667969 15 28.667969 C 22.816406 28.667969 29.152344 22.332031 29.152344 14.515625 C 29.152344 6.699219 22.816406 0.363281 15 0.363281 Z M 14.945312 20.632812 C 12.347656 20.632812 10.589844 19.195312 10.484375 17.003906 L 12.816406 17.003906 C 12.890625 17.988281 13.71875 18.609375 14.96875 18.609375 C 16.183594 18.609375 17.03125 17.921875 17.03125 16.929688 C 17.03125 15.914062 16.234375 15.285156 14.929688 15.285156 L 13.484375 15.285156 L 13.484375 13.472656 L 14.902344 13.472656 C 16.007812 13.472656 16.757812 12.824219 16.757812 11.875 C 16.757812 10.9375 16.03125 10.34375 14.894531 10.34375 C 13.765625 10.34375 13.015625 10.980469 12.953125 11.988281 L 10.703125 11.988281 C 10.785156 9.785156 12.421875 8.398438 14.960938 8.398438 C 17.347656 8.398438 19.0625 9.707031 19.0625 11.535156 C 19.0625 12.882812 18.214844 13.929688 16.917969 14.195312 L 16.917969 14.339844 C 18.515625 14.519531 19.515625 15.582031 19.515625 17.117188 C 19.515625 19.15625 17.597656 20.632812 14.945312 20.632812 Z M 14.945312 20.632812 " fill-opacity="1" fill-rule="nonzero"/></g></svg>