<svg xmlns="http://www.w3.org/2000/svg" xmlns:xlink="http://www.w3.org/1999/xlink" width="40" zoomAndPan="magnify" viewBox="0 0 30 30.000001" height="40" preserveAspectRatio="xMidYMid meet" version="1.0"><defs><clipPath id="4c1950d717"><path d="M 0.882812 0.398438 L 29.191406 0.398438 L 29.191406 28.707031 L 0.882812 28.707031 Z M 0.882812 0.398438 " clip-rule="nonzero"/></clipPath></defs><g clip-path="url(#4c1950d717)"><path fill="#E7B32E" d="M 15.035156 0.398438 C 7.21875 0.398438 0.882812 6.734375 0.882812 14.550781 C 0.882812 22.367188 7.21875 28.707031 15.035156 28.707031 C 22.851562 28.707031 29.191406 22.367188 29.191406 14.550781 C 29.191406 6.734375 22.851562 0.398438 15.035156 0.398438 Z M 14.28125 8.734375 L 17.691406 8.734375 L 17.691406 16.316406 L 19.214844 16.316406 L 19.214844 18.335938 L 17.691406 18.335938 L 17.691406 20.367188 L 15.367188 20.367188 L 15.367188 18.335938 L 9.675781 18.335938 L 9.675781 16.1875 C 10.722656 14.210938 12.242188 11.808594 14.28125 8.734375 Z M 15.296875 10.628906 C 14.234375 12.21875 13.191406 13.847656 11.863281 16.257812 L 11.863281 16.386719 L 15.425781 16.386719 L 15.425781 10.628906 Z M 15.296875 10.628906 " fill-opacity="1" fill-rule="nonzero"/></g></svg>