<svg xmlns="http://www.w3.org/2000/svg" xmlns:xlink="http://www.w3.org/1999/xlink" width="40" zoomAndPan="magnify" viewBox="0 0 30 30.000001" height="40" preserveAspectRatio="xMidYMid meet" version="1.0"><defs><clipPath id="137db70429"><path d="M 0.484375 0 L 29.515625 0 L 29.515625 29.03125 L 0.484375 29.03125 Z M 0.484375 0 " clip-rule="nonzero"/></clipPath></defs><g clip-path="url(#137db70429)"><path fill="#ffdd60" d="M 15 0 C 6.984375 0 0.484375 6.5 0.484375 14.515625 C 0.484375 22.53125 6.984375 29.03125 15 29.03125 C 23.015625 29.03125 29.515625 22.53125 29.515625 14.515625 C 29.515625 6.5 23.015625 0 15 0 Z M 19.375 20.566406 L 10.765625 20.566406 L 10.765625 18.820312 L 14.660156 15.007812 C 16.339844 13.371094 16.761719 12.75 16.761719 11.972656 C 16.761719 11.015625 15.984375 10.335938 14.890625 10.335938 C 13.734375 10.335938 12.941406 11.097656 12.941406 12.195312 L 12.941406 12.246094 L 10.625 12.246094 L 10.625 12.203125 C 10.625 9.898438 12.394531 8.328125 14.976562 8.328125 C 17.464844 8.328125 19.203125 9.757812 19.203125 11.808594 C 19.203125 13.105469 18.5 14.222656 16.429688 16.167969 L 14.148438 18.339844 L 14.148438 18.488281 L 19.375 18.488281 Z M 19.375 20.566406 " fill-opacity="1" fill-rule="nonzero"/></g></svg>