<svg xmlns="http://www.w3.org/2000/svg" xmlns:xlink="http://www.w3.org/1999/xlink" width="40" zoomAndPan="magnify" viewBox="0 0 30 30.000001" height="40" preserveAspectRatio="xMidYMid meet" version="1.0"><defs><clipPath id="0f225a0099"><path d="M 0.484375 0 L 29.515625 0 L 29.515625 29.03125 L 0.484375 29.03125 Z M 0.484375 0 " clip-rule="nonzero"/></clipPath></defs><g clip-path="url(#0f225a0099)"><path fill="#ffdd60" d="M 15 0 C 6.984375 0 0.484375 6.5 0.484375 14.515625 C 0.484375 22.53125 6.984375 29.03125 15 29.03125 C 23.015625 29.03125 29.515625 22.53125 29.515625 14.515625 C 29.515625 6.5 23.015625 0 15 0 Z M 14.941406 20.789062 C 12.28125 20.789062 10.476562 19.316406 10.371094 17.066406 L 12.757812 17.066406 C 12.835938 18.078125 13.6875 18.710938 14.96875 18.710938 C 16.214844 18.710938 17.085938 18.007812 17.085938 16.992188 C 17.085938 15.949219 16.265625 15.304688 14.925781 15.304688 L 13.445312 15.304688 L 13.445312 13.445312 L 14.902344 13.445312 C 16.035156 13.445312 16.800781 12.78125 16.800781 11.804688 C 16.800781 10.847656 16.058594 10.234375 14.890625 10.234375 C 13.734375 10.234375 12.964844 10.886719 12.898438 11.921875 L 10.59375 11.921875 C 10.675781 9.664062 12.355469 8.242188 14.957031 8.242188 C 17.40625 8.242188 19.167969 9.582031 19.167969 11.460938 C 19.167969 12.839844 18.296875 13.914062 16.96875 14.1875 L 16.96875 14.335938 C 18.605469 14.519531 19.628906 15.609375 19.628906 17.183594 C 19.628906 19.273438 17.664062 20.789062 14.941406 20.789062 Z M 14.941406 20.789062 " fill-opacity="1" fill-rule="nonzero"/></g></svg>