<svg xmlns="http://www.w3.org/2000/svg" xmlns:xlink="http://www.w3.org/1999/xlink" width="40" zoomAndPan="magnify" viewBox="0 0 30 30.000001" height="40" preserveAspectRatio="xMidYMid meet" version="1.0"><defs><clipPath id="e594942007"><path d="M 0.484375 0 L 29.515625 0 L 29.515625 29.03125 L 0.484375 29.03125 Z M 0.484375 0 " clip-rule="nonzero"/></clipPath></defs><g clip-path="url(#e594942007)"><path fill="#ffdd60" d="M 15 0 C 6.984375 0 0.484375 6.5 0.484375 14.515625 C 0.484375 22.53125 6.984375 29.03125 15 29.03125 C 23.015625 29.03125 29.515625 22.53125 29.515625 14.515625 C 29.515625 6.5 23.015625 0 15 0 Z M 14.226562 8.550781 L 17.722656 8.550781 L 17.722656 16.324219 L 19.285156 16.324219 L 19.285156 18.398438 L 17.722656 18.398438 L 17.722656 20.480469 L 15.339844 20.480469 L 15.339844 18.398438 L 9.503906 18.398438 L 9.503906 16.191406 C 10.578125 14.164062 12.132812 11.699219 14.226562 8.550781 Z M 15.265625 10.492188 C 14.175781 12.121094 13.109375 13.792969 11.746094 16.265625 L 11.746094 16.398438 L 15.398438 16.398438 L 15.398438 10.492188 Z M 15.265625 10.492188 " fill-opacity="1" fill-rule="nonzero"/></g></svg>